<svg xmlns:dc="http://purl.org/dc/elements/1.1/" xmlns:cc="http://creativecommons.org/ns#" xmlns:rdf="http://www.w3.org/1999/02/22-rdf-syntax-ns#" xmlns:svg="http://www.w3.org/2000/svg" xmlns="http://www.w3.org/2000/svg" id="svg9" version="1.0" viewBox="1089.45 468.71 57.47 115">
  <metadata id="metadata13">
    <rdf:RDF>
      <cc:Work rdf:about="">
        <dc:format>image/svg+xml</dc:format>
        <dc:type rdf:resource="http://purl.org/dc/dcmitype/StillImage"/>
      </cc:Work>
    </rdf:RDF>
  </metadata>
  <defs id="defs3">
    <pattern y="0" x="0" height="6" width="6" patternUnits="userSpaceOnUse" id="WMFhbasepattern"/>
  </defs>
  <path id="path5" d="  M 1089.4737,556   L 1091.3684,555.94737   L 1093.2105,555.78947   L 1095.0526,555.47368   L 1096.8947,555.05263   L 1098.6842,554.52632   L 1100.4211,553.89474   L 1102.1579,553.15789   L 1103.8421,552.31579   L 1105.4211,551.36842   L 1107,550.31579   L 1108.4737,549.15789   L 1109.8421,547.94737   L 1111.2105,546.57895   L 1112.4211,545.21053   L 1113.5789,543.73684   L 1114.6316,542.15789   L 1115.5789,540.57895   L 1116.4211,538.89474   L 1117.1579,537.15789   L 1117.7895,535.42105   L 1118.3158,533.63158   L 1118.7368,531.78947   L 1119.0526,529.94737   L 1119.2105,528.10526   L 1119.2632,526.21053   L 1119.2105,524.31579   L 1119.0526,522.47368   L 1118.7368,520.63158   L 1118.3158,518.78947   L 1117.7895,517   L 1117.1579,515.26316   L 1116.4211,513.52632   L 1115.5789,511.84211   L 1114.6316,510.26316   L 1113.5789,508.68421   L 1112.4211,507.21053   L 1111.2105,505.84211   L 1109.8421,504.47368   L 1108.4737,503.26316   L 1107,502.10526   L 1105.4211,501.05263   L 1103.8421,500.10526   L 1102.1579,499.26316   L 1100.4211,498.52632   L 1098.6842,497.89474   L 1096.8947,497.36842   L 1095.0526,496.94737   L 1093.2105,496.63158   L 1091.3684,496.47368   L 1089.4737,496.42105  " style="fill:none;stroke:#212830;stroke-width:4px;stroke-linecap:round;stroke-linejoin:round;stroke-miterlimit:4;stroke-dasharray:none;stroke-opacity:1;"/>
  <path id="path7" d="  M 1089.4737,583.68421   L 1092.1053,583.63158   L 1094.7895,583.42105   L 1097.4211,583.15789   L 1100,582.68421   L 1102.6316,582.15789   L 1105.2105,581.47368   L 1107.7368,580.68421   L 1110.2105,579.78947   L 1112.6842,578.78947   L 1115.0526,577.68421   L 1117.4211,576.42105   L 1119.6842,575.05263   L 1121.9474,573.63158   L 1124.0526,572.05263   L 1126.1579,570.42105   L 1128.1579,568.68421   L 1130.0526,566.84211   L 1131.8947,564.94737   L 1133.6316,562.94737   L 1135.3158,560.84211   L 1136.8421,558.68421   L 1138.3158,556.47368   L 1139.6316,554.15789   L 1140.8947,551.84211   L 1142,549.42105   L 1143,546.94737   L 1143.8947,544.47368   L 1144.6842,541.94737   L 1145.3684,539.36842   L 1145.8947,536.78947   L 1146.3684,534.15789   L 1146.6316,531.52632   L 1146.8421,528.84211   L 1146.8947,526.21053   L 1146.8421,523.57895   L 1146.6316,520.89474   L 1146.3684,518.26316   L 1145.8947,515.63158   L 1145.3684,513.05263   L 1144.6842,510.47368   L 1143.8947,507.94737   L 1143,505.47368   L 1142,503   L 1140.8947,500.57895   L 1139.6316,498.26316   L 1138.3158,495.94737   L 1136.8421,493.73684   L 1135.3158,491.57895   L 1133.6316,489.47368   L 1131.8947,487.47368   L 1130.0526,485.57895   L 1128.1579,483.73684   L 1126.1579,482   L 1124.0526,480.36842   L 1121.9474,478.78947   L 1119.6842,477.36842   L 1117.4211,476   L 1115.0526,474.73684   L 1112.6842,473.63158   L 1110.2105,472.63158   L 1107.7368,471.73684   L 1105.2105,470.94737   L 1102.6316,470.26316   L 1100,469.73684   L 1097.4211,469.26316   L 1094.7895,469   L 1092.1053,468.78947   L 1089.4737,468.73684  " style="fill:none;stroke:#212830;stroke-width:4px;stroke-linecap:round;stroke-linejoin:round;stroke-miterlimit:4;stroke-dasharray:none;stroke-opacity:1;"/>
</svg>