<svg xmlns:inkscape="http://www.inkscape.org/namespaces/inkscape" xmlns:sodipodi="http://sodipodi.sourceforge.net/DTD/sodipodi-0.dtd" xmlns="http://www.w3.org/2000/svg" xmlns:svg="http://www.w3.org/2000/svg" version="1.0" id="svg31" sodipodi:docname="3in-6-elementH.wmf"
preserveAspectRatio="none"  viewBox="1045.11 281.58 71.26 273.21">
  <sodipodi:namedview id="namedview33" pagecolor="#ffffff" bordercolor="#000000" borderopacity="0.25" inkscape:showpageshadow="2" inkscape:pageopacity="0.0" inkscape:pagecheckerboard="0" inkscape:deskcolor="#d1d1d1" inkscape:document-units="mm"/>
  <defs id="defs3">
    <pattern id="WMFhbasepattern" patternUnits="userSpaceOnUse" width="6" height="6" x="0" y="0"/>
  </defs>
  <path style="fill:none;stroke:#212830;stroke-width:4px;stroke-linecap:round;stroke-linejoin:round;stroke-miterlimit:4;stroke-dasharray:none;stroke-opacity:1;" d="  M 1111.7368,418.15789   L 1114,407.63158   L 1114.1579,396.89474   L 1112.2632,386.26316   L 1108.4211,376.15789  " id="path5"/>
  <path style="fill:none;stroke:#212830;stroke-width:4px;stroke-linecap:round;stroke-linejoin:round;stroke-miterlimit:4;stroke-dasharray:none;stroke-opacity:1;" d="  M 1089.6316,339.31579   L 1088.2632,339.36842   L 1085.1579,339.47368   L 1080.7895,339.57895   L 1075.3158,339.68421   L 1062.1053,339.78947   L 1047.1053,339.84211  " id="path7"/>
  <path style="fill:none;stroke:#212830;stroke-width:4px;stroke-linecap:round;stroke-linejoin:round;stroke-miterlimit:4;stroke-dasharray:none;stroke-opacity:1;" d="  M 1047.1053,383.94737   L 1070.8947,383.84211   L 1080.6316,383.68421   L 1088,383.52632   L 1093.0526,383.26316   L 1096.2105,382.89474   L 1101.6316,381.15789   L 1106.8421,377.73684   L 1110.8947,373   L 1113.4737,367.31579   L 1114.3684,361.15789   L 1113.4737,354.94737   L 1110.8947,349.26316   L 1106.8421,344.57895   L 1101.6316,341.15789   L 1096.2105,339.42105   L 1093.0526,339   L 1088,338.78947   L 1080.6316,338.63158   L 1070.8947,338.47368   L 1047.1053,338.36842  " id="path9"/>
  <path style="fill:none;stroke:#212830;stroke-width:4px;stroke-linecap:round;stroke-linejoin:round;stroke-miterlimit:4;stroke-dasharray:none;stroke-opacity:1;" d="  M 1047.1053,417.36842   L 1056.8947,419.10526   L 1064.5789,423.52632   L 1069,429.26316   L 1070.2632,434.89474   L 1069,440.52632   L 1064.5789,446.21053   L 1056.8947,450.68421   L 1047.1053,452.42105  " id="path11"/>
  <path style="fill:none;stroke:#212830;stroke-width:4px;stroke-linecap:round;stroke-linejoin:round;stroke-miterlimit:4;stroke-dasharray:none;stroke-opacity:1;" d="  M 1047.1053,496.47368   L 1057.5789,495.73684   L 1067.8421,493.47368   L 1077.6316,489.78947   L 1086.6842,484.73684   L 1094.7895,478.36842   L 1101.6842,470.89474   L 1107.2632,462.47368   L 1111.3158,453.26316   L 1113.6842,443.52632   L 1114.3158,433.52632   L 1113.2105,423.63158   L 1110.3684,414   L 1105.8947,405   L 1099.9474,396.78947   L 1092.7368,389.57895   L 1084.3158,383.63158  " id="path13"/>
  <path style="fill:none;stroke:#212830;stroke-width:4px;stroke-linecap:round;stroke-linejoin:round;stroke-miterlimit:4;stroke-dasharray:none;stroke-opacity:1;" d="  M 1047.1053,327.68421   L 1054.3158,328.52632   L 1060.7368,331   L 1065.6316,334.52632   L 1068.6842,338.47368  " id="path15"/>
  <path style="fill:none;stroke:#212830;stroke-width:4px;stroke-linecap:round;stroke-linejoin:round;stroke-miterlimit:4;stroke-dasharray:none;stroke-opacity:1;" d="  M 1092.3684,389.36842   L 1100.2105,381.73684  " id="path17"/>
  <path style="fill:none;stroke:#212830;stroke-width:4px;stroke-linecap:round;stroke-linejoin:round;stroke-miterlimit:4;stroke-dasharray:none;stroke-opacity:1;" d="  M 1113.3158,354.68421   L 1114.2632,341.21053   L 1111.8421,327.94737   L 1106.3158,315.52632   L 1098,304.63158   L 1087.3684,295.63158   L 1075,289   L 1061.3158,284.94737   L 1047.1053,283.57895  " id="path19"/>
  <path style="fill:none;stroke:#212830;stroke-width:4px;stroke-linecap:round;stroke-linejoin:round;stroke-miterlimit:4;stroke-dasharray:none;stroke-opacity:1;" d="  M 1070.2105,492.68421   L 1068.7368,497.73684   L 1064.2632,503   L 1056.6842,507.10526   L 1047.1053,508.68421  " id="path21"/>
  <path style="fill:none;stroke:#212830;stroke-width:4px;stroke-linecap:round;stroke-linejoin:round;stroke-miterlimit:4;stroke-dasharray:none;stroke-opacity:1;" d="  M 1047.1053,552.78947   L 1055.5263,552.31579   L 1063.8421,550.84211   L 1071.8947,548.47368   L 1079.5789,545.21053   L 1086.7895,541.10526   L 1093.3684,536.15789   L 1099.2105,530.47368   L 1104.2105,524.10526   L 1108.3158,517.15789   L 1111.4211,509.78947   L 1113.4211,502.05263   L 1114.3158,494.15789   L 1114.0526,486.15789   L 1112.6842,478.31579   L 1110.1579,470.73684   L 1106.5789,463.52632  " id="path23"/>
  <path style="fill:none;stroke:#212830;stroke-width:4px;stroke-linecap:round;stroke-linejoin:round;stroke-miterlimit:4;stroke-dasharray:none;stroke-opacity:1;" d="  M 1070.2105,434.73684   L 1058.8421,432   L 1047.1053,431.05263  " id="path25"/>
  <path style="fill:none;stroke:#212830;stroke-width:4px;stroke-linecap:round;stroke-linejoin:round;stroke-miterlimit:4;stroke-dasharray:none;stroke-opacity:1;" d="  M 1047.1053,497.94737   L 1068.6316,497.89474  " id="path27"/>
  <path style="fill:none;stroke:#212830;stroke-width:4px;stroke-linecap:round;stroke-linejoin:round;stroke-miterlimit:4;stroke-dasharray:none;stroke-opacity:1;" d="  M 1113.3684,481.73684   L 1114.3158,476   L 1113.7895,470.26316   L 1111.7895,464.84211   L 1108.4211,460.15789  " id="path29"/>
</svg>