<svg xmlns:inkscape="http://www.inkscape.org/namespaces/inkscape" xmlns:sodipodi="http://sodipodi.sourceforge.net/DTD/sodipodi-0.dtd" xmlns="http://www.w3.org/2000/svg" xmlns:svg="http://www.w3.org/2000/svg" version="1.0" id="svg39" sodipodi:docname="4in-9-elementH.wmf" 
preserveAspectRatio="none" viewBox="814.68 142.05 75.26 354.74">
  <sodipodi:namedview id="namedview41" pagecolor="#ffffff" bordercolor="#000000" borderopacity="0.25" inkscape:showpageshadow="2" inkscape:pageopacity="0.0" inkscape:pagecheckerboard="0" inkscape:deskcolor="#d1d1d1" inkscape:document-units="mm"/>
  <defs id="defs3">
    <pattern id="WMFhbasepattern" patternUnits="userSpaceOnUse" width="6" height="6" x="0" y="0"/>
  </defs>
  <path style="fill:none;stroke:#212830;stroke-width:4px;stroke-linecap:round;stroke-linejoin:round;stroke-miterlimit:4;stroke-dasharray:none;stroke-opacity:1;" d="  M 881.94737,238.52632   L 886.73684,223.78947   L 887.84211,208.42105  " id="path5"/>
  <path style="fill:none;stroke:#212830;stroke-width:4px;stroke-linecap:round;stroke-linejoin:round;stroke-miterlimit:4;stroke-dasharray:none;stroke-opacity:1;" d="  M 886.26316,197   L 882.68421,186   L 877.15789,175.78947   L 869.89474,166.63158   L 861.15789,158.78947   L 851.15789,152.47368   L 840.21053,147.84211   L 828.57895,145   L 816.68421,144.05263  " id="path7"/>
  <path style="fill:none;stroke:#212830;stroke-width:4px;stroke-linecap:round;stroke-linejoin:round;stroke-miterlimit:4;stroke-dasharray:none;stroke-opacity:1;" d="  M 816.68421,208.36842   L 826.89474,209   L 835.89474,210.78947   L 842.26316,213.15789   L 843.94737,214.10526   L 844.52632,214.52632  " id="path9"/>
  <path style="fill:none;stroke:#212830;stroke-width:4px;stroke-linecap:round;stroke-linejoin:round;stroke-miterlimit:4;stroke-dasharray:none;stroke-opacity:1;" d="  M 875.94737,233.31579   L 880.78947,228   L 884.57895,221.73684   L 887.05263,214.73684   L 887.94737,207.36842   L 887.15789,199.94737   L 884.73684,192.94737   L 881,186.68421   L 876.21053,181.26316   L 870.57895,176.68421   L 864.31579,172.84211   L 850.05263,167.05263   L 833.89474,163.57895   L 816.68421,162.42105  " id="path11"/>
  <path style="fill:none;stroke:#212830;stroke-width:4px;stroke-linecap:round;stroke-linejoin:round;stroke-miterlimit:4;stroke-dasharray:none;stroke-opacity:1;" d="  M 816.68421,289.47368   L 841.26316,288.10526   L 852.26316,286.42105   L 862.05263,284.05263   L 870.73684,280.63158   L 878.84211,275.26316   L 882.47368,271.36842   L 885.36842,266.63158   L 887.31579,261.21053   L 887.94737,255.42105   L 887.31579,249.63158   L 885.36842,244.21053   L 882.47368,239.47368   L 878.84211,235.57895   L 870.73684,230.21053   L 862.05263,226.78947   L 852.26316,224.42105   L 841.26316,222.73684   L 816.68421,221.36842  " id="path13"/>
  <path style="fill:none;stroke:#212830;stroke-width:4px;stroke-linecap:round;stroke-linejoin:round;stroke-miterlimit:4;stroke-dasharray:none;stroke-opacity:1;" d="  M 850.31579,239.52632   L 849.42105,239.84211   L 846.94737,240.57895   L 838.89474,242.10526   L 828.36842,243.15789   L 816.68421,243.52632  " id="path15"/>
  <path style="fill:none;stroke:#212830;stroke-width:4px;stroke-linecap:round;stroke-linejoin:round;stroke-miterlimit:4;stroke-dasharray:none;stroke-opacity:1;" d="  M 816.68421,494.78947   L 832.10526,493.47368   L 846.84211,489.42105   L 860.26316,482.84211   L 871.68421,473.89474   L 880.52632,462.73684   L 886.10526,449.94737   L 887.52632,443.10526   L 887.94737,436.15789   L 887.36842,429.21053   L 885.84211,422.36842  " id="path17"/>
  <path style="fill:none;stroke:#212830;stroke-width:4px;stroke-linecap:round;stroke-linejoin:round;stroke-miterlimit:4;stroke-dasharray:none;stroke-opacity:1;" d="  M 816.68421,424.36842   L 823.68421,424.94737   L 830.05263,426.57895  " id="path19"/>
  <path style="fill:none;stroke:#212830;stroke-width:4px;stroke-linecap:round;stroke-linejoin:round;stroke-miterlimit:4;stroke-dasharray:none;stroke-opacity:1;" d="  M 816.68421,395.31579   L 827.42105,394.63158   L 837.89474,392.57895   L 847.94737,389.15789   L 857.31579,384.42105   L 865.78947,378.47368   L 873.15789,371.42105   L 879.21053,363.36842   L 883.78947,354.47368   L 886.73684,345   L 887.94737,335.15789   L 887.31579,325.26316   L 884.89474,315.68421   L 880.78947,306.57895   L 875.15789,298.21053   L 868.21053,290.84211   L 860,284.57895  " id="path21"/>
  <path style="fill:none;stroke:#212830;stroke-width:4px;stroke-linecap:round;stroke-linejoin:round;stroke-miterlimit:4;stroke-dasharray:none;stroke-opacity:1;" d="  M 816.68421,317.84211   L 827.94737,319.63158   L 832.73684,321.68421   L 836.57895,324.21053   L 839.31579,326.89474   L 840.94737,329.42105   L 842.05263,333.63158   L 840.94737,337.78947   L 839.31579,340.36842   L 836.57895,343   L 832.73684,345.52632   L 827.94737,347.57895   L 816.68421,349.36842  " id="path23"/>
  <path style="fill:none;stroke:#212830;stroke-width:4px;stroke-linecap:round;stroke-linejoin:round;stroke-miterlimit:4;stroke-dasharray:none;stroke-opacity:1;" d="  M 816.68421,476.42105   L 826.15789,475.78947   L 835.47368,473.89474   L 844.47368,470.78947   L 853,466.47368   L 860.84211,461.10526   L 867.89474,454.73684   L 874.05263,447.47368   L 879.15789,439.42105   L 883.15789,430.78947   L 886,421.73684   L 887.57895,412.31579   L 887.89474,402.78947   L 886.94737,393.36842   L 884.73684,384.10526   L 881.36842,375.21053   L 876.73684,366.84211  " id="path25"/>
  <path style="fill:none;stroke:#212830;stroke-width:4px;stroke-linecap:round;stroke-linejoin:round;stroke-miterlimit:4;stroke-dasharray:none;stroke-opacity:1;" d="  M 840.73684,338.15789   L 828.89474,334.94737   L 816.68421,333.89474  " id="path27"/>
  <path style="fill:none;stroke:#212830;stroke-width:4px;stroke-linecap:round;stroke-linejoin:round;stroke-miterlimit:4;stroke-dasharray:none;stroke-opacity:1;" d="  M 838.47368,392.36842   L 841.10526,398.42105   L 842.05263,405   L 841.21053,411.57895   L 838.68421,417.68421   L 834.68421,423   L 829.42105,427.05263   L 823.26316,429.63158   L 816.68421,430.47368  " id="path29"/>
  <path style="fill:none;stroke:#212830;stroke-width:4px;stroke-linecap:round;stroke-linejoin:round;stroke-miterlimit:4;stroke-dasharray:none;stroke-opacity:1;" d="  M 879,370.73684   L 883.42105,363.94737   L 886.47368,356.47368   L 887.84211,348.52632   L 887.47368,340.42105  " id="path31"/>
  <path style="fill:none;stroke:#212830;stroke-width:4px;stroke-linecap:round;stroke-linejoin:round;stroke-miterlimit:4;stroke-dasharray:none;stroke-opacity:1;" d="  M 827.21053,334.78947   L 841.63158,331.10526  " id="path33"/>
  <path style="fill:none;stroke:#212830;stroke-width:4px;stroke-linecap:round;stroke-linejoin:round;stroke-miterlimit:4;stroke-dasharray:none;stroke-opacity:1;" d="  M 877.78947,301.84211   L 882.84211,292   L 886.21053,281.47368   L 887.78947,270.57895   L 887.57895,259.57895  " id="path35"/>
  <path style="fill:none;stroke:#212830;stroke-width:4px;stroke-linecap:round;stroke-linejoin:round;stroke-miterlimit:4;stroke-dasharray:none;stroke-opacity:1;" d="  M 882.36842,239.36842   L 881.94737,238.52632  " id="path37"/>
</svg>