<svg xmlns:inkscape="http://www.inkscape.org/namespaces/inkscape" xmlns:sodipodi="http://sodipodi.sourceforge.net/DTD/sodipodi-0.dtd" xmlns="http://www.w3.org/2000/svg" xmlns:svg="http://www.w3.org/2000/svg" version="1.0" id="svg33" sodipodi:docname="4in-6-elementH.wmf" 
preserveAspectRatio="none" viewBox="1270.58 361.26 45.05 200.74">
  <sodipodi:namedview id="namedview35" pagecolor="#ffffff" bordercolor="#000000" borderopacity="0.25" inkscape:showpageshadow="2" inkscape:pageopacity="0.0" inkscape:pagecheckerboard="0" inkscape:deskcolor="#d1d1d1" inkscape:document-units="mm"/>
  <defs id="defs3">
    <pattern id="WMFhbasepattern" patternUnits="userSpaceOnUse" width="6" height="6" x="0" y="0"/>
  </defs>
  <path style="fill:none;stroke:#212830;stroke-width:4px;stroke-linecap:round;stroke-linejoin:round;stroke-miterlimit:4;stroke-dasharray:none;stroke-opacity:1;" d="  M 1272.5789,441.94737   L 1286.6842,441.36842   L 1292.8421,440.63158   L 1298.3158,439.57895   L 1303.1053,438.10526   L 1307.8947,435.36842   L 1310.1579,433.21053   L 1312,430.47368   L 1313.2105,427.26316   L 1313.6316,423.84211   L 1313.2105,420.42105   L 1312,417.21053   L 1310.1579,414.47368   L 1307.8947,412.31579   L 1303.1053,409.57895   L 1298.3158,408.10526   L 1292.8421,407.05263   L 1286.6842,406.31579   L 1272.5789,405.73684  " id="path5"/>
  <path style="fill:none;stroke:#212830;stroke-width:4px;stroke-linecap:round;stroke-linejoin:round;stroke-miterlimit:4;stroke-dasharray:none;stroke-opacity:1;" d="  M 1272.5789,432.63158   L 1279.6316,432.78947   L 1286,433.26316   L 1290.8947,434   L 1292.4211,434.31579   L 1293,434.52632  " id="path7"/>
  <path style="fill:none;stroke:#212830;stroke-width:4px;stroke-linecap:round;stroke-linejoin:round;stroke-miterlimit:4;stroke-dasharray:none;stroke-opacity:1;" d="  M 1272.5789,517.52632   L 1280.3684,516.94737   L 1287.8947,515.05263   L 1294.8947,512.05263   L 1301.1053,507.89474   L 1306.3158,502.68421   L 1310.2632,496.63158   L 1312.7895,489.94737   L 1313.6316,482.89474   L 1312.7895,475.78947   L 1310.2632,469.10526   L 1306.3158,463.05263   L 1301.1053,457.84211   L 1294.8947,453.68421   L 1287.8947,450.68421   L 1280.3684,448.84211   L 1272.5789,448.21053  " id="path9"/>
  <path style="fill:none;stroke:#212830;stroke-width:4px;stroke-linecap:round;stroke-linejoin:round;stroke-miterlimit:4;stroke-dasharray:none;stroke-opacity:1;" d="  M 1272.5789,475.10526   L 1279.1053,476.10526   L 1281.8421,477.21053   L 1284,478.57895   L 1285.4737,479.94737   L 1286.2632,481.21053   L 1286.7368,482.89474   L 1286.2632,484.57895   L 1285.4737,485.78947   L 1284,487.15789   L 1281.8421,488.52632   L 1279.1053,489.68421   L 1272.5789,490.63158  " id="path11"/>
  <path style="fill:none;stroke:#212830;stroke-width:4px;stroke-linecap:round;stroke-linejoin:round;stroke-miterlimit:4;stroke-dasharray:none;stroke-opacity:1;" d="  M 1286.5789,441.36842   L 1285.5263,443.21053   L 1282.7368,445.57895   L 1278.2105,447.47368   L 1272.5789,448.21053  " id="path13"/>
  <path style="fill:none;stroke:#212830;stroke-width:4px;stroke-linecap:round;stroke-linejoin:round;stroke-miterlimit:4;stroke-dasharray:none;stroke-opacity:1;" d="  M 1305.1053,461.63158   L 1310,454.78947   L 1312.8947,447   L 1313.5789,438.73684   L 1313.0526,434.57895   L 1311.8947,430.57895  " id="path15"/>
  <path style="fill:none;stroke:#212830;stroke-width:4px;stroke-linecap:round;stroke-linejoin:round;stroke-miterlimit:4;stroke-dasharray:none;stroke-opacity:1;" d="  M 1272.5789,390.15789   L 1276.1053,390.57895   L 1279.3684,391.68421   L 1282.1579,393.47368   L 1284.3158,395.68421   L 1285.7895,398.21053   L 1286.5789,400.89474   L 1286.6842,403.57895   L 1286.1053,406.31579  " id="path17"/>
  <path style="fill:none;stroke:#212830;stroke-width:4px;stroke-linecap:round;stroke-linejoin:round;stroke-miterlimit:4;stroke-dasharray:none;stroke-opacity:1;" d="  M 1311.1579,415.89474   L 1312.5789,411.36842   L 1313.4211,406.68421   L 1313.2105,397.21053   L 1310.7368,388.10526   L 1306.0526,379.84211   L 1299.4737,372.89474   L 1291.3684,367.63158   L 1282.2632,364.36842   L 1272.5789,363.26316  " id="path19"/>
  <path style="fill:none;stroke:#212830;stroke-width:4px;stroke-linecap:round;stroke-linejoin:round;stroke-miterlimit:4;stroke-dasharray:none;stroke-opacity:1;" d="  M 1272.5789,560   L 1277.9474,559.68421   L 1283.1579,558.68421   L 1288.2632,557   L 1293.0526,554.73684   L 1297.5263,551.89474   L 1301.5789,548.52632   L 1305.1579,544.63158   L 1308.1579,540.31579   L 1310.5263,535.63158   L 1312.2632,530.73684   L 1313.2632,525.63158   L 1313.6316,520.42105   L 1313.2105,515.21053   L 1312.1053,510.15789   L 1310.3158,505.26316   L 1307.8421,500.63158  " id="path21"/>
  <path style="fill:none;stroke:#212830;stroke-width:4px;stroke-linecap:round;stroke-linejoin:round;stroke-miterlimit:4;stroke-dasharray:none;stroke-opacity:1;" d="  M 1286.5789,483.73684   L 1279.6842,481.94737   L 1272.5789,481.31579  " id="path23"/>
  <path style="fill:none;stroke:#212830;stroke-width:4px;stroke-linecap:round;stroke-linejoin:round;stroke-miterlimit:4;stroke-dasharray:none;stroke-opacity:1;" d="  M 1285.5263,515.78947   L 1286.5263,518.57895   L 1286.7368,521.47368   L 1286.1053,524.31579   L 1284.7368,527.05263   L 1282.5789,529.47368   L 1279.6842,531.42105   L 1276.3158,532.68421   L 1272.5789,533.10526  " id="path25"/>
  <path style="fill:none;stroke:#212830;stroke-width:4px;stroke-linecap:round;stroke-linejoin:round;stroke-miterlimit:4;stroke-dasharray:none;stroke-opacity:1;" d="  M 1272.5789,517.52632   L 1286.1053,517  " id="path27"/>
  <path style="fill:none;stroke:#212830;stroke-width:4px;stroke-linecap:round;stroke-linejoin:round;stroke-miterlimit:4;stroke-dasharray:none;stroke-opacity:1;" d="  M 1311.1579,507.42105   L 1312.8421,504   L 1313.5789,500.21053   L 1313.2632,496.31579   L 1311.8947,492.73684  " id="path29"/>
  <path style="fill:none;stroke:#212830;stroke-width:4px;stroke-linecap:round;stroke-linejoin:round;stroke-miterlimit:4;stroke-dasharray:none;stroke-opacity:1;" d="  M 1286.5789,481.94737   L 1272.5789,481.31579  " id="path31"/>
</svg>