<svg xmlns:dc="http://purl.org/dc/elements/1.1/" xmlns:cc="http://creativecommons.org/ns#" xmlns:rdf="http://www.w3.org/1999/02/22-rdf-syntax-ns#" xmlns:svg="http://www.w3.org/2000/svg" xmlns="http://www.w3.org/2000/svg" id="svg39" version="1.0" 
preserveAspectRatio="none" viewBox="722.79 46.37 63.37 394.11">
  <metadata id="metadata43">
    <rdf:RDF>
      <cc:Work rdf:about="">
        <dc:format>image/svg+xml</dc:format>
        <dc:type rdf:resource="http://purl.org/dc/dcmitype/StillImage"/>
      </cc:Work>
    </rdf:RDF>
  </metadata>
  <defs id="defs3">
    <pattern y="0" x="0" height="6" width="6" patternUnits="userSpaceOnUse" id="WMFhbasepattern"/>
  </defs>
  <path id="path5" d="  M 724.78947,298.42105   L 729.36842,298.84211   L 733.73684,299.94737   L 737.57895,301.73684   L 740.73684,304   L 743.15789,306.52632   L 744.73684,309.10526   L 745.89474,314.15789   L 744.73684,319.21053   L 743.15789,321.84211   L 740.73684,324.36842   L 737.57895,326.63158   L 733.73684,328.36842   L 729.36842,329.52632   L 724.78947,329.89474  " style="fill:none;stroke:#212830;stroke-width:4px;stroke-linecap:round;stroke-linejoin:round;stroke-miterlimit:4;stroke-dasharray:none;stroke-opacity:1;"/>
  <path id="path7" d="  M 724.78947,368.15789   L 736.21053,367.15789   L 747.21053,364.15789   L 757.36842,359.31579   L 766.42105,352.73684   L 773.84211,344.57895   L 779.47368,335.21053   L 782.94737,324.89474   L 784.15789,314.15789   L 782.94737,303.42105   L 779.47368,293.15789   L 773.84211,283.78947   L 766.42105,275.63158   L 757.36842,269.05263   L 747.21053,264.15789   L 736.21053,261.21053   L 724.78947,260.21053  " style="fill:none;stroke:#212830;stroke-width:4px;stroke-linecap:round;stroke-linejoin:round;stroke-miterlimit:4;stroke-dasharray:none;stroke-opacity:1;"/>
  <path id="path9" d="  M 745.52632,364.73684   L 743.47368,369.15789   L 739.10526,373.42105   L 732.57895,376.52632   L 724.78947,377.68421  " style="fill:none;stroke:#212830;stroke-width:4px;stroke-linecap:round;stroke-linejoin:round;stroke-miterlimit:4;stroke-dasharray:none;stroke-opacity:1;"/>
  <path id="path11" d="  M 724.78947,415.94737   L 732.15789,415.52632   L 739.42105,414.26316   L 746.47368,412.21053   L 753.15789,409.36842   L 759.47368,405.78947   L 765.21053,401.52632   L 770.36842,396.57895   L 774.78947,391.05263   L 778.47368,385   L 781.26316,378.57895   L 783.10526,371.89474   L 784.05263,365   L 784,358   L 782.94737,351.10526   L 780.94737,344.42105   L 778,338.10526  " style="fill:none;stroke:#212830;stroke-width:4px;stroke-linecap:round;stroke-linejoin:round;stroke-miterlimit:4;stroke-dasharray:none;stroke-opacity:1;"/>
  <path id="path13" d="  M 745.52632,311.36842   L 735.31579,308.78947   L 724.78947,307.94737  " style="fill:none;stroke:#212830;stroke-width:4px;stroke-linecap:round;stroke-linejoin:round;stroke-miterlimit:4;stroke-dasharray:none;stroke-opacity:1;"/>
  <path id="path15" d="  M 724.78947,368.73684   L 732.73684,369.94737   L 736.26316,371.36842   L 739.31579,373.21053  " style="fill:none;stroke:#212830;stroke-width:4px;stroke-linecap:round;stroke-linejoin:round;stroke-miterlimit:4;stroke-dasharray:none;stroke-opacity:1;"/>
  <path id="path17" d="  M 724.78947,438.47368   L 731.26316,438.15789   L 737.68421,437.21053   L 743.94737,435.57895   L 749.94737,433.42105   L 755.73684,430.57895   L 761.10526,427.21053   L 766.05263,423.31579   L 770.52632,418.94737   L 774.47368,414.10526   L 777.78947,408.84211   L 780.42105,403.31579   L 782.42105,397.47368   L 783.63158,391.47368   L 784.10526,385.36842   L 783.84211,379.26316   L 782.78947,373.21053  " style="fill:none;stroke:#212830;stroke-width:4px;stroke-linecap:round;stroke-linejoin:round;stroke-miterlimit:4;stroke-dasharray:none;stroke-opacity:1;"/>
  <path id="path19" d="  M 782.78947,113.63158   L 783.84211,107.57895   L 784.10526,101.47368   L 783.63158,95.368421   L 782.42105,89.368421   L 780.42105,83.526316   L 777.78947,78   L 774.47368,72.736842   L 770.52632,67.894737   L 766.05263,63.473684   L 761.10526,59.578947   L 755.73684,56.210526   L 750,53.421053   L 743.94737,51.210526   L 737.68421,49.631579   L 731.26316,48.684211   L 724.78947,48.368421  " style="fill:none;stroke:#212830;stroke-width:4px;stroke-linecap:round;stroke-linejoin:round;stroke-miterlimit:4;stroke-dasharray:none;stroke-opacity:1;"/>
  <path id="path21" d="  M 739.31579,113.57895   L 736.31579,115.47368   L 732.73684,116.84211   L 724.78947,118.05263  " style="fill:none;stroke:#212830;stroke-width:4px;stroke-linecap:round;stroke-linejoin:round;stroke-miterlimit:4;stroke-dasharray:none;stroke-opacity:1;"/>
  <path id="path23" d="  M 724.78947,178.84211   L 735.31579,178   L 745.52632,175.42105  " style="fill:none;stroke:#212830;stroke-width:4px;stroke-linecap:round;stroke-linejoin:round;stroke-miterlimit:4;stroke-dasharray:none;stroke-opacity:1;"/>
  <path id="path25" d="  M 778,148.78947   L 780.94737,142.42105   L 782.94737,135.73684   L 784,128.84211   L 784.05263,121.89474   L 783.15789,114.94737   L 781.26316,108.26316   L 778.47368,101.84211   L 774.84211,95.789474   L 770.36842,90.263158   L 765.21053,85.315789   L 759.47368,81.052632   L 753.15789,77.421053   L 746.47368,74.631579   L 739.42105,72.578947   L 732.15789,71.315789   L 724.78947,70.894737  " style="fill:none;stroke:#212830;stroke-width:4px;stroke-linecap:round;stroke-linejoin:round;stroke-miterlimit:4;stroke-dasharray:none;stroke-opacity:1;"/>
  <path id="path27" d="  M 724.78947,109.15789   L 732.57895,110.26316   L 739.05263,113.36842   L 743.42105,117.63158   L 745.52632,122.05263  " style="fill:none;stroke:#212830;stroke-width:4px;stroke-linecap:round;stroke-linejoin:round;stroke-miterlimit:4;stroke-dasharray:none;stroke-opacity:1;"/>
  <path id="path29" d="  M 724.78947,226.63158   L 736.21053,225.63158   L 747.21053,222.63158   L 757.36842,217.78947   L 766.42105,211.15789   L 773.84211,203.05263   L 779.47368,193.68421   L 782.94737,183.36842   L 784.15789,172.63158   L 782.94737,161.89474   L 779.47368,151.63158   L 773.84211,142.26316   L 766.42105,134.10526   L 757.36842,127.52632   L 747.21053,122.63158   L 736.21053,119.68421   L 724.78947,118.68421  " style="fill:none;stroke:#212830;stroke-width:4px;stroke-linecap:round;stroke-linejoin:round;stroke-miterlimit:4;stroke-dasharray:none;stroke-opacity:1;"/>
  <path id="path31" d="  M 724.78947,156.89474   L 729.36842,157.31579   L 733.73684,158.42105   L 737.57895,160.21053   L 740.73684,162.47368   L 743.15789,165   L 744.73684,167.57895   L 745.89474,172.63158   L 744.73684,177.68421   L 743.15789,180.31579   L 740.73684,182.84211   L 737.57895,185.05263   L 733.73684,186.84211   L 729.36842,188   L 724.78947,188.36842  " style="fill:none;stroke:#212830;stroke-width:4px;stroke-linecap:round;stroke-linejoin:round;stroke-miterlimit:4;stroke-dasharray:none;stroke-opacity:1;"/>
  <path id="path33" d="  M 741.94737,262.52632   L 765.05263,262.52632  " style="fill:none;stroke:#212830;stroke-width:4px;stroke-linecap:round;stroke-linejoin:round;stroke-miterlimit:4;stroke-dasharray:none;stroke-opacity:1;"/>
  <path id="path35" d="  M 765.05263,224.26316   L 741.94737,224.26316  " style="fill:none;stroke:#212830;stroke-width:4px;stroke-linecap:round;stroke-linejoin:round;stroke-miterlimit:4;stroke-dasharray:none;stroke-opacity:1;"/>
  <path id="path37" d="  M 765.05263,262.52632   L 766.52632,262.47368   L 768.05263,262.31579   L 769.52632,262   L 770.94737,261.57895   L 772.36842,261.05263   L 773.73684,260.42105   L 775.05263,259.73684   L 776.26316,258.89474   L 777.47368,257.94737   L 778.57895,256.94737   L 779.57895,255.84211   L 780.52632,254.63158   L 781.36842,253.42105   L 782.05263,252.10526   L 782.68421,250.73684   L 783.21053,249.31579   L 783.63158,247.89474   L 783.94737,246.42105   L 784.10526,244.89474   L 784.15789,243.42105   L 784.10526,241.94737   L 783.94737,240.42105   L 783.63158,238.94737   L 783.21053,237.52632   L 782.68421,236.10526   L 782.05263,234.73684   L 781.36842,233.42105   L 780.52632,232.21053   L 779.57895,231   L 778.57895,229.89474   L 777.47368,228.89474   L 776.26316,227.94737   L 775.05263,227.10526   L 773.73684,226.42105   L 772.36842,225.78947   L 770.94737,225.26316   L 769.52632,224.84211   L 768.05263,224.52632   L 766.52632,224.36842   L 765.05263,224.31579  " style="fill:none;stroke:#212830;stroke-width:4px;stroke-linecap:round;stroke-linejoin:round;stroke-miterlimit:4;stroke-dasharray:none;stroke-opacity:1;"/>
</svg>