<svg xmlns:dc="http://purl.org/dc/elements/1.1/" xmlns:cc="http://creativecommons.org/ns#" xmlns:rdf="http://www.w3.org/1999/02/22-rdf-syntax-ns#" xmlns:svg="http://www.w3.org/2000/svg" xmlns="http://www.w3.org/2000/svg" id="svg25" version="1.0" 
preserveAspectRatio="none" viewBox="819.32 330.89 52.63 244.16">
  <metadata id="metadata29">
    <rdf:RDF>
      <cc:Work rdf:about="">
        <dc:format>image/svg+xml</dc:format>
        <dc:type rdf:resource="http://purl.org/dc/dcmitype/StillImage"/>
      </cc:Work>
    </rdf:RDF>
  </metadata>
  <defs id="defs3">
    <pattern y="0" x="0" height="6" width="6" patternUnits="userSpaceOnUse" id="WMFhbasepattern"/>
  </defs>
  <path id="path5" d="  M 821.31579,447.42105   L 830.31579,446.94737   L 838.94737,445.52632   L 847,443.21053   L 854.26316,439.94737   L 860.42105,435.78947   L 863.10526,433.31579   L 865.42105,430.57895   L 867.31579,427.52632   L 868.73684,424.26316   L 869.63158,420.84211   L 869.94737,417.26316   L 869.63158,413.68421   L 868.73684,410.21053   L 867.31579,406.94737   L 865.42105,403.94737   L 863.10526,401.21053   L 860.42105,398.73684   L 854.26316,394.52632   L 847,391.31579   L 838.94737,388.94737   L 830.31579,387.52632   L 821.31579,387.05263  " style="fill:none;stroke:#212830;stroke-width:4px;stroke-linecap:round;stroke-linejoin:round;stroke-miterlimit:4;stroke-dasharray:none;stroke-opacity:1;"/>
  <path id="path7" d="  M 821.31579,410.47368   L 826.36842,410.68421   L 831.21053,411.26316   L 835.73684,412.26316   L 839.68421,413.52632   L 842.89474,415   L 845.15789,416.47368   L 846.36842,417.57895   L 846.68421,418  " style="fill:none;stroke:#212830;stroke-width:4px;stroke-linecap:round;stroke-linejoin:round;stroke-miterlimit:4;stroke-dasharray:none;stroke-opacity:1;"/>
  <path id="path9" d="  M 846.05263,417.26316   L 844.84211,418.26316   L 842.84211,419.47368   L 840.26316,420.73684   L 837.10526,421.84211   L 833.52632,422.78947   L 829.63158,423.47368   L 821.31579,424  " style="fill:none;stroke:#212830;stroke-width:4px;stroke-linecap:round;stroke-linejoin:round;stroke-miterlimit:4;stroke-dasharray:none;stroke-opacity:1;"/>
  <path id="path11" d="  M 821.31579,481.89474   L 829.63158,482.47368   L 833.52632,483.15789   L 837.10526,484.10526   L 840.26316,485.21053   L 842.89474,486.47368   L 844.84211,487.68421   L 846.05263,488.68421  " style="fill:none;stroke:#212830;stroke-width:4px;stroke-linecap:round;stroke-linejoin:round;stroke-miterlimit:4;stroke-dasharray:none;stroke-opacity:1;"/>
  <path id="path13" d="  M 846.68421,487.94737   L 846.36842,488.36842   L 845.15789,489.47368   L 842.89474,490.94737   L 839.68421,492.42105   L 835.73684,493.68421   L 831.21053,494.68421   L 826.36842,495.26316   L 821.31579,495.47368  " style="fill:none;stroke:#212830;stroke-width:4px;stroke-linecap:round;stroke-linejoin:round;stroke-miterlimit:4;stroke-dasharray:none;stroke-opacity:1;"/>
  <path id="path15" d="  M 821.31579,518.89474   L 830.31579,518.42105   L 838.94737,517   L 847,514.63158   L 854.26316,511.42105   L 860.42105,507.21053   L 863.10526,504.73684   L 865.42105,502   L 867.31579,499   L 868.73684,495.73684   L 869.63158,492.26316   L 869.94737,488.68421   L 869.63158,485.10526   L 868.73684,481.68421   L 867.31579,478.36842   L 865.42105,475.36842   L 863.10526,472.63158   L 860.42105,470.15789   L 854.26316,466   L 847,462.73684   L 838.94737,460.42105   L 830.31579,459   L 821.31579,458.52632  " style="fill:none;stroke:#212830;stroke-width:4px;stroke-linecap:round;stroke-linejoin:round;stroke-miterlimit:4;stroke-dasharray:none;stroke-opacity:1;"/>
  <path id="path17" d="  M 844.84211,390.57895   L 845.42105,388.89474   L 845.89474,387.21053   L 846.21053,385.52632   L 846.42105,383.78947   L 846.52632,382.05263   L 846.47368,380.31579   L 846.36842,378.57895   L 846.10526,376.84211   L 845.68421,375.15789   L 845.21053,373.47368   L 844.57895,371.84211   L 843.84211,370.26316   L 843.05263,368.73684   L 842.10526,367.26316   L 841.05263,365.84211   L 839.94737,364.52632   L 838.68421,363.26316   L 837.42105,362.10526   L 836,361.05263   L 834.57895,360.10526   L 833.05263,359.21053   L 831.47368,358.47368   L 829.84211,357.78947   L 828.21053,357.26316   L 826.52632,356.84211   L 824.78947,356.57895   L 823.05263,356.36842   L 821.31579,356.31579  " style="fill:none;stroke:#212830;stroke-width:4px;stroke-linecap:round;stroke-linejoin:round;stroke-miterlimit:4;stroke-dasharray:none;stroke-opacity:1;"/>
  <path id="path19" d="  M 864.84211,403.21053   L 865.89474,401   L 866.84211,398.68421   L 867.63158,396.36842   L 868.31579,394   L 868.89474,391.57895   L 869.36842,389.15789   L 869.68421,386.68421   L 869.89474,384.21053   L 869.94737,381.73684   L 869.89474,379.31579   L 869.73684,376.84211   L 869.42105,374.36842   L 869,371.94737   L 868.42105,369.52632   L 867.78947,367.15789   L 867,364.78947   L 866.05263,362.52632   L 865.05263,360.26316   L 863.89474,358.05263   L 862.68421,355.94737   L 861.31579,353.84211   L 859.84211,351.84211   L 858.31579,349.94737   L 856.63158,348.10526   L 854.89474,346.36842   L 853.05263,344.68421   L 851.15789,343.10526   L 849.15789,341.68421   L 847.10526,340.31579   L 845,339.05263   L 842.78947,337.89474   L 840.52632,336.84211   L 838.26316,335.94737   L 835.89474,335.15789   L 833.52632,334.47368   L 831.15789,333.89474   L 828.68421,333.47368   L 826.26316,333.15789   L 823.78947,332.94737   L 821.31579,332.89474  " style="fill:none;stroke:#212830;stroke-width:4px;stroke-linecap:round;stroke-linejoin:round;stroke-miterlimit:4;stroke-dasharray:none;stroke-opacity:1;"/>
  <path id="path21" d="  M 821.31579,549.63158   L 823.05263,549.57895   L 824.78947,549.36842   L 826.52632,549.10526   L 828.21053,548.68421   L 829.84211,548.15789   L 831.47368,547.47368   L 833.05263,546.73684   L 834.57895,545.84211   L 836,544.89474   L 837.42105,543.84211   L 838.68421,542.68421   L 839.94737,541.42105   L 841.05263,540.10526   L 842.10526,538.68421   L 843.05263,537.21053   L 843.84211,535.68421   L 844.57895,534.10526   L 845.21053,532.47368   L 845.68421,530.78947   L 846.10526,529.10526   L 846.36842,527.36842   L 846.47368,525.63158   L 846.52632,523.89474   L 846.42105,522.15789   L 846.21053,520.42105   L 845.89474,518.68421   L 845.42105,517   L 844.84211,515.36842  " style="fill:none;stroke:#212830;stroke-width:4px;stroke-linecap:round;stroke-linejoin:round;stroke-miterlimit:4;stroke-dasharray:none;stroke-opacity:1;"/>
  <path id="path23" d="  M 821.31579,573.05263   L 823.78947,573   L 826.26316,572.78947   L 828.68421,572.47368   L 831.10526,572.05263   L 833.52632,571.47368   L 835.89474,570.78947   L 838.26316,570   L 840.52632,569.10526   L 842.78947,568.05263   L 845,566.89474   L 847.10526,565.63158   L 849.15789,564.31579   L 851.15789,562.84211   L 853.05263,561.26316   L 854.89474,559.57895   L 856.63158,557.84211   L 858.26316,556   L 859.84211,554.10526   L 861.31579,552.10526   L 862.63158,550.05263   L 863.89474,547.89474   L 865.05263,545.68421   L 866.05263,543.47368   L 867,541.15789   L 867.78947,538.84211   L 868.42105,536.42105   L 869,534.05263   L 869.42105,531.57895   L 869.73684,529.15789   L 869.89474,526.68421   L 869.94737,524.21053   L 869.89474,521.73684   L 869.68421,519.26316   L 869.36842,516.84211   L 868.89474,514.42105   L 868.31579,512   L 867.63158,509.63158   L 866.84211,507.31579   L 865.89474,505   L 864.84211,502.78947  " style="fill:none;stroke:#212830;stroke-width:4px;stroke-linecap:round;stroke-linejoin:round;stroke-miterlimit:4;stroke-dasharray:none;stroke-opacity:1;"/>
</svg>