<svg xmlns:dc="http://purl.org/dc/elements/1.1/" xmlns:cc="http://creativecommons.org/ns#" xmlns:rdf="http://www.w3.org/1999/02/22-rdf-syntax-ns#" xmlns:svg="http://www.w3.org/2000/svg" xmlns="http://www.w3.org/2000/svg" id="svg73" version="1.0" viewBox="650.89 245.95 59.58 327.63">
  <metadata id="metadata77">
    <rdf:RDF>
      <cc:Work rdf:about="">
        <dc:format>image/svg+xml</dc:format>
        <dc:type rdf:resource="http://purl.org/dc/dcmitype/StillImage"/>
      </cc:Work>
    </rdf:RDF>
  </metadata>
  <defs id="defs3">
    <pattern y="0" x="0" height="6" width="6" patternUnits="userSpaceOnUse" id="WMFhbasepattern"/>
  </defs>
  <path id="path5" d="  M 679.05263,515.89474   L 677.10526,518.78947   L 674.52632,521.47368  " style="fill:none;stroke:#212830;stroke-width:4px;stroke-linecap:round;stroke-linejoin:round;stroke-miterlimit:4;stroke-dasharray:none;stroke-opacity:1;"/>
  <path id="path7" d="  M 707.94737,512.78947   L 708.42105,508.31579   L 708.42105,503.89474   L 707.94737,499.42105   L 707.05263,495.05263   L 704,486.63158   L 701.89474,482.63158   L 699.31579,478.84211  " style="fill:none;stroke:#212830;stroke-width:4px;stroke-linecap:round;stroke-linejoin:round;stroke-miterlimit:4;stroke-dasharray:none;stroke-opacity:1;"/>
  <path id="path9" d="  M 701.15789,379.10526   L 703.52632,375   L 705.42105,370.68421   L 706.89474,366.26316   L 707.84211,361.68421   L 708.36842,357.10526   L 708.42105,352.42105   L 708,347.78947   L 707.05263,343.21053  " style="fill:none;stroke:#212830;stroke-width:4px;stroke-linecap:round;stroke-linejoin:round;stroke-miterlimit:4;stroke-dasharray:none;stroke-opacity:1;"/>
  <path id="path11" d="  M 676.15789,377.52632   L 680.78947,375.42105   L 685.15789,372.89474   L 689.26316,370   L 693,366.73684  " style="fill:none;stroke:#212830;stroke-width:4px;stroke-linecap:round;stroke-linejoin:round;stroke-miterlimit:4;stroke-dasharray:none;stroke-opacity:1;"/>
  <path id="path13" d="  M 706.21053,346.21053   L 707.73684,340.42105   L 708.42105,334.52632   L 708.31579,328.63158   L 707.42105,322.73684  " style="fill:none;stroke:#212830;stroke-width:4px;stroke-linecap:round;stroke-linejoin:round;stroke-miterlimit:4;stroke-dasharray:none;stroke-opacity:1;"/>
  <path id="path15" d="  M 652.89474,336.52632   L 663.15789,335.94737   L 673.05263,334.31579   L 682.26316,331.68421   L 690.52632,327.94737   L 697.63158,323.21053   L 700.63158,320.36842   L 703.26316,317.21053   L 705.47368,313.78947   L 707.10526,310.05263   L 708.10526,306.10526   L 708.47368,302   L 708.10526,297.94737   L 707.10526,294   L 705.47368,290.26316   L 703.26316,286.78947   L 700.63158,283.68421   L 697.63158,280.84211   L 690.52632,276.05263   L 682.26316,272.36842   L 673.05263,269.68421   L 663.15789,268.05263   L 652.89474,267.52632  " style="fill:none;stroke:#212830;stroke-width:4px;stroke-linecap:round;stroke-linejoin:round;stroke-miterlimit:4;stroke-dasharray:none;stroke-opacity:1;"/>
  <path id="path17" d="  M 652.89474,294.26316   L 662.42105,294.94737   L 666.84211,295.73684   L 670.94737,296.78947   L 674.52632,298.05263   L 677.52632,299.47368   L 679.78947,300.84211   L 681.15789,302  " style="fill:none;stroke:#212830;stroke-width:4px;stroke-linecap:round;stroke-linejoin:round;stroke-miterlimit:4;stroke-dasharray:none;stroke-opacity:1;"/>
  <path id="path19" d="  M 681.89474,301.21053   L 681.52632,301.63158   L 680.15789,302.94737   L 677.52632,304.57895   L 673.89474,306.26316   L 669.36842,307.73684   L 664.21053,308.84211   L 658.68421,309.52632   L 652.89474,309.73684  " style="fill:none;stroke:#212830;stroke-width:4px;stroke-linecap:round;stroke-linejoin:round;stroke-miterlimit:4;stroke-dasharray:none;stroke-opacity:1;"/>
  <path id="path21" d="  M 652.89474,552   L 663.15789,551.47368   L 673.05263,549.84211   L 682.26316,547.21053   L 690.52632,543.47368   L 697.63158,538.68421   L 700.63158,535.89474   L 703.26316,532.73684   L 705.47368,529.31579   L 707.10526,525.57895   L 708.10526,521.63158   L 708.47368,517.52632   L 708.10526,513.47368   L 707.10526,509.47368   L 705.47368,505.73684   L 703.26316,502.31579   L 700.63158,499.21053   L 697.63158,496.36842   L 690.52632,491.57895   L 682.26316,487.89474   L 673.05263,485.21053   L 663.15789,483.57895   L 652.89474,483.05263  " style="fill:none;stroke:#212830;stroke-width:4px;stroke-linecap:round;stroke-linejoin:round;stroke-miterlimit:4;stroke-dasharray:none;stroke-opacity:1;"/>
  <path id="path23" d="  M 652.89474,509.78947   L 658.68421,510.05263   L 664.21053,510.73684   L 669.36842,511.84211   L 673.89474,513.31579   L 677.52632,514.94737   L 680.15789,516.63158   L 681.52632,517.89474   L 681.89474,518.36842  " style="fill:none;stroke:#212830;stroke-width:4px;stroke-linecap:round;stroke-linejoin:round;stroke-miterlimit:4;stroke-dasharray:none;stroke-opacity:1;"/>
  <path id="path25" d="  M 681.15789,517.52632   L 679.78947,518.73684   L 677.52632,520.10526   L 674.52632,521.52632   L 670.94737,522.78947   L 666.84211,523.84211   L 662.36842,524.63158   L 652.89474,525.26316  " style="fill:none;stroke:#212830;stroke-width:4px;stroke-linecap:round;stroke-linejoin:round;stroke-miterlimit:4;stroke-dasharray:none;stroke-opacity:1;"/>
  <path id="path27" d="  M 699.26316,340.78947   L 701.84211,337.05263   L 703.94737,333.05263   L 707.05263,324.57895   L 707.94737,320.15789   L 708.42105,315.68421   L 708.42105,311.21053   L 707.94737,306.78947  " style="fill:none;stroke:#212830;stroke-width:4px;stroke-linecap:round;stroke-linejoin:round;stroke-miterlimit:4;stroke-dasharray:none;stroke-opacity:1;"/>
  <path id="path29" d="  M 674.47368,298   L 677.10526,300.73684   L 679.05263,303.68421  " style="fill:none;stroke:#212830;stroke-width:4px;stroke-linecap:round;stroke-linejoin:round;stroke-miterlimit:4;stroke-dasharray:none;stroke-opacity:1;"/>
  <path id="path31" d="  M 682.78947,340   L 686.78947,337.52632   L 690.47368,334.73684   L 697,328.36842   L 702.21053,321   L 704.26316,317   L 705.89474,312.84211  " style="fill:none;stroke:#212830;stroke-width:4px;stroke-linecap:round;stroke-linejoin:round;stroke-miterlimit:4;stroke-dasharray:none;stroke-opacity:1;"/>
  <path id="path33" d="  M 708.36842,300.26316   L 708.42105,295.15789   L 707.78947,290.05263   L 706.57895,285   L 704.84211,280.15789   L 702.57895,275.47368   L 699.78947,271.05263   L 696.52632,266.94737   L 692.84211,263.15789   L 688.73684,259.68421   L 684.31579,256.68421   L 679.52632,254.05263   L 674.52632,251.89474   L 669.31579,250.15789   L 663.94737,248.94737   L 658.42105,248.21053   L 652.89474,247.94737  " style="fill:none;stroke:#212830;stroke-width:4px;stroke-linecap:round;stroke-linejoin:round;stroke-miterlimit:4;stroke-dasharray:none;stroke-opacity:1;"/>
  <path id="path35" d="  M 652.89474,571.57895   L 658.42105,571.36842   L 663.94737,570.57895   L 669.31579,569.36842   L 674.52632,567.68421   L 679.52632,565.52632   L 684.26316,562.89474   L 688.73684,559.84211   L 692.84211,556.42105   L 696.52632,552.63158   L 699.78947,548.52632   L 702.57895,544.10526   L 704.84211,539.42105   L 706.57895,534.57895   L 707.78947,529.52632   L 708.42105,524.42105   L 708.36842,519.31579  " style="fill:none;stroke:#212830;stroke-width:4px;stroke-linecap:round;stroke-linejoin:round;stroke-miterlimit:4;stroke-dasharray:none;stroke-opacity:1;"/>
  <path id="path37" d="  M 705.94737,506.78947   L 704.31579,502.63158   L 702.26316,498.63158   L 697,491.26316   L 690.47368,484.84211   L 686.78947,482   L 682.84211,479.57895  " style="fill:none;stroke:#212830;stroke-width:4px;stroke-linecap:round;stroke-linejoin:round;stroke-miterlimit:4;stroke-dasharray:none;stroke-opacity:1;"/>
  <path id="path39" d="  M 707.05263,476.26316   L 708,471.68421   L 708.42105,467.05263   L 708.36842,462.42105   L 707.84211,457.78947   L 706.84211,453.21053   L 705.36842,448.78947   L 703.47368,444.47368   L 701.10526,440.42105  " style="fill:none;stroke:#212830;stroke-width:4px;stroke-linecap:round;stroke-linejoin:round;stroke-miterlimit:4;stroke-dasharray:none;stroke-opacity:1;"/>
  <path id="path41" d="  M 707.42105,496.84211   L 708.31579,491   L 708.42105,485.10526   L 707.73684,479.21053   L 706.26316,473.47368  " style="fill:none;stroke:#212830;stroke-width:4px;stroke-linecap:round;stroke-linejoin:round;stroke-miterlimit:4;stroke-dasharray:none;stroke-opacity:1;"/>
  <path id="path43" d="  M 693,452.84211   L 689.26316,449.57895   L 685.15789,446.68421   L 680.73684,444.10526   L 676.10526,442  " style="fill:none;stroke:#212830;stroke-width:4px;stroke-linecap:round;stroke-linejoin:round;stroke-miterlimit:4;stroke-dasharray:none;stroke-opacity:1;"/>
  <path id="path45" d="  M 681.15789,415.31579   L 681.36842,413.94737   L 681.52632,412.57895   L 681.63158,411.15789   L 681.68421,409.78947   L 681.63158,408.42105   L 681.52632,407   L 681.36842,405.63158   L 681.15789,404.26316  " style="fill:none;stroke:#212830;stroke-width:4px;stroke-linecap:round;stroke-linejoin:round;stroke-miterlimit:4;stroke-dasharray:none;stroke-opacity:1;"/>
  <path id="path47" d="  M 706.94737,422.52632   L 707.36842,420.42105   L 707.73684,418.31579   L 708.05263,416.21053   L 708.26316,414.05263   L 708.36842,411.94737   L 708.42105,409.78947   L 708.36842,407.63158   L 708.26316,405.52632   L 708.05263,403.36842   L 707.73684,401.26316   L 707.36842,399.15789   L 706.94737,397.05263  " style="fill:none;stroke:#212830;stroke-width:4px;stroke-linecap:round;stroke-linejoin:round;stroke-miterlimit:4;stroke-dasharray:none;stroke-opacity:1;"/>
  <path id="path49" d="  M 695.10526,479.57895   L 696.31579,479.52632   L 697.52632,479.36842   L 698.73684,479.05263   L 699.89474,478.68421   L 701.05263,478.15789   L 702.10526,477.57895   L 703.10526,476.89474   L 704.05263,476.10526   L 704.94737,475.21053   L 705.73684,474.26316   L 706.42105,473.26316   L 707,472.15789   L 707.52632,471.05263   L 707.89474,469.89474   L 708.21053,468.68421   L 708.36842,467.42105   L 708.42105,466.21053   L 708.36842,465   L 708.21053,463.73684   L 707.89474,462.52632   L 707.52632,461.36842   L 707,460.26316   L 706.42105,459.15789   L 705.73684,458.15789   L 704.94737,457.21053   L 704.05263,456.31579   L 703.10526,455.52632   L 702.10526,454.84211   L 701.05263,454.26316   L 699.89474,453.73684   L 698.73684,453.36842   L 697.52632,453.05263   L 696.31579,452.89474   L 695.10526,452.84211  " style="fill:none;stroke:#212830;stroke-width:4px;stroke-linecap:round;stroke-linejoin:round;stroke-miterlimit:4;stroke-dasharray:none;stroke-opacity:1;"/>
  <path id="path51" d="  M 695.10526,442   L 696.31579,441.94737   L 697.52632,441.78947   L 698.73684,441.47368   L 699.89474,441.10526   L 701.05263,440.57895   L 702.10526,440   L 703.10526,439.31579   L 704.05263,438.52632   L 704.94737,437.63158   L 705.73684,436.68421   L 706.42105,435.68421   L 707,434.57895   L 707.52632,433.47368   L 707.89474,432.31579   L 708.21053,431.10526   L 708.36842,429.84211   L 708.42105,428.63158   L 708.36842,427.42105   L 708.21053,426.15789   L 707.89474,424.94737   L 707.52632,423.78947   L 707,422.68421   L 706.42105,421.57895   L 705.73684,420.57895   L 704.94737,419.63158   L 704.05263,418.73684   L 703.10526,417.94737   L 702.10526,417.26316   L 701.05263,416.68421   L 699.89474,416.15789   L 698.73684,415.78947   L 697.52632,415.47368   L 696.31579,415.31579   L 695.10526,415.26316  " style="fill:none;stroke:#212830;stroke-width:4px;stroke-linecap:round;stroke-linejoin:round;stroke-miterlimit:4;stroke-dasharray:none;stroke-opacity:1;"/>
  <path id="path53" d="  M 695.10526,366.73684   L 696.31579,366.68421   L 697.52632,366.52632   L 698.73684,366.21053   L 699.89474,365.84211   L 701.05263,365.31579   L 702.10526,364.73684   L 703.10526,364.05263   L 704.05263,363.26316   L 704.94737,362.36842   L 705.73684,361.42105   L 706.42105,360.42105   L 707,359.31579   L 707.52632,358.21053   L 707.89474,357.05263   L 708.21053,355.84211   L 708.36842,354.57895   L 708.42105,353.36842   L 708.36842,352.15789   L 708.21053,350.89474   L 707.89474,349.68421   L 707.52632,348.52632   L 707,347.42105   L 706.42105,346.31579   L 705.73684,345.31579   L 704.94737,344.36842   L 704.05263,343.47368   L 703.10526,342.68421   L 702.10526,342   L 701.05263,341.42105   L 699.89474,340.89474   L 698.73684,340.52632   L 697.52632,340.21053   L 696.31579,340.05263   L 695.10526,340  " style="fill:none;stroke:#212830;stroke-width:4px;stroke-linecap:round;stroke-linejoin:round;stroke-miterlimit:4;stroke-dasharray:none;stroke-opacity:1;"/>
  <path id="path55" d="  M 695.10526,404.26316   L 696.31579,404.21053   L 697.52632,404.05263   L 698.73684,403.73684   L 699.89474,403.36842   L 701.05263,402.84211   L 702.10526,402.26316   L 703.10526,401.57895   L 704.05263,400.78947   L 704.94737,399.89474   L 705.73684,398.94737   L 706.42105,397.94737   L 707,396.84211   L 707.52632,395.73684   L 707.89474,394.57895   L 708.21053,393.36842   L 708.36842,392.10526   L 708.42105,390.89474   L 708.36842,389.68421   L 708.21053,388.42105   L 707.89474,387.21053   L 707.52632,386.05263   L 707,384.94737   L 706.42105,383.84211   L 705.73684,382.84211   L 704.94737,381.89474   L 704.05263,381   L 703.10526,380.21053   L 702.10526,379.52632   L 701.05263,378.94737   L 699.89474,378.42105   L 698.73684,378.05263   L 697.52632,377.73684   L 696.31579,377.57895   L 695.10526,377.52632  " style="fill:none;stroke:#212830;stroke-width:4px;stroke-linecap:round;stroke-linejoin:round;stroke-miterlimit:4;stroke-dasharray:none;stroke-opacity:1;"/>
  <path id="path57" d="  M 652.89474,366.73684   L 695.10526,366.73684  " style="fill:none;stroke:#212830;stroke-width:4px;stroke-linecap:round;stroke-linejoin:round;stroke-miterlimit:4;stroke-dasharray:none;stroke-opacity:1;"/>
  <path id="path59" d="  M 652.89474,340   L 695.10526,340  " style="fill:none;stroke:#212830;stroke-width:4px;stroke-linecap:round;stroke-linejoin:round;stroke-miterlimit:4;stroke-dasharray:none;stroke-opacity:1;"/>
  <path id="path61" d="  M 652.89474,377.52632   L 695.10526,377.52632  " style="fill:none;stroke:#212830;stroke-width:4px;stroke-linecap:round;stroke-linejoin:round;stroke-miterlimit:4;stroke-dasharray:none;stroke-opacity:1;"/>
  <path id="path63" d="  M 652.89474,404.26316   L 695.10526,404.26316  " style="fill:none;stroke:#212830;stroke-width:4px;stroke-linecap:round;stroke-linejoin:round;stroke-miterlimit:4;stroke-dasharray:none;stroke-opacity:1;"/>
  <path id="path65" d="  M 652.89474,415.26316   L 695.10526,415.26316  " style="fill:none;stroke:#212830;stroke-width:4px;stroke-linecap:round;stroke-linejoin:round;stroke-miterlimit:4;stroke-dasharray:none;stroke-opacity:1;"/>
  <path id="path67" d="  M 652.89474,442   L 695.10526,442  " style="fill:none;stroke:#212830;stroke-width:4px;stroke-linecap:round;stroke-linejoin:round;stroke-miterlimit:4;stroke-dasharray:none;stroke-opacity:1;"/>
  <path id="path69" d="  M 652.89474,452.84211   L 695.10526,452.84211  " style="fill:none;stroke:#212830;stroke-width:4px;stroke-linecap:round;stroke-linejoin:round;stroke-miterlimit:4;stroke-dasharray:none;stroke-opacity:1;"/>
  <path id="path71" d="  M 652.89474,479.57895   L 695.10526,479.57895  " style="fill:none;stroke:#212830;stroke-width:4px;stroke-linecap:round;stroke-linejoin:round;stroke-miterlimit:4;stroke-dasharray:none;stroke-opacity:1;"/>
</svg>