<svg xmlns:dc="http://purl.org/dc/elements/1.1/" xmlns:cc="http://creativecommons.org/ns#" xmlns:rdf="http://www.w3.org/1999/02/22-rdf-syntax-ns#" xmlns:svg="http://www.w3.org/2000/svg" xmlns="http://www.w3.org/2000/svg" id="svg45" version="1.0" 
preserveAspectRatio="none" viewBox="1109.74 118.95 92.95 442.26">
  <metadata id="metadata49">
    <rdf:RDF>
      <cc:Work rdf:about="">
        <dc:format>image/svg+xml</dc:format>
        <dc:type rdf:resource="http://purl.org/dc/dcmitype/StillImage"/>
      </cc:Work>
    </rdf:RDF>
  </metadata>
  <defs id="defs3">
    <pattern y="0" x="0" height="6" width="6" patternUnits="userSpaceOnUse" id="WMFhbasepattern"/>
  </defs>
  <path id="path5" d="  M 1111.7368,559.21053   L 1128.6842,559.21053   L 1144.5789,559.21053   L 1158.5789,559.15789   L 1164.5789,559.15789   L 1169.7895,559.15789   L 1174.1053,559.10526   L 1177.5789,559.10526   L 1180.1053,559.10526   L 1181.7368,559.05263   L 1182.6842,559   L 1183.8947,558.89474   L 1185.8421,558.57895   L 1189.8421,557.21053   L 1193.4737,554.94737   L 1196.5263,551.89474   L 1198.7895,548.31579   L 1200.2105,544.26316   L 1200.6842,540.05263   L 1200.2105,535.78947   L 1198.7895,531.78947   L 1196.5263,528.15789   L 1193.4737,525.15789   L 1189.8421,522.89474   L 1185.8421,521.52632   L 1183.8947,521.15789   L 1182.6842,521.05263   L 1181.7368,521.05263   L 1180.1053,521   L 1177.5789,521   L 1174.1053,520.94737   L 1169.7895,520.94737   L 1164.5789,520.94737   L 1158.5789,520.89474   L 1144.5789,520.89474   L 1128.6842,520.84211   L 1111.7368,520.84211  " style="fill:none;stroke:#212830;stroke-width:4px;stroke-linecap:round;stroke-linejoin:round;stroke-miterlimit:4;stroke-dasharray:none;stroke-opacity:1;"/>
  <path id="path7" d="  M 1180.8421,521.05263   L 1180.2632,521.10526   L 1178.8947,521.10526   L 1174.3158,521.15789   L 1167.5263,521.15789   L 1158.8421,521.21053   L 1148.5789,521.21053   L 1137,521.21053   L 1111.7368,521.26316  " style="fill:none;stroke:#212830;stroke-width:4px;stroke-linecap:round;stroke-linejoin:round;stroke-miterlimit:4;stroke-dasharray:none;stroke-opacity:1;"/>
  <path id="path9" d="  M 1111.7368,324.10526   L 1119.4737,324.68421   L 1127.0526,326.47368   L 1134.2632,329.31579   L 1140.9474,333.31579   L 1146.9474,338.21053   L 1152.1053,344   L 1156.3684,350.47368   L 1159.5789,357.57895  " style="fill:none;stroke:#212830;stroke-width:4px;stroke-linecap:round;stroke-linejoin:round;stroke-miterlimit:4;stroke-dasharray:none;stroke-opacity:1;"/>
  <path id="path11" d="  M 1111.7368,464.05263   L 1121.5789,463.52632   L 1131.2632,461.89474   L 1140.6842,459.21053   L 1149.7895,455.52632   L 1158.4211,450.84211   L 1166.4737,445.21053   L 1173.8947,438.73684   L 1180.5263,431.47368   L 1186.3158,423.57895   L 1191.2105,415.05263   L 1195.1053,406   L 1198,396.63158   L 1199.8947,387   L 1200.6316,377.15789   L 1200.3158,367.36842   L 1198.8947,357.63158  " style="fill:none;stroke:#212830;stroke-width:4px;stroke-linecap:round;stroke-linejoin:round;stroke-miterlimit:4;stroke-dasharray:none;stroke-opacity:1;"/>
  <path id="path13" d="  M 1193.4737,305.05263   L 1197.5789,293.36842   L 1200,281.21053   L 1200.6842,268.84211   L 1199.5789,256.52632  " style="fill:none;stroke:#212830;stroke-width:4px;stroke-linecap:round;stroke-linejoin:round;stroke-miterlimit:4;stroke-dasharray:none;stroke-opacity:1;"/>
  <path id="path15" d="  M 1193.6842,235.63158   L 1188.0526,224.42105   L 1180.7895,214.15789  " style="fill:none;stroke:#212830;stroke-width:4px;stroke-linecap:round;stroke-linejoin:round;stroke-miterlimit:4;stroke-dasharray:none;stroke-opacity:1;"/>
  <path id="path17" d="  M 1111.7368,219.10526   L 1120.6316,219.89474   L 1129.2105,222.21053   L 1137.2632,226   L 1144.5263,231.15789  " style="fill:none;stroke:#212830;stroke-width:4px;stroke-linecap:round;stroke-linejoin:round;stroke-miterlimit:4;stroke-dasharray:none;stroke-opacity:1;"/>
  <path id="path19" d="  M 1111.7368,289.10526   L 1121.6842,290.10526   L 1131.2632,293   L 1140.0526,297.68421   L 1147.7895,304.05263   L 1154.1053,311.78947   L 1158.8421,320.57895   L 1161.7368,330.15789   L 1162.6842,340.10526   L 1161.7368,350.05263   L 1158.8421,359.63158   L 1154.1053,368.42105   L 1147.7895,376.15789   L 1140.0526,382.47368   L 1131.2632,387.21053   L 1121.6842,390.10526   L 1111.7368,391.10526  " style="fill:none;stroke:#212830;stroke-width:4px;stroke-linecap:round;stroke-linejoin:round;stroke-miterlimit:4;stroke-dasharray:none;stroke-opacity:1;"/>
  <path id="path21" d="  M 1111.7368,429.05263   L 1120.4737,428.63158   L 1129.1053,427.36842   L 1137.5789,425.26316   L 1145.7895,422.31579   L 1153.6842,418.57895   L 1161.1579,414.05263   L 1168.1579,408.89474   L 1174.6316,403   L 1180.4737,396.52632   L 1185.6842,389.52632   L 1190.1579,382.05263   L 1193.8947,374.15789   L 1196.8421,365.94737   L 1198.9474,357.47368   L 1200.2632,348.84211   L 1200.6842,340.10526   L 1200.2632,331.36842   L 1198.9474,322.73684   L 1196.8421,314.26316   L 1193.8947,306.05263   L 1190.1579,298.15789   L 1185.6842,290.68421   L 1180.4737,283.63158   L 1174.6316,277.15789   L 1168.1579,271.31579   L 1161.1579,266.10526   L 1153.6842,261.63158   L 1145.7895,257.89474   L 1137.5789,254.94737   L 1129.1053,252.84211   L 1120.4737,251.52632   L 1111.7368,251.10526  " style="fill:none;stroke:#212830;stroke-width:4px;stroke-linecap:round;stroke-linejoin:round;stroke-miterlimit:4;stroke-dasharray:none;stroke-opacity:1;"/>
  <path id="path23" d="  M 1193.6842,444.57895   L 1197.5789,440.31579   L 1199.9474,435.05263   L 1200.6842,429.31579   L 1199.5789,423.63158  " style="fill:none;stroke:#212830;stroke-width:4px;stroke-linecap:round;stroke-linejoin:round;stroke-miterlimit:4;stroke-dasharray:none;stroke-opacity:1;"/>
  <path id="path25" d="  M 1198.8947,322.63158   L 1200.2105,313.94737   L 1200.6842,305.15789   L 1200.2632,296.36842   L 1198.8947,287.68421  " style="fill:none;stroke:#212830;stroke-width:4px;stroke-linecap:round;stroke-linejoin:round;stroke-miterlimit:4;stroke-dasharray:none;stroke-opacity:1;"/>
  <path id="path27" d="  M 1111.7368,504.15789   L 1133.3158,504.15789   L 1143.4737,504.10526   L 1152.8421,504.10526   L 1161.1579,504.10526   L 1168.3158,504.05263   L 1174.1053,504.05263   L 1178.3684,504   L 1181.1053,504   L 1182.0526,503.94737   L 1182.7368,503.94737   L 1184.5789,503.73684   L 1189.7368,502.15789   L 1194.3158,499.15789   L 1197.8421,495   L 1200,489.94737   L 1200.6842,484.52632   L 1199.7368,479.15789   L 1197.3684,474.21053   L 1193.6316,470.21053   L 1188.9474,467.42105   L 1183.8421,466.10526   L 1182.4737,466   L 1181.8947,465.94737   L 1180.8947,465.94737  " style="fill:none;stroke:#212830;stroke-width:4px;stroke-linecap:round;stroke-linejoin:round;stroke-miterlimit:4;stroke-dasharray:none;stroke-opacity:1;"/>
  <path id="path29" d="  M 1111.7368,359.10526   L 1122.0526,360.15789   L 1131.8947,363.26316   L 1140.9474,368.31579   L 1148.7368,375.05263  " style="fill:none;stroke:#212830;stroke-width:4px;stroke-linecap:round;stroke-linejoin:round;stroke-miterlimit:4;stroke-dasharray:none;stroke-opacity:1;"/>
  <path id="path31" d="  M 1111.7368,499.05263   L 1121.5789,498.52632   L 1131.2632,496.89474   L 1140.6842,494.21053   L 1149.7895,490.52632   L 1158.4211,485.78947   L 1166.4737,480.21053   L 1173.8947,473.73684   L 1180.5263,466.47368   L 1186.3158,458.57895   L 1191.2105,450.05263   L 1195.1053,441   L 1198,431.63158   L 1199.8947,421.94737   L 1200.6316,412.15789   L 1200.3158,402.36842   L 1198.8947,392.63158  " style="fill:none;stroke:#212830;stroke-width:4px;stroke-linecap:round;stroke-linejoin:round;stroke-miterlimit:4;stroke-dasharray:none;stroke-opacity:1;"/>
  <path id="path33" d="  M 1180.8421,231.31579   L 1180.2632,231.36842   L 1178.8947,231.36842   L 1174.3158,231.36842   L 1167.5263,231.42105   L 1158.8421,231.47368   L 1148.5789,231.47368   L 1137,231.47368   L 1111.7368,231.47368  " style="fill:none;stroke:#212830;stroke-width:4px;stroke-linecap:round;stroke-linejoin:round;stroke-miterlimit:4;stroke-dasharray:none;stroke-opacity:1;"/>
  <path id="path35" d="  M 1165.7368,269.42105   L 1173.1579,269.36842   L 1178.4737,269.36842   L 1181.5789,269.31579   L 1183.2105,269.26316   L 1186.0526,268.78947   L 1189.1579,267.73684   L 1194.6842,264.15789   L 1198.6316,258.89474   L 1200.5263,252.57895   L 1200.1579,246   L 1197.5789,239.94737   L 1193.1053,235.10526   L 1187.2105,232.15789   L 1184.1053,231.47368   L 1182.4211,231.31579   L 1179.7368,231.26316   L 1175.2632,231.21053   L 1168.5263,231.21053   L 1159.7895,231.15789   L 1149.3684,231.15789   L 1137.5789,231.15789   L 1111.7368,231.10526  " style="fill:none;stroke:#212830;stroke-width:4px;stroke-linecap:round;stroke-linejoin:round;stroke-miterlimit:4;stroke-dasharray:none;stroke-opacity:1;"/>
  <path id="path37" d="  M 1180.8421,176.26316   L 1180.2632,176.26316   L 1178.8947,176.26316   L 1174.3158,176.31579   L 1167.5263,176.36842   L 1158.8421,176.36842   L 1148.5789,176.36842   L 1137,176.42105   L 1111.7368,176.42105  " style="fill:none;stroke:#212830;stroke-width:4px;stroke-linecap:round;stroke-linejoin:round;stroke-miterlimit:4;stroke-dasharray:none;stroke-opacity:1;"/>
  <path id="path39" d="  M 1111.7368,214.42105   L 1128.6842,214.42105   L 1144.5789,214.36842   L 1158.5789,214.36842   L 1164.5789,214.36842   L 1169.7895,214.31579   L 1174.1053,214.31579   L 1177.5789,214.26316   L 1180.1053,214.26316   L 1181.7368,214.21053   L 1182.6842,214.21053   L 1183.8947,214.10526   L 1185.8421,213.73684   L 1189.8421,212.36842   L 1193.4737,210.10526   L 1196.5263,207.10526   L 1198.7895,203.47368   L 1200.2105,199.47368   L 1200.6842,195.21053   L 1200.2105,191   L 1198.7895,186.94737   L 1196.5263,183.36842   L 1193.4737,180.31579   L 1189.8421,178.10526   L 1185.8421,176.68421   L 1183.8947,176.36842   L 1182.6842,176.26316   L 1181.7368,176.21053   L 1180.1053,176.21053   L 1177.5789,176.15789   L 1174.1053,176.15789   L 1169.7895,176.10526   L 1164.5789,176.10526   L 1158.5789,176.10526   L 1144.5789,176.05263   L 1128.6842,176.05263   L 1111.7368,176.05263  " style="fill:none;stroke:#212830;stroke-width:4px;stroke-linecap:round;stroke-linejoin:round;stroke-miterlimit:4;stroke-dasharray:none;stroke-opacity:1;"/>
  <path id="path41" d="  M 1180.8421,121.15789   L 1180.2632,121.21053   L 1178.8947,121.21053   L 1174.3158,121.21053   L 1167.5263,121.26316   L 1158.8421,121.31579   L 1148.5789,121.31579   L 1137,121.31579   L 1111.7368,121.31579  " style="fill:none;stroke:#212830;stroke-width:4px;stroke-linecap:round;stroke-linejoin:round;stroke-miterlimit:4;stroke-dasharray:none;stroke-opacity:1;"/>
  <path id="path43" d="  M 1111.7368,159.31579   L 1128.6842,159.31579   L 1144.5789,159.31579   L 1158.5789,159.26316   L 1164.5789,159.26316   L 1169.7895,159.26316   L 1174.1053,159.21053   L 1177.5789,159.21053   L 1180.1053,159.15789   L 1181.7368,159.15789   L 1182.6842,159.10526   L 1183.8947,159   L 1185.8421,158.68421   L 1189.8421,157.31579   L 1193.4737,155.05263   L 1196.5263,152   L 1198.7895,148.42105   L 1200.2105,144.36842   L 1200.6842,140.15789   L 1200.2105,135.89474   L 1198.7895,131.89474   L 1196.5263,128.26316   L 1193.4737,125.26316   L 1189.8421,123   L 1185.8421,121.63158   L 1183.8947,121.26316   L 1182.6842,121.15789   L 1181.7368,121.15789   L 1180.1053,121.10526   L 1177.5789,121.10526   L 1174.1053,121.05263   L 1169.7895,121.05263   L 1164.5789,121.05263   L 1158.5789,121   L 1144.5789,121   L 1128.6842,120.94737   L 1111.7368,120.94737  " style="fill:none;stroke:#212830;stroke-width:4px;stroke-linecap:round;stroke-linejoin:round;stroke-miterlimit:4;stroke-dasharray:none;stroke-opacity:1;"/>
</svg>