<svg xmlns:dc="http://purl.org/dc/elements/1.1/" xmlns:cc="http://creativecommons.org/ns#" xmlns:rdf="http://www.w3.org/1999/02/22-rdf-syntax-ns#" xmlns:svg="http://www.w3.org/2000/svg" xmlns="http://www.w3.org/2000/svg" id="svg75" version="1.0" 
preserveAspectRatio="none" viewBox="1304.37 208.63 50.79 355.47">
  <metadata id="metadata79">
    <rdf:RDF>
      <cc:Work rdf:about="">
        <dc:format>image/svg+xml</dc:format>
        <dc:type rdf:resource="http://purl.org/dc/dcmitype/StillImage"/>
      </cc:Work>
    </rdf:RDF>
  </metadata>
  <defs id="defs3">
    <pattern y="0" x="0" height="6" width="6" patternUnits="userSpaceOnUse" id="WMFhbasepattern"/>
  </defs>
  <path id="path5" d="  M 1306.3684,251.05263   L 1311.6316,251.36842   L 1316.6316,252.42105   L 1321.1053,254.10526   L 1324.8421,256.21053   L 1327.6316,258.57895   L 1329.4737,260.94737   L 1330.3684,263.05263   L 1330.6316,264.89474   L 1330.3684,266.78947   L 1329.4737,268.89474   L 1327.6316,271.21053   L 1324.8421,273.57895   L 1321.1053,275.68421   L 1316.6316,277.36842   L 1311.6316,278.42105   L 1306.3684,278.78947  " style="fill:none;stroke:#212830;stroke-width:4px;stroke-linecap:round;stroke-linejoin:round;stroke-miterlimit:4;stroke-dasharray:none;stroke-opacity:1;"/>
  <path id="path7" d="  M 1306.3684,301.26316   L 1315.2105,300.63158   L 1323.7895,298.73684   L 1331.7368,295.57895   L 1338.7895,291.26316   L 1341.9474,288.68421   L 1344.7368,285.89474   L 1347.2105,282.78947   L 1349.2632,279.52632   L 1350.9474,276.05263   L 1352.1579,272.42105   L 1352.8947,268.68421   L 1353.1053,264.89474   L 1352.8947,261.10526   L 1352.1579,257.36842   L 1350.9474,253.73684   L 1349.2632,250.26316   L 1347.2105,247   L 1344.7368,243.94737   L 1341.9474,241.10526   L 1338.7895,238.52632   L 1331.7368,234.21053   L 1323.7895,231.10526   L 1315.2105,229.15789   L 1306.3684,228.52632  " style="fill:none;stroke:#212830;stroke-width:4px;stroke-linecap:round;stroke-linejoin:round;stroke-miterlimit:4;stroke-dasharray:none;stroke-opacity:1;"/>
  <path id="path9" d="  M 1306.3684,322.89474   L 1311.6316,323.26316   L 1316.6316,324.31579   L 1321.1053,326   L 1324.8421,328.10526   L 1327.6316,330.47368   L 1329.4737,332.78947   L 1330.3684,334.89474   L 1330.6316,336.78947   L 1330.3684,338.63158   L 1329.4737,340.73684   L 1327.6316,343.10526   L 1324.8421,345.47368   L 1321.1053,347.57895   L 1316.6316,349.26316   L 1311.6316,350.31579   L 1306.3684,350.63158  " style="fill:none;stroke:#212830;stroke-width:4px;stroke-linecap:round;stroke-linejoin:round;stroke-miterlimit:4;stroke-dasharray:none;stroke-opacity:1;"/>
  <path id="path11" d="  M 1306.3684,373.15789   L 1314.7895,372.57895   L 1322.9474,370.84211   L 1330.5789,368   L 1337.4737,364.05263   L 1343.4211,359.15789   L 1345.8947,356.36842   L 1348.1053,353.36842   L 1349.8947,350.15789   L 1351.3684,346.84211   L 1352.3684,343.31579   L 1353,339.73684   L 1353.1053,336.15789   L 1352.8421,332.52632   L 1352.0526,329   L 1350.8947,325.57895   L 1349.3158,322.26316   L 1347.3684,319.10526   L 1342.4737,313.47368   L 1336.3684,308.73684   L 1329.3158,305   L 1321.5789,302.31579   L 1313.3158,300.84211  " style="fill:none;stroke:#212830;stroke-width:4px;stroke-linecap:round;stroke-linejoin:round;stroke-miterlimit:4;stroke-dasharray:none;stroke-opacity:1;"/>
  <path id="path13" d="  M 1306.3684,455.52632   L 1312.8947,455.21053   L 1319.2632,454.15789   L 1325.4211,452.42105   L 1331.2105,450.05263   L 1336.5789,447.05263   L 1341.3158,443.47368   L 1345.4211,439.31579   L 1348.7895,434.63158   L 1351.2105,429.57895   L 1352.6842,424.15789   L 1353.1053,418.63158   L 1352.4737,413.05263   L 1350.8421,407.73684   L 1348.2105,402.73684   L 1344.6842,398.15789   L 1340.4211,394.10526  " style="fill:none;stroke:#212830;stroke-width:4px;stroke-linecap:round;stroke-linejoin:round;stroke-miterlimit:4;stroke-dasharray:none;stroke-opacity:1;"/>
  <path id="path15" d="  M 1309.3684,405.42105   L 1314.3684,406.10526   L 1318.9474,407.47368   L 1322.9474,409.26316   L 1326.1579,411.47368   L 1328.4737,413.78947   L 1329.8421,415.94737   L 1330.5263,417.89474   L 1330.6316,419.68421   L 1330.2105,421.52632   L 1329.1579,423.63158   L 1327.2105,425.89474   L 1324.3684,428.15789   L 1320.6842,430.15789   L 1316.2632,431.73684   L 1311.4211,432.68421   L 1306.3684,433.05263  " style="fill:none;stroke:#212830;stroke-width:4px;stroke-linecap:round;stroke-linejoin:round;stroke-miterlimit:4;stroke-dasharray:none;stroke-opacity:1;"/>
  <path id="path17" d="  M 1352.8421,365.15789   L 1353.1579,361.10526   L 1352.7895,357   L 1351.8947,353   L 1350.3684,349.15789  " style="fill:none;stroke:#212830;stroke-width:4px;stroke-linecap:round;stroke-linejoin:round;stroke-miterlimit:4;stroke-dasharray:none;stroke-opacity:1;"/>
  <path id="path19" d="  M 1324.7895,328.10526   L 1320.3684,326.78947   L 1315.7895,325.89474   L 1306.3684,325.15789  " style="fill:none;stroke:#212830;stroke-width:4px;stroke-linecap:round;stroke-linejoin:round;stroke-miterlimit:4;stroke-dasharray:none;stroke-opacity:1;"/>
  <path id="path21" d="  M 1324.8947,370.15789   L 1321.1579,372.31579   L 1316.6842,374   L 1311.6316,375.05263   L 1306.3684,375.42105  " style="fill:none;stroke:#212830;stroke-width:4px;stroke-linecap:round;stroke-linejoin:round;stroke-miterlimit:4;stroke-dasharray:none;stroke-opacity:1;"/>
  <path id="path23" d="  M 1328.4211,304.68421   L 1333.5263,302.31579   L 1338.1053,299.42105   L 1342.2632,296.05263   L 1345.8421,292.26316   L 1348.7895,288   L 1351.0526,283.47368   L 1352.5263,278.63158   L 1353.0526,273.63158  " style="fill:none;stroke:#212830;stroke-width:4px;stroke-linecap:round;stroke-linejoin:round;stroke-miterlimit:4;stroke-dasharray:none;stroke-opacity:1;"/>
  <path id="path25" d="  M 1306.3684,254.73684   L 1310.3158,254.94737   L 1314.1053,255.52632   L 1317.7368,256.47368   L 1321,257.78947  " style="fill:none;stroke:#212830;stroke-width:4px;stroke-linecap:round;stroke-linejoin:round;stroke-miterlimit:4;stroke-dasharray:none;stroke-opacity:1;"/>
  <path id="path27" d="  M 1322.7368,302.68421   L 1328.8421,300.63158   L 1334.4211,297.84211   L 1339.5263,294.42105   L 1343.9474,290.47368   L 1347.6316,285.89474   L 1350.4211,280.89474   L 1352.3158,275.52632   L 1353.0526,269.94737  " style="fill:none;stroke:#212830;stroke-width:4px;stroke-linecap:round;stroke-linejoin:round;stroke-miterlimit:4;stroke-dasharray:none;stroke-opacity:1;"/>
  <path id="path29" d="  M 1324.4211,255.94737   L 1320.7368,258   L 1316.3158,259.52632   L 1311.4737,260.52632   L 1306.3684,260.89474  " style="fill:none;stroke:#212830;stroke-width:4px;stroke-linecap:round;stroke-linejoin:round;stroke-miterlimit:4;stroke-dasharray:none;stroke-opacity:1;"/>
  <path id="path31" d="  M 1351.6842,256   L 1352.7368,251.73684   L 1353.1053,247.36842   L 1352.8421,243   L 1351.9474,238.73684   L 1350.4211,234.63158   L 1348.2632,230.68421   L 1345.6316,227.05263   L 1342.5263,223.73684   L 1338.9474,220.78947   L 1335.0526,218.10526   L 1330.7895,215.89474   L 1326.2632,214   L 1321.4737,212.52632   L 1316.5263,211.47368   L 1311.4737,210.84211   L 1306.3684,210.63158  " style="fill:none;stroke:#212830;stroke-width:4px;stroke-linecap:round;stroke-linejoin:round;stroke-miterlimit:4;stroke-dasharray:none;stroke-opacity:1;"/>
  <path id="path33" d="  M 1330.5263,368   L 1330.5789,369.94737   L 1330,372.10526   L 1328.4737,374.52632   L 1325.8421,377.10526   L 1322.0526,379.47368   L 1317.3684,381.36842   L 1312.0526,382.57895   L 1306.3684,383  " style="fill:none;stroke:#212830;stroke-width:4px;stroke-linecap:round;stroke-linejoin:round;stroke-miterlimit:4;stroke-dasharray:none;stroke-opacity:1;"/>
  <path id="path35" d="  M 1306.3684,405.52632   L 1312.0526,405.26316   L 1317.6842,404.47368   L 1323.1053,403.15789   L 1328.3158,401.31579   L 1333.2105,399.05263   L 1337.7368,396.26316   L 1341.7895,393.05263   L 1345.3158,389.42105   L 1348.3158,385.36842   L 1350.6316,381.05263   L 1352.2105,376.42105   L 1353,371.57895   L 1353.0526,366.73684   L 1352.2105,361.94737   L 1350.6316,357.31579   L 1348.3158,352.94737  " style="fill:none;stroke:#212830;stroke-width:4px;stroke-linecap:round;stroke-linejoin:round;stroke-miterlimit:4;stroke-dasharray:none;stroke-opacity:1;"/>
  <path id="path37" d="  M 1330.4737,337.94737   L 1324.8947,335.63158   L 1318.8947,334.05263   L 1312.6842,333.05263   L 1306.3684,332.73684  " style="fill:none;stroke:#212830;stroke-width:4px;stroke-linecap:round;stroke-linejoin:round;stroke-miterlimit:4;stroke-dasharray:none;stroke-opacity:1;"/>
  <path id="path39" d="  M 1332.6842,306.63158   L 1336.9474,304.21053   L 1340.7895,301.31579   L 1344.2105,298.05263   L 1347.1579,294.47368   L 1349.5789,290.57895   L 1351.4211,286.42105   L 1352.6316,282.05263   L 1353.0526,277.63158  " style="fill:none;stroke:#212830;stroke-width:4px;stroke-linecap:round;stroke-linejoin:round;stroke-miterlimit:4;stroke-dasharray:none;stroke-opacity:1;"/>
  <path id="path41" d="  M 1351.6842,516.78947   L 1352.6842,513   L 1353.0526,509.10526  " style="fill:none;stroke:#212830;stroke-width:4px;stroke-linecap:round;stroke-linejoin:round;stroke-miterlimit:4;stroke-dasharray:none;stroke-opacity:1;"/>
  <path id="path43" d="  M 1306.3684,562.10526   L 1311.6316,561.84211   L 1316.8421,561.15789   L 1321.8947,560.05263   L 1326.7368,558.52632   L 1331.3684,556.52632   L 1335.7368,554.15789   L 1339.6842,551.36842   L 1343.2632,548.21053   L 1346.3684,544.73684   L 1348.9474,540.94737   L 1350.9474,536.84211   L 1352.3158,532.52632   L 1353.0526,528.10526   L 1353.0526,523.57895   L 1352.4211,519.15789   L 1351,514.84211  " style="fill:none;stroke:#212830;stroke-width:4px;stroke-linecap:round;stroke-linejoin:round;stroke-miterlimit:4;stroke-dasharray:none;stroke-opacity:1;"/>
  <path id="path45" d="  M 1348.0526,452.57895   L 1349.7368,449.73684   L 1351.0526,446.73684   L 1352.7895,440.42105   L 1353.0526,433.94737   L 1352.6842,430.73684   L 1351.8947,427.57895  " style="fill:none;stroke:#212830;stroke-width:4px;stroke-linecap:round;stroke-linejoin:round;stroke-miterlimit:4;stroke-dasharray:none;stroke-opacity:1;"/>
  <path id="path47" d="  M 1306.3684,540.47368   L 1315.0526,539.84211   L 1323.4737,538   L 1331.3158,534.94737   L 1338.3158,530.78947   L 1341.4211,528.31579   L 1344.2632,525.57895   L 1346.7368,522.57895   L 1348.8421,519.42105   L 1350.5789,516.05263   L 1351.8947,512.52632   L 1352.7368,508.89474   L 1353.0526,505.15789  " style="fill:none;stroke:#212830;stroke-width:4px;stroke-linecap:round;stroke-linejoin:round;stroke-miterlimit:4;stroke-dasharray:none;stroke-opacity:1;"/>
  <path id="path49" d="  M 1352.8421,415.10526   L 1353.1579,410.94737   L 1352.7895,406.78947   L 1351.8947,402.68421   L 1350.3684,398.78947  " style="fill:none;stroke:#212830;stroke-width:4px;stroke-linecap:round;stroke-linejoin:round;stroke-miterlimit:4;stroke-dasharray:none;stroke-opacity:1;"/>
  <path id="path51" d="  M 1324.8421,419.84211   L 1321.1053,421.94737   L 1316.6316,423.63158   L 1311.6316,424.68421   L 1306.3684,425.05263  " style="fill:none;stroke:#212830;stroke-width:4px;stroke-linecap:round;stroke-linejoin:round;stroke-miterlimit:4;stroke-dasharray:none;stroke-opacity:1;"/>
  <path id="path53" d="  M 1352.8421,407.21053   L 1353,401.05263   L 1352.6316,398   L 1351.7895,395  " style="fill:none;stroke:#212830;stroke-width:4px;stroke-linecap:round;stroke-linejoin:round;stroke-miterlimit:4;stroke-dasharray:none;stroke-opacity:1;"/>
  <path id="path55" d="  M 1306.3684,422.73684   L 1312.6316,422.42105   L 1318.8421,421.42105   L 1324.7895,419.84211   L 1330.4211,417.57895  " style="fill:none;stroke:#212830;stroke-width:4px;stroke-linecap:round;stroke-linejoin:round;stroke-miterlimit:4;stroke-dasharray:none;stroke-opacity:1;"/>
  <path id="path57" d="  M 1348.1579,402.78947   L 1351.1579,396.94737   L 1352.7895,390.63158   L 1353.0526,384.15789   L 1352.6316,380.94737   L 1351.7895,377.78947  " style="fill:none;stroke:#212830;stroke-width:4px;stroke-linecap:round;stroke-linejoin:round;stroke-miterlimit:4;stroke-dasharray:none;stroke-opacity:1;"/>
  <path id="path59" d="  M 1348.0526,320.21053   L 1350.0526,316.73684   L 1351.5263,313.05263   L 1352.5789,309.21053   L 1353.0526,305.31579   L 1353.0526,301.36842   L 1352.4737,297.47368   L 1351.4211,293.68421   L 1349.7895,290.05263  " style="fill:none;stroke:#212830;stroke-width:4px;stroke-linecap:round;stroke-linejoin:round;stroke-miterlimit:4;stroke-dasharray:none;stroke-opacity:1;"/>
  <path id="path61" d="  M 1306.3684,532.52632   L 1311.8421,532.31579   L 1317.2105,531.57895   L 1322.4737,530.36842   L 1327.5263,528.68421   L 1332.2632,526.57895   L 1336.6842,524   L 1340.7368,521   L 1344.3158,517.63158   L 1347.3158,513.89474   L 1349.7895,509.78947   L 1351.6316,505.42105   L 1352.7368,500.89474   L 1353.1053,496.21053   L 1352.7895,491.57895   L 1351.6842,487   L 1349.7895,482.68421  " style="fill:none;stroke:#212830;stroke-width:4px;stroke-linecap:round;stroke-linejoin:round;stroke-miterlimit:4;stroke-dasharray:none;stroke-opacity:1;"/>
  <path id="path63" d="  M 1328.7368,464.21053   L 1323.4737,462.26316   L 1317.8947,460.89474   L 1312.1579,460.05263   L 1306.3684,459.78947  " style="fill:none;stroke:#212830;stroke-width:4px;stroke-linecap:round;stroke-linejoin:round;stroke-miterlimit:4;stroke-dasharray:none;stroke-opacity:1;"/>
  <path id="path65" d="  M 1328.7368,501.15789   L 1327.3158,502.84211   L 1325.3684,504.47368   L 1322.9474,506   L 1320.1579,507.36842   L 1317,508.52632   L 1313.6316,509.36842   L 1306.3684,510.05263  " style="fill:none;stroke:#212830;stroke-width:4px;stroke-linecap:round;stroke-linejoin:round;stroke-miterlimit:4;stroke-dasharray:none;stroke-opacity:1;"/>
  <path id="path67" d="  M 1306.3684,505.57895   L 1312.8947,505.21053   L 1319.2632,504.15789   L 1325.4211,502.47368   L 1331.2105,500.10526   L 1336.5789,497.10526   L 1341.3158,493.47368   L 1345.4211,489.31579   L 1348.7895,484.68421   L 1351.2105,479.57895   L 1352.6842,474.21053   L 1353.1053,468.63158   L 1352.4737,463.10526   L 1350.8421,457.73684   L 1348.2105,452.73684   L 1344.6842,448.15789   L 1340.4211,444.15789  " style="fill:none;stroke:#212830;stroke-width:4px;stroke-linecap:round;stroke-linejoin:round;stroke-miterlimit:4;stroke-dasharray:none;stroke-opacity:1;"/>
  <path id="path69" d="  M 1309.3684,455.47368   L 1314.3684,456.15789   L 1318.9474,457.47368   L 1322.9474,459.31579   L 1326.1579,461.47368   L 1328.4737,463.78947   L 1329.8421,466   L 1330.5263,467.94737   L 1330.6316,469.68421   L 1330.2105,471.52632   L 1329.1579,473.63158   L 1327.2105,475.94737   L 1324.3684,478.21053   L 1320.6842,480.21053   L 1316.2632,481.73684   L 1311.4211,482.73684   L 1306.3684,483.05263  " style="fill:none;stroke:#212830;stroke-width:4px;stroke-linecap:round;stroke-linejoin:round;stroke-miterlimit:4;stroke-dasharray:none;stroke-opacity:1;"/>
  <path id="path71" d="  M 1306.3684,536.52632   L 1315.0526,535.89474   L 1323.4737,534.05263   L 1331.3158,531   L 1338.3158,526.84211   L 1341.4211,524.36842   L 1344.2632,521.63158   L 1346.7368,518.63158   L 1348.8421,515.47368   L 1350.5789,512.10526   L 1351.8947,508.57895   L 1352.7368,504.89474   L 1353.0526,501.21053  " style="fill:none;stroke:#212830;stroke-width:4px;stroke-linecap:round;stroke-linejoin:round;stroke-miterlimit:4;stroke-dasharray:none;stroke-opacity:1;"/>
  <path id="path73" d="  M 1352.8421,357.47368   L 1353.0526,351.26316   L 1352.6842,348.21053   L 1351.8947,345.21053  " style="fill:none;stroke:#212830;stroke-width:4px;stroke-linecap:round;stroke-linejoin:round;stroke-miterlimit:4;stroke-dasharray:none;stroke-opacity:1;"/>
</svg>