<svg xmlns:inkscape="http://www.inkscape.org/namespaces/inkscape" xmlns:sodipodi="http://sodipodi.sourceforge.net/DTD/sodipodi-0.dtd" xmlns="http://www.w3.org/2000/svg" xmlns:svg="http://www.w3.org/2000/svg" version="1.0" id="svg31" sodipodi:docname="flange_head-3L.wmf" viewBox="757.5 175.71 314.89 315.11">
  <sodipodi:namedview id="namedview33" pagecolor="#ffffff" bordercolor="#000000" borderopacity="0.25" inkscape:showpageshadow="2" inkscape:pageopacity="0.0" inkscape:pagecheckerboard="0" inkscape:deskcolor="#d1d1d1" inkscape:document-units="mm"/>
  <defs id="defs3">
    <pattern id="WMFhbasepattern" patternUnits="userSpaceOnUse" width="6" height="6" x="0" y="0"/>
  </defs>
  <path style="fill:none;stroke:#212830;stroke-width:4px;stroke-linecap:round;stroke-linejoin:round;stroke-miterlimit:4;stroke-dasharray:none;stroke-opacity:1;" d="  M 924.36842,219.84211   L 924.31579,218.78947   L 924.15789,217.73684   L 923.84211,216.73684   L 923.42105,215.73684   L 922.94737,214.84211   L 922.31579,213.94737   L 921.63158,213.15789   L 920.84211,212.47368   L 919.94737,211.84211   L 919.05263,211.36842   L 918.05263,210.94737   L 917.05263,210.63158   L 916,210.47368   L 914.94737,210.42105   L 913.89474,210.47368   L 912.84211,210.63158   L 911.84211,210.94737   L 910.84211,211.36842   L 909.94737,211.84211   L 909.05263,212.47368   L 908.26316,213.15789   L 907.57895,213.94737   L 906.94737,214.84211   L 906.47368,215.73684   L 906.05263,216.73684   L 905.73684,217.73684   L 905.57895,218.78947   L 905.52632,219.84211   L 905.57895,220.89474   L 905.73684,221.94737   L 906.05263,222.94737   L 906.47368,223.94737   L 906.94737,224.84211   L 907.57895,225.73684   L 908.26316,226.52632   L 909.05263,227.21053   L 909.94737,227.84211   L 910.84211,228.31579   L 911.84211,228.73684   L 912.84211,229.05263   L 913.89474,229.21053   L 914.94737,229.26316   L 916,229.21053   L 917.05263,229.05263   L 918.05263,228.73684   L 919.05263,228.31579   L 919.94737,227.84211   L 920.84211,227.21053   L 921.63158,226.52632   L 922.31579,225.73684   L 922.94737,224.84211   L 923.42105,223.94737   L 923.84211,222.94737   L 924.15789,221.94737   L 924.31579,220.89474   L 924.36842,219.84211  z " id="path5"/>
  <path style="fill:none;stroke:#212830;stroke-width:4px;stroke-linecap:round;stroke-linejoin:round;stroke-miterlimit:4;stroke-dasharray:none;stroke-opacity:1;" d="  M 811,333.26316   L 810.94737,332.21053   L 810.78947,331.15789   L 810.47368,330.15789   L 810.05263,329.15789   L 809.57895,328.26316   L 808.94737,327.36842   L 808.26316,326.57895   L 807.47368,325.89474   L 806.57895,325.26316   L 805.68421,324.78947   L 804.68421,324.36842   L 803.68421,324.05263   L 802.63158,323.89474   L 801.57895,323.84211   L 800.52632,323.89474   L 799.47368,324.05263   L 798.47368,324.36842   L 797.47368,324.78947   L 796.57895,325.26316   L 795.68421,325.89474   L 794.89474,326.57895   L 794.21053,327.36842   L 793.57895,328.26316   L 793.10526,329.15789   L 792.68421,330.15789   L 792.36842,331.15789   L 792.21053,332.21053   L 792.15789,333.26316   L 792.21053,334.31579   L 792.36842,335.36842   L 792.68421,336.36842   L 793.10526,337.36842   L 793.57895,338.26316   L 794.21053,339.15789   L 794.89474,339.94737   L 795.68421,340.63158   L 796.57895,341.26316   L 797.47368,341.73684   L 798.47368,342.15789   L 799.47368,342.47368   L 800.52632,342.63158   L 801.57895,342.68421   L 802.63158,342.63158   L 803.68421,342.47368   L 804.68421,342.15789   L 805.68421,341.73684   L 806.57895,341.26316   L 807.47368,340.63158   L 808.26316,339.94737   L 808.94737,339.15789   L 809.57895,338.26316   L 810.05263,337.36842   L 810.47368,336.36842   L 810.78947,335.36842   L 810.94737,334.31579   L 811,333.26316  z " id="path7"/>
  <path style="fill:none;stroke:#212830;stroke-width:4px;stroke-linecap:round;stroke-linejoin:round;stroke-miterlimit:4;stroke-dasharray:none;stroke-opacity:1;" d="  M 924.36842,446.68421   L 924.31579,445.63158   L 924.15789,444.57895   L 923.84211,443.57895   L 923.42105,442.57895   L 922.94737,441.68421   L 922.31579,440.78947   L 921.63158,440   L 920.84211,439.31579   L 919.94737,438.68421   L 919.05263,438.21053   L 918.05263,437.78947   L 917.05263,437.47368   L 916,437.31579   L 914.94737,437.26316   L 913.89474,437.31579   L 912.84211,437.47368   L 911.84211,437.78947   L 910.84211,438.21053   L 909.94737,438.68421   L 909.05263,439.31579   L 908.26316,440   L 907.57895,440.78947   L 906.94737,441.68421   L 906.47368,442.57895   L 906.05263,443.57895   L 905.73684,444.57895   L 905.57895,445.63158   L 905.52632,446.68421   L 905.57895,447.73684   L 905.73684,448.78947   L 906.05263,449.78947   L 906.47368,450.78947   L 906.94737,451.68421   L 907.57895,452.57895   L 908.26316,453.36842   L 909.05263,454.05263   L 909.94737,454.68421   L 910.84211,455.15789   L 911.84211,455.57895   L 912.84211,455.89474   L 913.89474,456.05263   L 914.94737,456.10526   L 916,456.05263   L 917.05263,455.89474   L 918.05263,455.57895   L 919.05263,455.15789   L 919.94737,454.68421   L 920.84211,454.05263   L 921.63158,453.36842   L 922.31579,452.57895   L 922.94737,451.68421   L 923.42105,450.78947   L 923.84211,449.78947   L 924.15789,448.78947   L 924.31579,447.73684   L 924.36842,446.68421  z " id="path9"/>
  <path style="fill:none;stroke:#212830;stroke-width:4px;stroke-linecap:round;stroke-linejoin:round;stroke-miterlimit:4;stroke-dasharray:none;stroke-opacity:1;" d="  M 1037.7368,333.26316   L 1037.6842,332.21053   L 1037.5263,331.15789   L 1037.2105,330.15789   L 1036.7895,329.15789   L 1036.3158,328.26316   L 1035.6842,327.36842   L 1035,326.57895   L 1034.2105,325.89474   L 1033.3158,325.26316   L 1032.4211,324.78947   L 1031.4211,324.36842   L 1030.4211,324.05263   L 1029.3684,323.89474   L 1028.3158,323.84211   L 1027.2632,323.89474   L 1026.2105,324.05263   L 1025.2105,324.36842   L 1024.2105,324.78947   L 1023.3158,325.26316   L 1022.4211,325.89474   L 1021.6316,326.57895   L 1020.9474,327.36842   L 1020.3158,328.26316   L 1019.8421,329.15789   L 1019.4211,330.15789   L 1019.1053,331.15789   L 1018.9474,332.21053   L 1018.8947,333.26316   L 1018.9474,334.31579   L 1019.1053,335.36842   L 1019.4211,336.36842   L 1019.8421,337.36842   L 1020.3158,338.26316   L 1020.9474,339.15789   L 1021.6316,339.94737   L 1022.4211,340.63158   L 1023.3158,341.26316   L 1024.2105,341.73684   L 1025.2105,342.15789   L 1026.2105,342.47368   L 1027.2632,342.63158   L 1028.3158,342.68421   L 1029.3684,342.63158   L 1030.4211,342.47368   L 1031.4211,342.15789   L 1032.4211,341.73684   L 1033.3158,341.26316   L 1034.2105,340.63158   L 1035,339.94737   L 1035.6842,339.15789   L 1036.3158,338.26316   L 1036.7895,337.36842   L 1037.2105,336.36842   L 1037.5263,335.36842   L 1037.6842,334.31579   L 1037.7368,333.26316  z " id="path11"/>
  <path style="fill:none;stroke:#212830;stroke-width:4px;stroke-linecap:round;stroke-linejoin:round;stroke-miterlimit:4;stroke-dasharray:none;stroke-opacity:1;" d="  M 1040.8947,333.26316   L 1040.8421,329.26316   L 1040.6316,325.26316   L 1040.3158,321.26316   L 1039.8947,317.31579   L 1039.3158,313.36842   L 1038.6316,309.42105   L 1037.7895,305.52632   L 1036.8421,301.63158   L 1035.7895,297.78947   L 1034.6316,293.94737   L 1033.3158,290.15789   L 1031.8947,286.42105   L 1030.3158,282.73684   L 1028.6842,279.10526   L 1026.8947,275.52632   L 1025,272   L 1023,268.52632   L 1020.8947,265.15789   L 1018.6842,261.78947   L 1016.3684,258.57895   L 1013.9474,255.36842   L 1011.4211,252.26316   L 1008.7895,249.26316   L 1006.1053,246.31579   L 1003.3158,243.47368   L 1000.4211,240.68421   L 997.42105,238.05263   L 994.36842,235.47368   L 991.21053,233   L 988,230.63158   L 984.73684,228.36842   L 981.36842,226.21053   L 977.89474,224.15789   L 974.42105,222.21053   L 970.89474,220.36842   L 967.26316,218.63158   L 963.63158,217.05263   L 959.89474,215.57895   L 956.15789,214.21053   L 952.36842,212.94737   L 948.52632,211.84211   L 944.63158,210.78947   L 940.73684,209.94737   L 936.84211,209.15789   L 932.89474,208.52632   L 928.89474,208.05263   L 924.94737,207.68421   L 920.94737,207.42105   L 916.94737,207.26316   L 912.94737,207.26316   L 908.94737,207.42105   L 904.94737,207.68421   L 901,208.05263   L 897,208.52632   L 893.05263,209.15789   L 889.15789,209.94737   L 885.26316,210.78947   L 881.36842,211.84211   L 877.52632,212.94737   L 873.73684,214.21053   L 870,215.57895   L 866.26316,217.05263   L 862.63158,218.63158   L 859,220.36842   L 855.47368,222.21053   L 852,224.15789   L 848.52632,226.21053   L 845.15789,228.36842   L 841.89474,230.63158   L 838.68421,233   L 835.52632,235.47368   L 832.47368,238.05263   L 829.47368,240.68421   L 826.57895,243.47368   L 823.78947,246.31579   L 821.10526,249.26316   L 818.47368,252.26316   L 815.94737,255.36842   L 813.52632,258.57895   L 811.21053,261.78947   L 809,265.15789   L 806.89474,268.52632   L 804.89474,272   L 803,275.52632   L 801.21053,279.10526   L 799.57895,282.73684   L 798,286.42105   L 796.57895,290.15789   L 795.26316,293.94737   L 794.10526,297.78947   L 793.05263,301.63158   L 792.10526,305.52632   L 791.26316,309.42105   L 790.57895,313.36842   L 790,317.31579   L 789.57895,321.26316   L 789.26316,325.26316   L 789.05263,329.26316   L 789,333.26316   L 789.05263,337.26316   L 789.26316,341.26316   L 789.57895,345.26316   L 790,349.21053   L 790.57895,353.15789   L 791.26316,357.10526   L 792.10526,361   L 793.05263,364.89474   L 794.10526,368.73684   L 795.26316,372.57895   L 796.57895,376.36842   L 798,380.10526   L 799.57895,383.78947   L 801.21053,387.42105   L 803,391   L 804.89474,394.52632   L 806.89474,398   L 809,401.36842   L 811.21053,404.73684   L 813.52632,407.94737   L 815.94737,411.15789   L 818.47368,414.26316   L 821.10526,417.26316   L 823.78947,420.21053   L 826.57895,423.05263   L 829.47368,425.84211   L 832.47368,428.47368   L 835.52632,431.05263   L 838.68421,433.52632   L 841.89474,435.89474   L 845.15789,438.15789   L 848.52632,440.31579   L 852,442.36842   L 855.47368,444.31579   L 859,446.15789   L 862.63158,447.89474   L 866.26316,449.47368   L 870,450.94737   L 873.73684,452.31579   L 877.52632,453.57895   L 881.36842,454.68421   L 885.26316,455.73684   L 889.15789,456.57895   L 893.05263,457.36842   L 897,458   L 901,458.47368   L 904.94737,458.84211   L 908.94737,459.10526   L 912.94737,459.26316   L 916.94737,459.26316   L 920.94737,459.10526   L 924.94737,458.84211   L 928.89474,458.47368   L 932.89474,458   L 936.84211,457.36842   L 940.73684,456.57895   L 944.63158,455.73684   L 948.52632,454.68421   L 952.36842,453.57895   L 956.15789,452.31579   L 959.89474,450.94737   L 963.63158,449.47368   L 967.26316,447.89474   L 970.89474,446.15789   L 974.42105,444.31579   L 977.89474,442.36842   L 981.36842,440.31579   L 984.73684,438.15789   L 988,435.89474   L 991.21053,433.52632   L 994.36842,431.05263   L 997.42105,428.47368   L 1000.4211,425.84211   L 1003.3158,423.05263   L 1006.1053,420.21053   L 1008.7895,417.26316   L 1011.4211,414.26316   L 1013.9474,411.15789   L 1016.3684,407.94737   L 1018.6842,404.73684   L 1020.8947,401.36842   L 1023,398   L 1025,394.52632   L 1026.8947,391   L 1028.6842,387.42105   L 1030.3158,383.78947   L 1031.8947,380.10526   L 1033.3158,376.36842   L 1034.6316,372.57895   L 1035.7895,368.73684   L 1036.8421,364.89474   L 1037.7895,361   L 1038.6316,357.10526   L 1039.3158,353.15789   L 1039.8947,349.21053   L 1040.3158,345.26316   L 1040.6316,341.26316   L 1040.8421,337.26316   L 1040.8947,333.26316  z " id="path13"/>
  <path style="fill:none;stroke:#212830;stroke-width:4px;stroke-linecap:round;stroke-linejoin:round;stroke-miterlimit:4;stroke-dasharray:none;stroke-opacity:1;" d="  M 1072.3684,333.26316   L 1072.3158,328.78947   L 1072.1053,324.26316   L 1071.7895,319.78947   L 1071.3684,315.31579   L 1070.7895,310.84211   L 1070.0526,306.42105   L 1069.2105,302   L 1068.2632,297.57895   L 1067.2105,293.21053   L 1066,288.89474   L 1064.6842,284.57895   L 1063.2105,280.31579   L 1061.6316,276.10526   L 1059.9474,271.94737   L 1058.1579,267.84211   L 1056.2105,263.73684   L 1054.1579,259.73684   L 1052,255.78947   L 1049.7368,251.89474   L 1047.3684,248.10526   L 1044.8947,244.36842   L 1042.3158,240.68421   L 1039.6316,237.05263   L 1036.7895,233.52632   L 1033.8947,230.10526   L 1030.9474,226.73684   L 1027.8421,223.47368   L 1024.6842,220.31579   L 1021.3684,217.21053   L 1018.0526,214.21053   L 1014.5789,211.31579   L 1011.0526,208.52632   L 1007.4737,205.84211   L 1003.7895,203.21053   L 1000.0526,200.73684   L 996.26316,198.36842   L 992.36842,196.10526   L 988.42105,193.94737   L 984.42105,191.89474   L 980.36842,189.94737   L 976.21053,188.15789   L 972.05263,186.47368   L 967.84211,184.89474   L 963.57895,183.42105   L 959.31579,182.10526   L 954.94737,180.89474   L 950.57895,179.84211   L 946.21053,178.89474   L 941.78947,178.05263   L 937.36842,177.31579   L 932.89474,176.78947   L 928.42105,176.31579   L 923.94737,176   L 919.42105,175.78947   L 914.94737,175.73684   L 910.47368,175.78947   L 905.94737,176   L 901.47368,176.31579   L 897,176.78947   L 892.52632,177.31579   L 888.10526,178.05263   L 883.68421,178.89474   L 879.31579,179.84211   L 874.94737,180.89474   L 870.57895,182.10526   L 866.31579,183.42105   L 862.05263,184.89474   L 857.84211,186.47368   L 853.68421,188.15789   L 849.52632,189.94737   L 845.47368,191.89474   L 841.47368,193.94737   L 837.52632,196.10526   L 833.63158,198.36842   L 829.84211,200.73684   L 826.10526,203.21053   L 822.42105,205.84211   L 818.84211,208.52632   L 815.31579,211.31579   L 811.84211,214.21053   L 808.52632,217.21053   L 805.21053,220.31579   L 802.05263,223.47368   L 798.94737,226.73684   L 796,230.10526   L 793.10526,233.52632   L 790.26316,237.05263   L 787.57895,240.68421   L 785,244.36842   L 782.52632,248.10526   L 780.15789,251.89474   L 777.89474,255.78947   L 775.73684,259.73684   L 773.68421,263.73684   L 771.73684,267.84211   L 769.94737,271.94737   L 768.26316,276.10526   L 766.68421,280.31579   L 765.21053,284.57895   L 763.89474,288.89474   L 762.68421,293.21053   L 761.63158,297.57895   L 760.68421,302   L 759.84211,306.42105   L 759.10526,310.84211   L 758.52632,315.31579   L 758.10526,319.78947   L 757.78947,324.26316   L 757.57895,328.78947   L 757.52632,333.26316   L 757.57895,337.73684   L 757.78947,342.26316   L 758.10526,346.73684   L 758.52632,351.21053   L 759.10526,355.68421   L 759.84211,360.10526   L 760.68421,364.52632   L 761.63158,368.94737   L 762.68421,373.31579   L 763.89474,377.63158   L 765.21053,381.94737   L 766.68421,386.21053   L 768.26316,390.42105   L 769.94737,394.57895   L 771.73684,398.68421   L 773.68421,402.78947   L 775.73684,406.78947   L 777.89474,410.73684   L 780.15789,414.63158   L 782.52632,418.42105   L 785,422.15789   L 787.57895,425.84211   L 790.26316,429.47368   L 793.10526,433   L 796,436.42105   L 798.94737,439.78947   L 802.05263,443.05263   L 805.21053,446.21053   L 808.52632,449.31579   L 811.84211,452.31579   L 815.31579,455.21053   L 818.84211,458   L 822.42105,460.68421   L 826.10526,463.31579   L 829.84211,465.78947   L 833.63158,468.15789   L 837.52632,470.42105   L 841.47368,472.57895   L 845.47368,474.63158   L 849.52632,476.57895   L 853.68421,478.36842   L 857.84211,480.05263   L 862.05263,481.63158   L 866.31579,483.10526   L 870.57895,484.42105   L 874.94737,485.63158   L 879.31579,486.68421   L 883.68421,487.63158   L 888.10526,488.47368   L 892.52632,489.21053   L 897,489.73684   L 901.47368,490.21053   L 905.94737,490.52632   L 910.47368,490.73684   L 914.94737,490.78947   L 919.42105,490.73684   L 923.94737,490.52632   L 928.42105,490.21053   L 932.89474,489.73684   L 937.36842,489.21053   L 941.78947,488.47368   L 946.21053,487.63158   L 950.57895,486.68421   L 954.94737,485.63158   L 959.31579,484.42105   L 963.57895,483.10526   L 967.84211,481.63158   L 972.05263,480.05263   L 976.21053,478.36842   L 980.36842,476.57895   L 984.42105,474.63158   L 988.42105,472.57895   L 992.36842,470.42105   L 996.26316,468.15789   L 1000.0526,465.78947   L 1003.7895,463.31579   L 1007.4737,460.68421   L 1011.0526,458   L 1014.5789,455.21053   L 1018.0526,452.31579   L 1021.3684,449.31579   L 1024.6842,446.21053   L 1027.8421,443.05263   L 1030.9474,439.78947   L 1033.8947,436.42105   L 1036.7895,433   L 1039.6316,429.47368   L 1042.3158,425.84211   L 1044.8947,422.15789   L 1047.3684,418.42105   L 1049.7368,414.63158   L 1052,410.73684   L 1054.1579,406.78947   L 1056.2105,402.78947   L 1058.1579,398.68421   L 1059.9474,394.57895   L 1061.6316,390.42105   L 1063.2105,386.21053   L 1064.6842,381.94737   L 1066,377.63158   L 1067.2105,373.31579   L 1068.2632,368.94737   L 1069.2105,364.52632   L 1070.0526,360.10526   L 1070.7895,355.68421   L 1071.3684,351.21053   L 1071.7895,346.73684   L 1072.1053,342.26316   L 1072.3158,337.73684   L 1072.3684,333.26316  z " id="path15"/>
  <path style="fill:none;stroke:#212830;stroke-width:4px;stroke-linecap:round;stroke-linejoin:round;stroke-miterlimit:4;stroke-dasharray:none;stroke-opacity:1;" d="  M 862.42105,447.84211   L 862.42105,459.31579  " id="path17"/>
  <path style="fill:none;stroke:#212830;stroke-width:4px;stroke-linecap:round;stroke-linejoin:round;stroke-miterlimit:4;stroke-dasharray:none;stroke-opacity:1;" d="  M 967.42105,459.31579   L 967.42105,447.84211  " id="path19"/>
  <path style="fill:none;stroke:#212830;stroke-width:4px;stroke-linecap:round;stroke-linejoin:round;stroke-miterlimit:4;stroke-dasharray:none;stroke-opacity:1;" d="  M 967.42105,459.31579   L 862.42105,459.31579  " id="path21"/>
  <path style="fill:none;stroke:#212830;stroke-width:4px;stroke-linecap:round;stroke-linejoin:round;stroke-miterlimit:4;stroke-dasharray:none;stroke-opacity:1;" d="  M 1014.9474,256.68421   L 1015.9474,255.73684   L 1016.8421,254.73684   L 1017.6316,253.63158   L 1018.3684,252.47368   L 1018.9474,251.26316   L 1019.4737,250   L 1019.8421,248.73684   L 1020.1579,247.42105   L 1020.3158,246.05263   L 1020.3684,244.73684   L 1020.3158,243.36842   L 1020.1053,242   L 1019.8421,240.68421   L 1019.4211,239.42105   L 1018.8947,238.15789   L 1018.2632,236.94737   L 1017.5789,235.84211   L 1016.7368,234.73684   L 1015.8421,233.73684   L 1014.8421,232.84211   L 1013.7895,232   L 1012.6316,231.26316   L 1011.4737,230.63158   L 1010.2105,230.05263   L 1008.9474,229.63158   L 1007.6316,229.31579   L 1006.2632,229.15789   L 1004.9474,229.05263   L 1003.5789,229.10526   L 1002.2105,229.21053   L 1000.8947,229.52632   L 999.63158,229.89474   L 998.36842,230.36842   L 997.10526,230.94737   L 995.94737,231.63158   L 994.89474,232.42105   L 993.84211,233.31579   L 992.89474,234.31579  " id="path23"/>
  <path style="fill:none;stroke:#212830;stroke-width:4px;stroke-linecap:round;stroke-linejoin:round;stroke-miterlimit:4;stroke-dasharray:none;stroke-opacity:1;" d="  M 991.47368,433.31579   L 992.42105,434.31579   L 993.42105,435.21053   L 994.52632,436   L 995.68421,436.73684   L 996.89474,437.31579   L 998.15789,437.84211   L 999.42105,438.21053   L 1000.7368,438.52632   L 1002.1053,438.68421   L 1003.4211,438.73684   L 1004.7895,438.68421   L 1006.1579,438.47368   L 1007.4737,438.21053   L 1008.7368,437.78947   L 1010,437.26316   L 1011.2105,436.63158   L 1012.3158,435.94737   L 1013.4211,435.10526   L 1014.4211,434.21053   L 1015.3158,433.21053   L 1016.1579,432.15789   L 1016.8947,431   L 1017.5263,429.84211   L 1018.1053,428.57895   L 1018.5263,427.31579   L 1018.8421,426   L 1019,424.63158   L 1019.1053,423.31579   L 1019.0526,421.94737   L 1018.9474,420.57895   L 1018.6316,419.26316   L 1018.2632,418   L 1017.7895,416.73684   L 1017.2105,415.47368   L 1016.5263,414.31579   L 1015.7368,413.26316   L 1014.8421,412.21053   L 1013.8421,411.26316  " id="path25"/>
  <path style="fill:none;stroke:#212830;stroke-width:4px;stroke-linecap:round;stroke-linejoin:round;stroke-miterlimit:4;stroke-dasharray:none;stroke-opacity:1;" d="  M 814.89474,409.84211   L 813.89474,410.78947   L 813,411.78947   L 812.21053,412.89474   L 811.47368,414.05263   L 810.89474,415.26316   L 810.36842,416.52632   L 810,417.78947   L 809.68421,419.10526   L 809.52632,420.47368   L 809.47368,421.78947   L 809.52632,423.15789   L 809.73684,424.52632   L 810,425.84211   L 810.42105,427.10526   L 810.94737,428.36842   L 811.57895,429.57895   L 812.26316,430.68421   L 813.10526,431.78947   L 814,432.78947   L 815,433.68421   L 816.05263,434.52632   L 817.21053,435.26316   L 818.36842,435.89474   L 819.63158,436.47368   L 820.89474,436.89474   L 822.21053,437.21053   L 823.57895,437.36842   L 824.89474,437.47368   L 826.26316,437.42105   L 827.63158,437.31579   L 828.94737,437   L 830.21053,436.63158   L 831.47368,436.15789   L 832.73684,435.57895   L 833.89474,434.89474   L 834.94737,434.10526   L 836,433.21053   L 836.94737,432.21053  " id="path27"/>
  <path style="fill:none;stroke:#212830;stroke-width:4px;stroke-linecap:round;stroke-linejoin:round;stroke-miterlimit:4;stroke-dasharray:none;stroke-opacity:1;" d="  M 838.36842,233.21053   L 837.42105,232.21053   L 836.42105,231.31579   L 835.31579,230.52632   L 834.15789,229.78947   L 832.94737,229.21053   L 831.68421,228.68421   L 830.42105,228.31579   L 829.10526,228   L 827.73684,227.84211   L 826.42105,227.78947   L 825.05263,227.84211   L 823.68421,228.05263   L 822.36842,228.31579   L 821.10526,228.73684   L 819.84211,229.26316   L 818.63158,229.89474   L 817.52632,230.57895   L 816.42105,231.42105   L 815.42105,232.31579   L 814.52632,233.31579   L 813.68421,234.36842   L 812.94737,235.52632   L 812.31579,236.68421   L 811.73684,237.94737   L 811.31579,239.21053   L 811,240.52632   L 810.84211,241.89474   L 810.73684,243.21053   L 810.78947,244.57895   L 810.89474,245.94737   L 811.21053,247.26316   L 811.57895,248.52632   L 812.05263,249.78947   L 812.63158,251.05263   L 813.31579,252.21053   L 814.10526,253.26316   L 815,254.31579   L 816,255.26316  " id="path29"/>
</svg>