<svg xmlns:inkscape="http://www.inkscape.org/namespaces/inkscape" xmlns:sodipodi="http://sodipodi.sourceforge.net/DTD/sodipodi-0.dtd" xmlns="http://www.w3.org/2000/svg" xmlns:svg="http://www.w3.org/2000/svg" version="1.0" id="svg39" sodipodi:docname="flange_head-8L.wmf" viewBox="322.66 351.66 314.89 315.11">
  <sodipodi:namedview id="namedview41" pagecolor="#ffffff" bordercolor="#000000" borderopacity="0.25" inkscape:showpageshadow="2" inkscape:pageopacity="0.0" inkscape:pagecheckerboard="0" inkscape:deskcolor="#d1d1d1" inkscape:document-units="mm"/>
  <defs id="defs3">
    <pattern id="WMFhbasepattern" patternUnits="userSpaceOnUse" width="6" height="6" x="0" y="0"/>
  </defs>
  <path style="fill:none;stroke:#000000;stroke-width:4px;stroke-linecap:round;stroke-linejoin:round;stroke-miterlimit:4;stroke-dasharray:none;stroke-opacity:1;" d="  M 485.31579,392.21053   L 485.26316,391.42105   L 485.10526,390.68421   L 484.78947,389.94737   L 484.42105,389.26316   L 483.94737,388.68421   L 483.36842,388.15789   L 482.73684,387.68421   L 482,387.36842   L 481.26316,387.10526   L 480.47368,387   L 479.73684,387   L 478.94737,387.10526   L 478.21053,387.36842   L 477.52632,387.68421   L 476.84211,388.15789   L 476.26316,388.68421   L 475.78947,389.26316   L 475.42105,389.94737   L 475.10526,390.68421   L 474.94737,391.42105   L 474.89474,392.21053   L 474.94737,393   L 475.10526,393.73684   L 475.42105,394.47368   L 475.78947,395.15789   L 476.26316,395.73684   L 476.84211,396.26316   L 477.52632,396.73684   L 478.21053,397.05263   L 478.94737,397.31579   L 479.73684,397.42105   L 480.47368,397.42105   L 481.26316,397.31579   L 482,397.05263   L 482.73684,396.73684   L 483.36842,396.26316   L 483.94737,395.73684   L 484.42105,395.15789   L 484.78947,394.47368   L 485.10526,393.73684   L 485.26316,393   L 485.31579,392.21053  z " id="path5"/>
  <path style="fill:none;stroke:#000000;stroke-width:4px;stroke-linecap:round;stroke-linejoin:round;stroke-miterlimit:4;stroke-dasharray:none;stroke-opacity:1;" d="  M 368.36842,509.21053   L 368.31579,508.42105   L 368.15789,507.68421   L 367.84211,506.94737   L 367.47368,506.26316   L 367,505.68421   L 366.42105,505.15789   L 365.78947,504.68421   L 365.05263,504.36842   L 364.31579,504.10526   L 363.52632,504   L 362.78947,504   L 362,504.10526   L 361.26316,504.36842   L 360.57895,504.68421   L 359.89474,505.15789   L 359.31579,505.68421   L 358.84211,506.26316   L 358.47368,506.94737   L 358.15789,507.68421   L 358,508.42105   L 357.94737,509.21053   L 358,510   L 358.15789,510.73684   L 358.47368,511.47368   L 358.84211,512.15789   L 359.31579,512.73684   L 359.89474,513.26316   L 360.57895,513.73684   L 361.26316,514.05263   L 362,514.31579   L 362.78947,514.42105   L 363.52632,514.42105   L 364.31579,514.31579   L 365.05263,514.05263   L 365.78947,513.73684   L 366.42105,513.26316   L 367,512.73684   L 367.47368,512.15789   L 367.84211,511.47368   L 368.15789,510.73684   L 368.31579,510   L 368.36842,509.21053  z " id="path7"/>
  <path style="fill:none;stroke:#000000;stroke-width:4px;stroke-linecap:round;stroke-linejoin:round;stroke-miterlimit:4;stroke-dasharray:none;stroke-opacity:1;" d="  M 485.31579,626.15789   L 485.26316,625.36842   L 485.10526,624.63158   L 484.78947,623.89474   L 484.42105,623.21053   L 483.94737,622.63158   L 483.36842,622.10526   L 482.73684,621.63158   L 482,621.31579   L 481.26316,621.05263   L 480.47368,620.94737   L 479.73684,620.94737   L 478.94737,621.05263   L 478.21053,621.31579   L 477.52632,621.63158   L 476.84211,622.10526   L 476.26316,622.63158   L 475.78947,623.21053   L 475.42105,623.89474   L 475.10526,624.63158   L 474.94737,625.36842   L 474.89474,626.15789   L 474.94737,626.94737   L 475.10526,627.68421   L 475.42105,628.42105   L 475.78947,629.10526   L 476.26316,629.68421   L 476.84211,630.21053   L 477.52632,630.68421   L 478.21053,631   L 478.94737,631.26316   L 479.73684,631.36842   L 480.47368,631.36842   L 481.26316,631.26316   L 482,631   L 482.73684,630.68421   L 483.36842,630.21053   L 483.94737,629.68421   L 484.42105,629.10526   L 484.78947,628.42105   L 485.10526,627.68421   L 485.26316,626.94737   L 485.31579,626.15789  z " id="path9"/>
  <path style="fill:none;stroke:#000000;stroke-width:4px;stroke-linecap:round;stroke-linejoin:round;stroke-miterlimit:4;stroke-dasharray:none;stroke-opacity:1;" d="  M 602.21053,509.21053   L 602.15789,508.42105   L 602,507.68421   L 601.68421,506.94737   L 601.31579,506.26316   L 600.84211,505.68421   L 600.26316,505.15789   L 599.63158,504.68421   L 598.89474,504.36842   L 598.15789,504.10526   L 597.36842,504   L 596.63158,504   L 595.84211,504.10526   L 595.10526,504.36842   L 594.42105,504.68421   L 593.73684,505.15789   L 593.15789,505.68421   L 592.68421,506.26316   L 592.31579,506.94737   L 592,507.68421   L 591.84211,508.42105   L 591.78947,509.21053   L 591.84211,510   L 592,510.73684   L 592.31579,511.47368   L 592.68421,512.15789   L 593.15789,512.73684   L 593.73684,513.26316   L 594.42105,513.73684   L 595.10526,514.05263   L 595.84211,514.31579   L 596.63158,514.42105   L 597.36842,514.42105   L 598.15789,514.31579   L 598.89474,514.05263   L 599.63158,513.73684   L 600.26316,513.26316   L 600.84211,512.73684   L 601.31579,512.15789   L 601.68421,511.47368   L 602,510.73684   L 602.15789,510   L 602.21053,509.21053  z " id="path11"/>
  <path style="fill:none;stroke:#000000;stroke-width:4px;stroke-linecap:round;stroke-linejoin:round;stroke-miterlimit:4;stroke-dasharray:none;stroke-opacity:1;" d="  M 604,509.21053   L 603.94737,505.26316   L 603.73684,501.26316   L 603.42105,497.31579   L 603,493.36842   L 602.42105,489.42105   L 601.73684,485.52632   L 600.89474,481.63158   L 599.94737,477.78947   L 598.89474,473.94737   L 597.68421,470.15789   L 596.36842,466.42105   L 594.94737,462.68421   L 593.42105,459.05263   L 591.73684,455.42105   L 589.94737,451.89474   L 588.05263,448.36842   L 586.05263,444.94737   L 583.94737,441.57895   L 581.73684,438.31579   L 579.42105,435.05263   L 576.94737,431.94737   L 574.42105,428.84211   L 571.84211,425.89474   L 569.10526,423   L 566.31579,420.15789   L 563.42105,417.47368   L 560.42105,414.84211   L 557.36842,412.31579   L 554.21053,409.89474   L 551,407.52632   L 547.68421,405.31579   L 544.31579,403.21053   L 540.89474,401.21053   L 537.42105,399.31579   L 533.84211,397.52632   L 530.26316,395.89474   L 526.57895,394.31579   L 522.89474,392.89474   L 519.15789,391.57895   L 515.36842,390.36842   L 511.52632,389.31579   L 507.68421,388.36842   L 503.78947,387.52632   L 499.89474,386.84211   L 495.94737,386.26316   L 492,385.84211   L 488.05263,385.52632   L 484.05263,385.31579   L 480.10526,385.26316   L 476.15789,385.31579   L 472.15789,385.52632   L 468.21053,385.84211   L 464.26316,386.26316   L 460.31579,386.84211   L 456.42105,387.52632   L 452.52632,388.36842   L 448.68421,389.31579   L 444.84211,390.36842   L 441.05263,391.57895   L 437.31579,392.89474   L 433.63158,394.31579   L 429.94737,395.89474   L 426.36842,397.52632   L 422.78947,399.31579   L 419.31579,401.21053   L 415.89474,403.21053   L 412.52632,405.31579   L 409.21053,407.52632   L 406,409.89474   L 402.84211,412.31579   L 399.78947,414.84211   L 396.78947,417.47368   L 393.89474,420.15789   L 391.10526,423   L 388.36842,425.89474   L 385.78947,428.84211   L 383.26316,431.94737   L 380.78947,435.05263   L 378.47368,438.31579   L 376.26316,441.57895   L 374.15789,444.94737   L 372.15789,448.36842   L 370.26316,451.89474   L 368.47368,455.42105   L 366.78947,459.05263   L 365.26316,462.68421   L 363.84211,466.42105   L 362.52632,470.15789   L 361.31579,473.94737   L 360.26316,477.78947   L 359.31579,481.63158   L 358.47368,485.52632   L 357.78947,489.42105   L 357.21053,493.36842   L 356.78947,497.31579   L 356.47368,501.26316   L 356.26316,505.26316   L 356.21053,509.21053   L 356.26316,513.15789   L 356.47368,517.15789   L 356.78947,521.10526   L 357.21053,525.05263   L 357.78947,529   L 358.47368,532.89474   L 359.31579,536.78947   L 360.26316,540.63158   L 361.31579,544.47368   L 362.52632,548.26316   L 363.84211,552   L 365.26316,555.73684   L 366.78947,559.36842   L 368.47368,563   L 370.26316,566.52632   L 372.15789,570.05263   L 374.15789,573.47368   L 376.26316,576.84211   L 378.47368,580.10526   L 380.78947,583.36842   L 383.26316,586.47368   L 385.78947,589.57895   L 388.36842,592.52632   L 391.10526,595.42105   L 393.89474,598.26316   L 396.78947,600.94737   L 399.78947,603.57895   L 402.84211,606.10526   L 406,608.52632   L 409.21053,610.89474   L 412.52632,613.10526   L 415.89474,615.21053   L 419.31579,617.21053   L 422.78947,619.10526   L 426.36842,620.89474   L 429.94737,622.52632   L 433.63158,624.10526   L 437.31579,625.52632   L 441.05263,626.84211   L 444.84211,628.05263   L 448.68421,629.10526   L 452.52632,630.05263   L 456.42105,630.89474   L 460.31579,631.57895   L 464.26316,632.15789   L 468.21053,632.57895   L 472.15789,632.89474   L 476.15789,633.10526   L 480.10526,633.15789   L 484.05263,633.10526   L 488.05263,632.89474   L 492,632.57895   L 495.94737,632.15789   L 499.89474,631.57895   L 503.78947,630.89474   L 507.68421,630.05263   L 511.52632,629.10526   L 515.36842,628.05263   L 519.15789,626.84211   L 522.89474,625.52632   L 526.57895,624.10526   L 530.26316,622.52632   L 533.84211,620.89474   L 537.42105,619.10526   L 540.89474,617.21053   L 544.31579,615.21053   L 547.68421,613.10526   L 551,610.89474   L 554.21053,608.52632   L 557.36842,606.10526   L 560.42105,603.57895   L 563.42105,600.94737   L 566.31579,598.26316   L 569.10526,595.42105   L 571.84211,592.52632   L 574.42105,589.57895   L 576.94737,586.47368   L 579.42105,583.36842   L 581.73684,580.10526   L 583.94737,576.84211   L 586.05263,573.47368   L 588.05263,570.05263   L 589.94737,566.52632   L 591.73684,563   L 593.42105,559.36842   L 594.94737,555.73684   L 596.36842,552   L 597.68421,548.26316   L 598.89474,544.47368   L 599.94737,540.63158   L 600.89474,536.78947   L 601.73684,532.89474   L 602.42105,529   L 603,525.05263   L 603.42105,521.10526   L 603.73684,517.15789   L 603.94737,513.15789   L 604,509.21053  z " id="path13"/>
  <path style="fill:none;stroke:#000000;stroke-width:4px;stroke-linecap:round;stroke-linejoin:round;stroke-miterlimit:4;stroke-dasharray:none;stroke-opacity:1;" d="  M 437.78947,635.89474   L 437.73684,634.78947   L 437.52632,633.68421   L 437.26316,632.63158   L 436.84211,631.63158   L 436.31579,630.63158   L 435.73684,629.73684   L 435,628.89474   L 434.21053,628.10526   L 433.31579,627.42105   L 432.36842,626.89474   L 431.36842,626.42105   L 430.36842,626.05263   L 429.26316,625.84211   L 428.15789,625.68421   L 427.10526,625.68421   L 426,625.84211   L 424.89474,626.05263   L 423.89474,626.42105   L 422.89474,626.89474   L 421.94737,627.42105   L 421.05263,628.10526   L 420.26316,628.89474   L 419.52632,629.73684   L 418.94737,630.63158   L 418.42105,631.63158   L 418,632.63158   L 417.73684,633.68421   L 417.52632,634.78947   L 417.47368,635.89474   L 417.52632,637   L 417.73684,638.10526   L 418,639.15789   L 418.42105,640.15789   L 418.94737,641.15789   L 419.52632,642.05263   L 420.26316,642.89474   L 421.05263,643.68421   L 421.94737,644.36842   L 422.89474,644.89474   L 423.89474,645.36842   L 424.89474,645.73684   L 426,645.94737   L 427.10526,646.10526   L 428.15789,646.10526   L 429.26316,645.94737   L 430.36842,645.73684   L 431.36842,645.36842   L 432.36842,644.89474   L 433.31579,644.36842   L 434.21053,643.68421   L 435,642.89474   L 435.73684,642.05263   L 436.31579,641.15789   L 436.84211,640.15789   L 437.26316,639.15789   L 437.52632,638.10526   L 437.73684,637   L 437.78947,635.89474  z " id="path15"/>
  <path style="fill:none;stroke:#000000;stroke-width:4px;stroke-linecap:round;stroke-linejoin:round;stroke-miterlimit:4;stroke-dasharray:none;stroke-opacity:1;" d="  M 616.84211,561.68421   L 616.78947,560.57895   L 616.57895,559.47368   L 616.31579,558.42105   L 615.89474,557.42105   L 615.36842,556.42105   L 614.78947,555.52632   L 614.05263,554.68421   L 613.26316,553.89474   L 612.36842,553.21053   L 611.42105,552.68421   L 610.42105,552.21053   L 609.42105,551.84211   L 608.31579,551.63158   L 607.21053,551.47368   L 606.15789,551.47368   L 605.05263,551.63158   L 603.94737,551.84211   L 602.94737,552.21053   L 601.94737,552.68421   L 601,553.21053   L 600.10526,553.89474   L 599.31579,554.68421   L 598.57895,555.52632   L 598,556.42105   L 597.47368,557.42105   L 597.05263,558.42105   L 596.78947,559.47368   L 596.57895,560.57895   L 596.52632,561.68421   L 596.57895,562.78947   L 596.78947,563.89474   L 597.05263,564.94737   L 597.47368,565.94737   L 598,566.94737   L 598.57895,567.84211   L 599.31579,568.68421   L 600.10526,569.47368   L 601,570.15789   L 601.94737,570.68421   L 602.94737,571.15789   L 603.94737,571.52632   L 605.05263,571.73684   L 606.15789,571.89474   L 607.21053,571.89474   L 608.31579,571.73684   L 609.42105,571.52632   L 610.42105,571.15789   L 611.42105,570.68421   L 612.36842,570.15789   L 613.26316,569.47368   L 614.05263,568.68421   L 614.78947,567.84211   L 615.36842,566.94737   L 615.89474,565.94737   L 616.31579,564.94737   L 616.57895,563.89474   L 616.78947,562.78947   L 616.84211,561.68421  z " id="path17"/>
  <path style="fill:none;stroke:#000000;stroke-width:4px;stroke-linecap:round;stroke-linejoin:round;stroke-miterlimit:4;stroke-dasharray:none;stroke-opacity:1;" d="  M 542.68421,382.52632   L 542.63158,381.42105   L 542.42105,380.31579   L 542.15789,379.26316   L 541.73684,378.26316   L 541.21053,377.26316   L 540.63158,376.36842   L 539.89474,375.52632   L 539.10526,374.73684   L 538.21053,374.05263   L 537.26316,373.52632   L 536.26316,373.05263   L 535.26316,372.68421   L 534.15789,372.47368   L 533.05263,372.31579   L 532,372.31579   L 530.89474,372.47368   L 529.78947,372.68421   L 528.78947,373.05263   L 527.78947,373.52632   L 526.84211,374.05263   L 525.94737,374.73684   L 525.15789,375.52632   L 524.42105,376.36842   L 523.84211,377.26316   L 523.31579,378.26316   L 522.89474,379.26316   L 522.63158,380.31579   L 522.42105,381.42105   L 522.36842,382.52632   L 522.42105,383.63158   L 522.63158,384.73684   L 522.89474,385.78947   L 523.31579,386.78947   L 523.84211,387.78947   L 524.42105,388.68421   L 525.15789,389.52632   L 525.94737,390.31579   L 526.84211,391   L 527.78947,391.52632   L 528.78947,392   L 529.78947,392.36842   L 530.89474,392.57895   L 532,392.73684   L 533.05263,392.73684   L 534.15789,392.57895   L 535.26316,392.36842   L 536.26316,392   L 537.26316,391.52632   L 538.21053,391   L 539.10526,390.31579   L 539.89474,389.52632   L 540.63158,388.68421   L 541.21053,387.78947   L 541.73684,386.78947   L 542.15789,385.78947   L 542.42105,384.73684   L 542.63158,383.63158   L 542.68421,382.52632  z " id="path19"/>
  <path style="fill:none;stroke:#000000;stroke-width:4px;stroke-linecap:round;stroke-linejoin:round;stroke-miterlimit:4;stroke-dasharray:none;stroke-opacity:1;" d="  M 363.63158,456.73684   L 363.57895,455.63158   L 363.36842,454.52632   L 363.10526,453.47368   L 362.68421,452.47368   L 362.15789,451.47368   L 361.57895,450.57895   L 360.84211,449.73684   L 360.05263,448.94737   L 359.15789,448.26316   L 358.21053,447.73684   L 357.21053,447.26316   L 356.21053,446.89474   L 355.10526,446.68421   L 354,446.52632   L 352.94737,446.52632   L 351.84211,446.68421   L 350.73684,446.89474   L 349.73684,447.26316   L 348.73684,447.73684   L 347.78947,448.26316   L 346.89474,448.94737   L 346.10526,449.73684   L 345.36842,450.57895   L 344.78947,451.47368   L 344.26316,452.47368   L 343.84211,453.47368   L 343.57895,454.52632   L 343.36842,455.63158   L 343.31579,456.73684   L 343.36842,457.84211   L 343.57895,458.94737   L 343.84211,460   L 344.26316,461   L 344.78947,462   L 345.36842,462.89474   L 346.10526,463.73684   L 346.89474,464.52632   L 347.78947,465.21053   L 348.73684,465.73684   L 349.73684,466.21053   L 350.73684,466.57895   L 351.84211,466.78947   L 352.94737,466.94737   L 354,466.94737   L 355.10526,466.78947   L 356.21053,466.57895   L 357.21053,466.21053   L 358.21053,465.73684   L 359.15789,465.21053   L 360.05263,464.52632   L 360.84211,463.73684   L 361.57895,462.89474   L 362.15789,462   L 362.68421,461   L 363.10526,460   L 363.36842,458.94737   L 363.57895,457.84211   L 363.63158,456.73684  z " id="path21"/>
  <path style="fill:none;stroke:#000000;stroke-width:4px;stroke-linecap:round;stroke-linejoin:round;stroke-miterlimit:4;stroke-dasharray:none;stroke-opacity:1;" d="  M 637.52632,509.21053   L 637.47368,504.73684   L 637.26316,500.21053   L 636.94737,495.73684   L 636.52632,491.26316   L 635.94737,486.78947   L 635.21053,482.36842   L 634.36842,477.94737   L 633.42105,473.52632   L 632.36842,469.15789   L 631.15789,464.84211   L 629.84211,460.52632   L 628.36842,456.26316   L 626.78947,452.05263   L 625.10526,447.89474   L 623.31579,443.78947   L 621.36842,439.68421   L 619.31579,435.68421   L 617.15789,431.73684   L 614.89474,427.84211   L 612.52632,424.05263   L 610.05263,420.31579   L 607.47368,416.63158   L 604.78947,413   L 601.94737,409.47368   L 599.05263,406.05263   L 596.10526,402.68421   L 593,399.42105   L 589.84211,396.26316   L 586.52632,393.15789   L 583.21053,390.15789   L 579.73684,387.26316   L 576.21053,384.47368   L 572.63158,381.78947   L 568.94737,379.15789   L 565.21053,376.68421   L 561.42105,374.31579   L 557.52632,372.05263   L 553.57895,369.89474   L 549.57895,367.84211   L 545.52632,365.89474   L 541.36842,364.10526   L 537.21053,362.42105   L 533,360.84211   L 528.73684,359.36842   L 524.47368,358.05263   L 520.10526,356.84211   L 515.73684,355.78947   L 511.36842,354.84211   L 506.94737,354   L 502.52632,353.26316   L 498.05263,352.73684   L 493.57895,352.26316   L 489.10526,351.94737   L 484.57895,351.73684   L 480.10526,351.68421   L 475.63158,351.73684   L 471.10526,351.94737   L 466.63158,352.26316   L 462.15789,352.73684   L 457.68421,353.26316   L 453.26316,354   L 448.84211,354.84211   L 444.47368,355.78947   L 440.10526,356.84211   L 435.73684,358.05263   L 431.47368,359.36842   L 427.21053,360.84211   L 423,362.42105   L 418.84211,364.10526   L 414.68421,365.89474   L 410.63158,367.84211   L 406.63158,369.89474   L 402.68421,372.05263   L 398.78947,374.31579   L 395,376.68421   L 391.26316,379.15789   L 387.57895,381.78947   L 384,384.47368   L 380.47368,387.26316   L 377,390.15789   L 373.68421,393.15789   L 370.36842,396.26316   L 367.21053,399.42105   L 364.10526,402.68421   L 361.15789,406.05263   L 358.26316,409.47368   L 355.42105,413   L 352.73684,416.63158   L 350.15789,420.31579   L 347.68421,424.05263   L 345.31579,427.84211   L 343.05263,431.73684   L 340.89474,435.68421   L 338.84211,439.68421   L 336.89474,443.78947   L 335.10526,447.89474   L 333.42105,452.05263   L 331.84211,456.26316   L 330.36842,460.52632   L 329.05263,464.84211   L 327.84211,469.15789   L 326.78947,473.52632   L 325.84211,477.94737   L 325,482.36842   L 324.26316,486.78947   L 323.68421,491.26316   L 323.26316,495.73684   L 322.94737,500.21053   L 322.73684,504.73684   L 322.68421,509.21053   L 322.73684,513.68421   L 322.94737,518.21053   L 323.26316,522.68421   L 323.68421,527.15789   L 324.26316,531.63158   L 325,536.05263   L 325.84211,540.47368   L 326.78947,544.89474   L 327.84211,549.26316   L 329.05263,553.57895   L 330.36842,557.89474   L 331.84211,562.15789   L 333.42105,566.36842   L 335.10526,570.52632   L 336.89474,574.63158   L 338.84211,578.73684   L 340.89474,582.73684   L 343.05263,586.68421   L 345.31579,590.57895   L 347.68421,594.36842   L 350.15789,598.10526   L 352.73684,601.78947   L 355.42105,605.42105   L 358.26316,608.94737   L 361.15789,612.36842   L 364.10526,615.73684   L 367.21053,619   L 370.36842,622.15789   L 373.68421,625.26316   L 377,628.26316   L 380.47368,631.15789   L 384,633.94737   L 387.57895,636.63158   L 391.26316,639.26316   L 395,641.73684   L 398.78947,644.10526   L 402.68421,646.36842   L 406.63158,648.52632   L 410.63158,650.57895   L 414.68421,652.52632   L 418.84211,654.31579   L 423,656   L 427.21053,657.57895   L 431.47368,659.05263   L 435.73684,660.36842   L 440.10526,661.57895   L 444.47368,662.63158   L 448.84211,663.57895   L 453.26316,664.42105   L 457.68421,665.15789   L 462.15789,665.68421   L 466.63158,666.15789   L 471.10526,666.47368   L 475.63158,666.68421   L 480.10526,666.73684   L 484.57895,666.68421   L 489.10526,666.47368   L 493.57895,666.15789   L 498.05263,665.68421   L 502.52632,665.15789   L 506.94737,664.42105   L 511.36842,663.57895   L 515.73684,662.63158   L 520.10526,661.57895   L 524.47368,660.36842   L 528.73684,659.05263   L 533,657.57895   L 537.21053,656   L 541.36842,654.31579   L 545.52632,652.52632   L 549.57895,650.57895   L 553.57895,648.52632   L 557.52632,646.36842   L 561.42105,644.10526   L 565.21053,641.73684   L 568.94737,639.26316   L 572.63158,636.63158   L 576.21053,633.94737   L 579.73684,631.15789   L 583.21053,628.26316   L 586.52632,625.26316   L 589.84211,622.15789   L 593,619   L 596.10526,615.73684   L 599.05263,612.36842   L 601.94737,608.94737   L 604.78947,605.42105   L 607.47368,601.78947   L 610.05263,598.10526   L 612.52632,594.36842   L 614.89474,590.57895   L 617.15789,586.68421   L 619.31579,582.73684   L 621.36842,578.73684   L 623.31579,574.63158   L 625.10526,570.52632   L 626.78947,566.36842   L 628.36842,562.15789   L 629.84211,557.89474   L 631.15789,553.57895   L 632.36842,549.26316   L 633.42105,544.89474   L 634.36842,540.47368   L 635.21053,536.05263   L 635.94737,531.63158   L 636.52632,527.15789   L 636.94737,522.68421   L 637.26316,518.21053   L 637.47368,513.68421   L 637.52632,509.21053  z " id="path23"/>
  <path style="fill:none;stroke:#000000;stroke-width:4px;stroke-linecap:round;stroke-linejoin:round;stroke-miterlimit:4;stroke-dasharray:none;stroke-opacity:1;" d="  M 363.63158,561.68421   L 363.57895,560.57895   L 363.36842,559.47368   L 363.10526,558.42105   L 362.68421,557.42105   L 362.15789,556.42105   L 361.57895,555.52632   L 360.84211,554.68421   L 360.05263,553.89474   L 359.15789,553.21053   L 358.21053,552.68421   L 357.21053,552.21053   L 356.21053,551.84211   L 355.10526,551.63158   L 354,551.47368   L 352.94737,551.47368   L 351.84211,551.63158   L 350.73684,551.84211   L 349.73684,552.21053   L 348.73684,552.68421   L 347.78947,553.21053   L 346.89474,553.89474   L 346.10526,554.68421   L 345.36842,555.52632   L 344.78947,556.42105   L 344.26316,557.42105   L 343.84211,558.42105   L 343.57895,559.47368   L 343.36842,560.57895   L 343.31579,561.68421   L 343.36842,562.78947   L 343.57895,563.89474   L 343.84211,564.94737   L 344.26316,565.94737   L 344.78947,566.94737   L 345.36842,567.84211   L 346.10526,568.68421   L 346.89474,569.47368   L 347.78947,570.15789   L 348.73684,570.68421   L 349.73684,571.15789   L 350.73684,571.52632   L 351.84211,571.73684   L 352.94737,571.89474   L 354,571.89474   L 355.10526,571.73684   L 356.21053,571.52632   L 357.21053,571.15789   L 358.21053,570.68421   L 359.15789,570.15789   L 360.05263,569.47368   L 360.84211,568.68421   L 361.57895,567.84211   L 362.15789,566.94737   L 362.68421,565.94737   L 363.10526,564.94737   L 363.36842,563.89474   L 363.57895,562.78947   L 363.63158,561.68421  z " id="path25"/>
  <path style="fill:none;stroke:#000000;stroke-width:4px;stroke-linecap:round;stroke-linejoin:round;stroke-miterlimit:4;stroke-dasharray:none;stroke-opacity:1;" d="  M 437.78947,382.52632   L 437.73684,381.42105   L 437.52632,380.31579   L 437.26316,379.26316   L 436.84211,378.26316   L 436.31579,377.26316   L 435.73684,376.36842   L 435,375.52632   L 434.21053,374.73684   L 433.31579,374.05263   L 432.36842,373.52632   L 431.36842,373.05263   L 430.36842,372.68421   L 429.26316,372.47368   L 428.15789,372.31579   L 427.10526,372.31579   L 426,372.47368   L 424.89474,372.68421   L 423.89474,373.05263   L 422.89474,373.52632   L 421.94737,374.05263   L 421.05263,374.73684   L 420.26316,375.52632   L 419.52632,376.36842   L 418.94737,377.26316   L 418.42105,378.26316   L 418,379.26316   L 417.73684,380.31579   L 417.52632,381.42105   L 417.47368,382.52632   L 417.52632,383.63158   L 417.73684,384.73684   L 418,385.78947   L 418.42105,386.78947   L 418.94737,387.78947   L 419.52632,388.68421   L 420.26316,389.52632   L 421.05263,390.31579   L 421.94737,391   L 422.89474,391.52632   L 423.89474,392   L 424.89474,392.36842   L 426,392.57895   L 427.10526,392.73684   L 428.15789,392.73684   L 429.26316,392.57895   L 430.36842,392.36842   L 431.36842,392   L 432.36842,391.52632   L 433.31579,391   L 434.21053,390.31579   L 435,389.52632   L 435.73684,388.68421   L 436.31579,387.78947   L 436.84211,386.78947   L 437.26316,385.78947   L 437.52632,384.73684   L 437.73684,383.63158   L 437.78947,382.52632  z " id="path27"/>
  <path style="fill:none;stroke:#000000;stroke-width:4px;stroke-linecap:round;stroke-linejoin:round;stroke-miterlimit:4;stroke-dasharray:none;stroke-opacity:1;" d="  M 616.84211,456.73684   L 616.78947,455.63158   L 616.57895,454.52632   L 616.31579,453.47368   L 615.89474,452.47368   L 615.36842,451.47368   L 614.78947,450.57895   L 614.05263,449.73684   L 613.26316,448.94737   L 612.36842,448.26316   L 611.42105,447.73684   L 610.42105,447.26316   L 609.42105,446.89474   L 608.31579,446.68421   L 607.21053,446.52632   L 606.15789,446.52632   L 605.05263,446.68421   L 603.94737,446.89474   L 602.94737,447.26316   L 601.94737,447.73684   L 601,448.26316   L 600.10526,448.94737   L 599.31579,449.73684   L 598.57895,450.57895   L 598,451.47368   L 597.47368,452.47368   L 597.05263,453.47368   L 596.78947,454.52632   L 596.57895,455.63158   L 596.52632,456.73684   L 596.57895,457.84211   L 596.78947,458.94737   L 597.05263,460   L 597.47368,461   L 598,462   L 598.57895,462.89474   L 599.31579,463.73684   L 600.10526,464.52632   L 601,465.21053   L 601.94737,465.73684   L 602.94737,466.21053   L 603.94737,466.57895   L 605.05263,466.78947   L 606.15789,466.94737   L 607.21053,466.94737   L 608.31579,466.78947   L 609.42105,466.57895   L 610.42105,466.21053   L 611.42105,465.73684   L 612.36842,465.21053   L 613.26316,464.52632   L 614.05263,463.73684   L 614.78947,462.89474   L 615.36842,462   L 615.89474,461   L 616.31579,460   L 616.57895,458.94737   L 616.78947,457.84211   L 616.84211,456.73684  z " id="path29"/>
  <path style="fill:none;stroke:#000000;stroke-width:4px;stroke-linecap:round;stroke-linejoin:round;stroke-miterlimit:4;stroke-dasharray:none;stroke-opacity:1;" d="  M 542.68421,635.89474   L 542.63158,634.78947   L 542.42105,633.68421   L 542.15789,632.63158   L 541.73684,631.63158   L 541.21053,630.63158   L 540.63158,629.73684   L 539.89474,628.89474   L 539.10526,628.10526   L 538.21053,627.42105   L 537.26316,626.89474   L 536.26316,626.42105   L 535.26316,626.05263   L 534.15789,625.84211   L 533.05263,625.68421   L 532,625.68421   L 530.89474,625.84211   L 529.78947,626.05263   L 528.78947,626.42105   L 527.78947,626.89474   L 526.84211,627.42105   L 525.94737,628.10526   L 525.15789,628.89474   L 524.42105,629.73684   L 523.84211,630.63158   L 523.31579,631.63158   L 522.89474,632.63158   L 522.63158,633.68421   L 522.42105,634.78947   L 522.36842,635.89474   L 522.42105,637   L 522.63158,638.10526   L 522.89474,639.15789   L 523.31579,640.15789   L 523.84211,641.15789   L 524.42105,642.05263   L 525.15789,642.89474   L 525.94737,643.68421   L 526.84211,644.36842   L 527.78947,644.89474   L 528.78947,645.36842   L 529.78947,645.73684   L 530.89474,645.94737   L 532,646.10526   L 533.05263,646.10526   L 534.15789,645.94737   L 535.26316,645.73684   L 536.26316,645.36842   L 537.26316,644.89474   L 538.21053,644.36842   L 539.10526,643.68421   L 539.89474,642.89474   L 540.63158,642.05263   L 541.21053,641.15789   L 541.73684,640.15789   L 542.15789,639.15789   L 542.42105,638.10526   L 542.63158,637   L 542.68421,635.89474  z " id="path31"/>
  <path style="fill:none;stroke:#000000;stroke-width:4px;stroke-linecap:round;stroke-linejoin:round;stroke-miterlimit:4;stroke-dasharray:none;stroke-opacity:1;" d="  M 450.94737,629.68421   L 450.94737,633.15789  " id="path33"/>
  <path style="fill:none;stroke:#000000;stroke-width:4px;stroke-linecap:round;stroke-linejoin:round;stroke-miterlimit:4;stroke-dasharray:none;stroke-opacity:1;" d="  M 509.26316,633.15789   L 509.26316,629.68421  " id="path35"/>
  <path style="fill:none;stroke:#000000;stroke-width:4px;stroke-linecap:round;stroke-linejoin:round;stroke-miterlimit:4;stroke-dasharray:none;stroke-opacity:1;" d="  M 509.26316,633.15789   L 450.94737,633.15789  " id="path37"/>
</svg>