<svg xmlns:inkscape="http://www.inkscape.org/namespaces/inkscape" xmlns:sodipodi="http://sodipodi.sourceforge.net/DTD/sodipodi-0.dtd" xmlns="http://www.w3.org/2000/svg" xmlns:svg="http://www.w3.org/2000/svg" version="1.0" id="svg43" sodipodi:docname="flange_head-5L.wmf" viewBox="418.71 286.34 315.95 316.16">
  <sodipodi:namedview id="namedview45" pagecolor="#ffffff" bordercolor="#000000" borderopacity="0.25" inkscape:showpageshadow="2" inkscape:pageopacity="0.0" inkscape:pagecheckerboard="0" inkscape:deskcolor="#d1d1d1" inkscape:document-units="mm"/>
  <defs id="defs3">
    <pattern id="WMFhbasepattern" patternUnits="userSpaceOnUse" width="6" height="6" x="0" y="0"/>
  </defs>
  <path style="fill:none;stroke:#000000;stroke-width:4px;stroke-linecap:round;stroke-linejoin:round;stroke-miterlimit:4;stroke-dasharray:none;stroke-opacity:1;" d="  M 583.78947,331.42105   L 583.73684,330.47368   L 583.52632,329.57895   L 583.26316,328.68421   L 582.84211,327.84211   L 582.31579,327.10526   L 581.68421,326.42105   L 581,325.78947   L 580.26316,325.26316   L 579.42105,324.84211   L 578.52632,324.57895   L 577.63158,324.36842   L 576.68421,324.31579   L 575.73684,324.36842   L 574.84211,324.57895   L 573.94737,324.84211   L 573.15789,325.26316   L 572.36842,325.78947   L 571.68421,326.42105   L 571.05263,327.10526   L 570.52632,327.84211   L 570.10526,328.68421   L 569.84211,329.57895   L 569.63158,330.47368   L 569.57895,331.42105   L 569.63158,332.36842   L 569.84211,333.26316   L 570.10526,334.15789   L 570.52632,334.94737   L 571.05263,335.73684   L 571.68421,336.42105   L 572.36842,337.05263   L 573.15789,337.57895   L 573.94737,338   L 574.84211,338.26316   L 575.73684,338.47368   L 576.68421,338.52632   L 577.63158,338.47368   L 578.52632,338.26316   L 579.42105,338   L 580.26316,337.57895   L 581,337.05263   L 581.68421,336.42105   L 582.31579,335.73684   L 582.84211,334.94737   L 583.26316,334.15789   L 583.52632,333.26316   L 583.73684,332.36842   L 583.78947,331.42105  z " id="path5"/>
  <path style="fill:none;stroke:#000000;stroke-width:4px;stroke-linecap:round;stroke-linejoin:round;stroke-miterlimit:4;stroke-dasharray:none;stroke-opacity:1;" d="  M 470.84211,444.42105   L 470.78947,443.47368   L 470.57895,442.57895   L 470.31579,441.68421   L 469.89474,440.84211   L 469.36842,440.10526   L 468.73684,439.42105   L 468.05263,438.78947   L 467.31579,438.26316   L 466.47368,437.84211   L 465.57895,437.57895   L 464.68421,437.36842   L 463.73684,437.31579   L 462.78947,437.36842   L 461.89474,437.57895   L 461,437.84211   L 460.21053,438.26316   L 459.42105,438.78947   L 458.73684,439.42105   L 458.10526,440.10526   L 457.57895,440.84211   L 457.15789,441.68421   L 456.89474,442.57895   L 456.68421,443.47368   L 456.63158,444.42105   L 456.68421,445.36842   L 456.89474,446.26316   L 457.15789,447.15789   L 457.57895,447.94737   L 458.10526,448.73684   L 458.73684,449.42105   L 459.42105,450.05263   L 460.21053,450.57895   L 461,451   L 461.89474,451.26316   L 462.78947,451.47368   L 463.73684,451.52632   L 464.68421,451.47368   L 465.57895,451.26316   L 466.47368,451   L 467.31579,450.57895   L 468.05263,450.05263   L 468.73684,449.42105   L 469.36842,448.73684   L 469.89474,447.94737   L 470.31579,447.15789   L 470.57895,446.26316   L 470.78947,445.36842   L 470.84211,444.42105  z " id="path7"/>
  <path style="fill:none;stroke:#000000;stroke-width:4px;stroke-linecap:round;stroke-linejoin:round;stroke-miterlimit:4;stroke-dasharray:none;stroke-opacity:1;" d="  M 583.78947,557.42105   L 583.73684,556.47368   L 583.52632,555.57895   L 583.26316,554.68421   L 582.84211,553.84211   L 582.31579,553.10526   L 581.68421,552.42105   L 581,551.78947   L 580.26316,551.26316   L 579.42105,550.84211   L 578.52632,550.57895   L 577.63158,550.36842   L 576.68421,550.31579   L 575.73684,550.36842   L 574.84211,550.57895   L 573.94737,550.84211   L 573.15789,551.26316   L 572.36842,551.78947   L 571.68421,552.42105   L 571.05263,553.10526   L 570.52632,553.84211   L 570.10526,554.68421   L 569.84211,555.57895   L 569.63158,556.47368   L 569.57895,557.42105   L 569.63158,558.36842   L 569.84211,559.26316   L 570.10526,560.15789   L 570.52632,560.94737   L 571.05263,561.73684   L 571.68421,562.42105   L 572.36842,563.05263   L 573.15789,563.57895   L 573.94737,564   L 574.84211,564.26316   L 575.73684,564.47368   L 576.68421,564.52632   L 577.63158,564.47368   L 578.52632,564.26316   L 579.42105,564   L 580.26316,563.57895   L 581,563.05263   L 581.68421,562.42105   L 582.31579,561.73684   L 582.84211,560.94737   L 583.26316,560.15789   L 583.52632,559.26316   L 583.73684,558.36842   L 583.78947,557.42105  z " id="path9"/>
  <path style="fill:none;stroke:#000000;stroke-width:4px;stroke-linecap:round;stroke-linejoin:round;stroke-miterlimit:4;stroke-dasharray:none;stroke-opacity:1;" d="  M 696.73684,444.42105   L 696.68421,443.47368   L 696.47368,442.57895   L 696.21053,441.68421   L 695.78947,440.84211   L 695.26316,440.10526   L 694.63158,439.42105   L 693.94737,438.78947   L 693.21053,438.26316   L 692.36842,437.84211   L 691.47368,437.57895   L 690.57895,437.36842   L 689.63158,437.31579   L 688.68421,437.36842   L 687.78947,437.57895   L 686.89474,437.84211   L 686.10526,438.26316   L 685.31579,438.78947   L 684.63158,439.42105   L 684,440.10526   L 683.47368,440.84211   L 683.05263,441.68421   L 682.78947,442.57895   L 682.57895,443.47368   L 682.52632,444.42105   L 682.57895,445.36842   L 682.78947,446.26316   L 683.05263,447.15789   L 683.47368,447.94737   L 684,448.73684   L 684.63158,449.42105   L 685.31579,450.05263   L 686.10526,450.57895   L 686.89474,451   L 687.78947,451.26316   L 688.68421,451.47368   L 689.63158,451.52632   L 690.57895,451.47368   L 691.47368,451.26316   L 692.36842,451   L 693.21053,450.57895   L 693.94737,450.05263   L 694.63158,449.42105   L 695.26316,448.73684   L 695.78947,447.94737   L 696.21053,447.15789   L 696.47368,446.26316   L 696.68421,445.36842   L 696.73684,444.42105  z " id="path11"/>
  <path style="fill:none;stroke:#000000;stroke-width:4px;stroke-linecap:round;stroke-linejoin:round;stroke-miterlimit:4;stroke-dasharray:none;stroke-opacity:1;" d="  M 699.10526,444.42105   L 699.05263,440.47368   L 698.84211,436.47368   L 698.52632,432.52632   L 698.10526,428.57895   L 697.52632,424.68421   L 696.78947,420.78947   L 695.94737,416.89474   L 695,413.05263   L 693.94737,409.21053   L 692.73684,405.42105   L 691.42105,401.68421   L 690,398   L 688.42105,394.36842   L 686.73684,390.78947   L 684.94737,387.21053   L 683.05263,383.73684   L 681,380.36842   L 678.89474,377   L 676.63158,373.73684   L 674.31579,370.52632   L 671.84211,367.42105   L 669.31579,364.36842   L 666.68421,361.42105   L 663.94737,358.52632   L 661.10526,355.73684   L 658.21053,353.05263   L 655.21053,350.47368   L 652.10526,347.94737   L 648.94737,345.57895   L 645.73684,343.26316   L 642.42105,341.10526   L 639.05263,339   L 635.57895,337.05263   L 632.10526,335.21053   L 628.52632,333.47368   L 624.89474,331.84211   L 621.21053,330.36842   L 617.52632,328.94737   L 613.73684,327.68421   L 609.94737,326.57895   L 606.10526,325.52632   L 602.26316,324.63158   L 598.36842,323.89474   L 594.47368,323.26316   L 590.52632,322.73684   L 586.57895,322.36842   L 582.63158,322.10526   L 578.68421,321.94737   L 574.68421,321.94737   L 570.73684,322.10526   L 566.78947,322.36842   L 562.84211,322.73684   L 558.89474,323.26316   L 555,323.89474   L 551.10526,324.63158   L 547.26316,325.52632   L 543.42105,326.57895   L 539.63158,327.68421   L 535.84211,328.94737   L 532.15789,330.36842   L 528.47368,331.84211   L 524.84211,333.47368   L 521.26316,335.21053   L 517.78947,337.05263   L 514.31579,339   L 510.94737,341.10526   L 507.63158,343.26316   L 504.42105,345.57895   L 501.26316,347.94737   L 498.15789,350.47368   L 495.15789,353.05263   L 492.26316,355.73684   L 489.42105,358.52632   L 486.68421,361.42105   L 484.05263,364.36842   L 481.52632,367.42105   L 479.05263,370.52632   L 476.73684,373.73684   L 474.47368,377   L 472.36842,380.36842   L 470.31579,383.73684   L 468.42105,387.21053   L 466.63158,390.78947   L 464.94737,394.36842   L 463.36842,398   L 461.94737,401.68421   L 460.63158,405.42105   L 459.42105,409.21053   L 458.36842,413.05263   L 457.42105,416.89474   L 456.57895,420.78947   L 455.84211,424.68421   L 455.26316,428.57895   L 454.84211,432.52632   L 454.52632,436.47368   L 454.31579,440.47368   L 454.26316,444.42105   L 454.31579,448.36842   L 454.52632,452.36842   L 454.84211,456.31579   L 455.26316,460.26316   L 455.84211,464.15789   L 456.57895,468.05263   L 457.42105,471.94737   L 458.36842,475.78947   L 459.42105,479.63158   L 460.63158,483.42105   L 461.94737,487.15789   L 463.36842,490.84211   L 464.94737,494.47368   L 466.63158,498.05263   L 468.42105,501.63158   L 470.31579,505.10526   L 472.36842,508.47368   L 474.47368,511.84211   L 476.73684,515.10526   L 479.05263,518.31579   L 481.52632,521.42105   L 484.05263,524.47368   L 486.68421,527.42105   L 489.42105,530.31579   L 492.26316,533.10526   L 495.15789,535.78947   L 498.15789,538.36842   L 501.26316,540.89474   L 504.42105,543.26316   L 507.63158,545.57895   L 510.94737,547.73684   L 514.31579,549.84211   L 517.78947,551.78947   L 521.26316,553.63158   L 524.84211,555.36842   L 528.47368,557   L 532.15789,558.47368   L 535.84211,559.89474   L 539.63158,561.15789   L 543.42105,562.26316   L 547.26316,563.31579   L 551.10526,564.21053   L 555,564.94737   L 558.89474,565.57895   L 562.84211,566.10526   L 566.78947,566.47368   L 570.73684,566.73684   L 574.68421,566.89474   L 578.68421,566.89474   L 582.63158,566.73684   L 586.57895,566.47368   L 590.52632,566.10526   L 594.47368,565.57895   L 598.36842,564.94737   L 602.26316,564.21053   L 606.10526,563.31579   L 609.94737,562.26316   L 613.73684,561.15789   L 617.52632,559.89474   L 621.21053,558.47368   L 624.89474,557   L 628.52632,555.36842   L 632.10526,553.63158   L 635.57895,551.78947   L 639.05263,549.84211   L 642.42105,547.73684   L 645.73684,545.57895   L 648.94737,543.26316   L 652.10526,540.89474   L 655.21053,538.36842   L 658.21053,535.78947   L 661.10526,533.10526   L 663.94737,530.31579   L 666.68421,527.42105   L 669.31579,524.47368   L 671.84211,521.42105   L 674.31579,518.31579   L 676.63158,515.10526   L 678.89474,511.84211   L 681,508.47368   L 683.05263,505.10526   L 684.94737,501.63158   L 686.73684,498.05263   L 688.42105,494.47368   L 690,490.84211   L 691.42105,487.15789   L 692.73684,483.42105   L 693.94737,479.63158   L 695,475.78947   L 695.94737,471.94737   L 696.78947,468.05263   L 697.52632,464.15789   L 698.10526,460.26316   L 698.52632,456.31579   L 698.84211,452.36842   L 699.05263,448.36842   L 699.10526,444.42105  z " id="path13"/>
  <path style="fill:none;stroke:#000000;stroke-width:4px;stroke-linecap:round;stroke-linejoin:round;stroke-miterlimit:4;stroke-dasharray:none;stroke-opacity:1;" d="  M 495.52632,539.42105   L 495.36842,537.21053   L 495.05263,535.73684  " id="path15"/>
  <path style="fill:none;stroke:#000000;stroke-width:4px;stroke-linecap:round;stroke-linejoin:round;stroke-miterlimit:4;stroke-dasharray:none;stroke-opacity:1;" d="  M 495.05263,353.15789   L 495.36842,351.63158   L 495.52632,349.42105  " id="path17"/>
  <path style="fill:none;stroke:#000000;stroke-width:4px;stroke-linecap:round;stroke-linejoin:round;stroke-miterlimit:4;stroke-dasharray:none;stroke-opacity:1;" d="  M 734.63158,444.42105   L 734.57895,439.89474   L 734.36842,435.42105   L 734.05263,430.89474   L 733.57895,426.42105   L 733,421.94737   L 732.31579,417.47368   L 731.47368,413.05263   L 730.52632,408.63158   L 729.42105,404.26316   L 728.21053,399.89474   L 726.89474,395.57895   L 725.42105,391.31579   L 723.89474,387.05263   L 722.15789,382.89474   L 720.36842,378.78947   L 718.42105,374.68421   L 716.36842,370.68421   L 714.21053,366.68421   L 711.94737,362.78947   L 709.57895,358.94737   L 707.05263,355.21053   L 704.47368,351.52632   L 701.73684,347.89474   L 698.94737,344.36842   L 696.05263,340.89474   L 693.05263,337.52632   L 689.94737,334.26316   L 686.78947,331.05263   L 683.47368,328   L 680.10526,324.94737   L 676.68421,322.05263   L 673.15789,319.26316   L 669.52632,316.57895   L 665.84211,313.94737   L 662.05263,311.47368   L 658.26316,309.05263   L 654.36842,306.78947   L 650.36842,304.63158   L 646.36842,302.57895   L 642.31579,300.63158   L 638.15789,298.84211   L 634,297.15789   L 629.73684,295.57895   L 625.47368,294.10526   L 621.15789,292.78947   L 616.84211,291.57895   L 612.47368,290.47368   L 608.05263,289.52632   L 603.63158,288.68421   L 599.15789,288   L 594.68421,287.42105   L 590.21053,286.94737   L 585.68421,286.63158   L 581.21053,286.42105   L 576.68421,286.36842   L 572.15789,286.42105   L 567.68421,286.63158   L 563.15789,286.94737   L 558.68421,287.42105   L 554.21053,288   L 549.73684,288.68421   L 545.31579,289.52632   L 540.89474,290.47368   L 536.52632,291.57895   L 532.21053,292.78947   L 527.89474,294.10526   L 523.63158,295.57895   L 519.36842,297.15789   L 515.21053,298.84211   L 511.05263,300.63158   L 507,302.57895   L 503,304.63158   L 499,306.78947   L 495.10526,309.05263   L 491.31579,311.47368   L 487.52632,313.94737   L 483.84211,316.57895   L 480.21053,319.26316   L 476.68421,322.05263   L 473.26316,324.94737   L 469.89474,328   L 466.57895,331.05263   L 463.42105,334.26316   L 460.31579,337.52632   L 457.31579,340.89474   L 454.42105,344.36842   L 451.63158,347.89474   L 448.89474,351.52632   L 446.31579,355.21053   L 443.78947,358.94737   L 441.42105,362.78947   L 439.15789,366.68421   L 437,370.68421   L 434.94737,374.68421   L 433,378.78947   L 431.21053,382.89474   L 429.47368,387.05263   L 427.94737,391.31579   L 426.47368,395.57895   L 425.15789,399.89474   L 423.94737,404.26316   L 422.84211,408.63158   L 421.89474,413.05263   L 421.05263,417.47368   L 420.36842,421.94737   L 419.78947,426.42105   L 419.31579,430.89474   L 419,435.42105   L 418.78947,439.89474   L 418.73684,444.42105   L 418.78947,448.94737   L 419,453.42105   L 419.31579,457.94737   L 419.78947,462.42105   L 420.36842,466.89474   L 421.05263,471.36842   L 421.89474,475.78947   L 422.84211,480.21053   L 423.94737,484.57895   L 425.15789,488.94737   L 426.47368,493.26316   L 427.94737,497.52632   L 429.47368,501.78947   L 431.21053,505.94737   L 433,510.05263   L 434.94737,514.15789   L 437,518.15789   L 439.15789,522.15789   L 441.42105,526.05263   L 443.78947,529.89474   L 446.31579,533.63158   L 448.89474,537.31579   L 451.63158,540.94737   L 454.42105,544.47368   L 457.31579,547.94737   L 460.31579,551.31579   L 463.42105,554.57895   L 466.57895,557.78947   L 469.89474,560.84211   L 473.26316,563.89474   L 476.68421,566.78947   L 480.21053,569.57895   L 483.84211,572.26316   L 487.52632,574.89474   L 491.31579,577.36842   L 495.10526,579.78947   L 499,582.05263   L 503,584.21053   L 507,586.26316   L 511.05263,588.21053   L 515.21053,590   L 519.36842,591.68421   L 523.63158,593.26316   L 527.89474,594.73684   L 532.21053,596.05263   L 536.52632,597.26316   L 540.89474,598.36842   L 545.31579,599.31579   L 549.73684,600.15789   L 554.21053,600.84211   L 558.68421,601.42105   L 563.15789,601.89474   L 567.68421,602.21053   L 572.15789,602.42105   L 576.68421,602.47368   L 581.21053,602.42105   L 585.68421,602.21053   L 590.21053,601.89474   L 594.68421,601.42105   L 599.15789,600.84211   L 603.63158,600.15789   L 608.05263,599.31579   L 612.47368,598.36842   L 616.84211,597.26316   L 621.15789,596.05263   L 625.47368,594.73684   L 629.73684,593.26316   L 634,591.68421   L 638.15789,590   L 642.31579,588.21053   L 646.36842,586.26316   L 650.36842,584.21053   L 654.36842,582.05263   L 658.26316,579.78947   L 662.05263,577.36842   L 665.84211,574.89474   L 669.52632,572.26316   L 673.15789,569.57895   L 676.68421,566.78947   L 680.10526,563.89474   L 683.47368,560.84211   L 686.78947,557.78947   L 689.94737,554.57895   L 693.05263,551.31579   L 696.05263,547.94737   L 698.94737,544.47368   L 701.73684,540.94737   L 704.47368,537.31579   L 707.05263,533.63158   L 709.57895,529.89474   L 711.94737,526.05263   L 714.21053,522.15789   L 716.36842,518.15789   L 718.42105,514.15789   L 720.36842,510.05263   L 722.15789,505.94737   L 723.89474,501.78947   L 725.42105,497.52632   L 726.89474,493.26316   L 728.21053,488.94737   L 729.42105,484.57895   L 730.52632,480.21053   L 731.47368,475.78947   L 732.31579,471.36842   L 733,466.89474   L 733.57895,462.42105   L 734.05263,457.94737   L 734.36842,453.42105   L 734.57895,448.94737   L 734.63158,444.42105  z " id="path19"/>
  <path style="fill:none;stroke:#000000;stroke-width:4px;stroke-linecap:round;stroke-linejoin:round;stroke-miterlimit:4;stroke-dasharray:none;stroke-opacity:1;" d="  M 537.15789,560.36842   L 537.15789,566.94737  " id="path21"/>
  <path style="fill:none;stroke:#000000;stroke-width:4px;stroke-linecap:round;stroke-linejoin:round;stroke-miterlimit:4;stroke-dasharray:none;stroke-opacity:1;" d="  M 616.15789,566.94737   L 616.15789,560.36842  " id="path23"/>
  <path style="fill:none;stroke:#000000;stroke-width:4px;stroke-linecap:round;stroke-linejoin:round;stroke-miterlimit:4;stroke-dasharray:none;stroke-opacity:1;" d="  M 616.15789,566.94737   L 537.15789,566.94737  " id="path25"/>
  <path style="fill:none;stroke:#000000;stroke-width:4px;stroke-linecap:round;stroke-linejoin:round;stroke-miterlimit:4;stroke-dasharray:none;stroke-opacity:1;" d="  M 485.42105,526.15789   L 484.15789,525.84211   L 482.84211,525.68421   L 481.52632,525.63158   L 480.21053,525.73684   L 478.89474,525.94737   L 477.63158,526.26316   L 476.36842,526.73684   L 475.15789,527.26316   L 474.05263,527.94737   L 473,528.73684   L 472,529.63158   L 471.10526,530.63158   L 470.31579,531.68421   L 469.63158,532.78947   L 469.05263,534   L 468.57895,535.21053   L 468.26316,536.52632   L 468.05263,537.78947   L 467.94737,539.10526   L 468,540.47368   L 468.15789,541.73684   L 468.42105,543.05263   L 468.84211,544.31579   L 469.36842,545.52632   L 470,546.68421   L 470.73684,547.73684   L 471.63158,548.78947   L 472.52632,549.68421   L 473.57895,550.52632   L 474.68421,551.26316   L 475.84211,551.89474   L 477.05263,552.36842   L 478.31579,552.78947   L 479.63158,553.05263   L 480.94737,553.21053   L 482.26316,553.21053   L 483.57895,553.10526   L 484.84211,552.84211   L 486.15789,552.47368   L 487.36842,552   L 488.52632,551.42105   L 489.68421,550.68421   L 490.68421,549.89474   L 491.68421,549   L 492.52632,548   L 493.31579,546.89474   L 493.94737,545.78947   L 494.52632,544.57895   L 494.94737,543.31579   L 495.26316,542.05263   L 495.47368,540.73684   L 495.52632,539.42105  " id="path27"/>
  <path style="fill:none;stroke:#000000;stroke-width:4px;stroke-linecap:round;stroke-linejoin:round;stroke-miterlimit:4;stroke-dasharray:none;stroke-opacity:1;" d="  M 658.36842,535.73684   L 658.05263,537   L 657.89474,538.26316   L 657.84211,539.57895   L 657.89474,540.84211   L 658.10526,542.10526   L 658.42105,543.36842   L 658.84211,544.63158   L 659.42105,545.78947   L 660.05263,546.89474   L 660.78947,547.94737   L 661.63158,548.94737   L 662.57895,549.84211   L 663.57895,550.63158   L 664.68421,551.31579   L 665.84211,551.94737   L 667,552.42105   L 668.26316,552.78947   L 669.52632,553.05263   L 670.84211,553.21053   L 672.10526,553.21053   L 673.42105,553.10526   L 674.68421,552.89474   L 675.89474,552.52632   L 677.10526,552.05263   L 678.26316,551.47368   L 679.36842,550.84211   L 680.42105,550.05263   L 681.36842,549.15789   L 682.26316,548.21053   L 683.05263,547.15789   L 683.68421,546.05263   L 684.26316,544.89474   L 684.73684,543.68421   L 685.10526,542.47368   L 685.31579,541.21053   L 685.42105,539.89474   L 685.42105,538.63158   L 685.26316,537.31579   L 685,536.05263   L 684.63158,534.78947   L 684.15789,533.63158   L 683.52632,532.47368   L 682.84211,531.36842   L 682.05263,530.36842   L 681.15789,529.42105   L 680.15789,528.57895   L 679.10526,527.84211   L 678,527.21053   L 676.84211,526.63158   L 675.57895,526.21053   L 674.31579,525.89474   L 673.05263,525.68421   L 671.78947,525.63158   L 670.47368,525.68421   L 669.21053,525.84211   L 667.94737,526.15789  " id="path29"/>
  <path style="fill:none;stroke:#000000;stroke-width:4px;stroke-linecap:round;stroke-linejoin:round;stroke-miterlimit:4;stroke-dasharray:none;stroke-opacity:1;" d="  M 667.94737,362.68421   L 669.21053,363   L 670.47368,363.15789   L 671.78947,363.21053   L 673.05263,363.15789   L 674.31579,362.94737   L 675.57895,362.63158   L 676.84211,362.21053   L 678,361.63158   L 679.10526,361   L 680.15789,360.26316   L 681.15789,359.42105   L 682.05263,358.47368   L 682.84211,357.47368   L 683.52632,356.36842   L 684.15789,355.21053   L 684.63158,354.05263   L 685,352.78947   L 685.26316,351.52632   L 685.42105,350.21053   L 685.42105,348.94737   L 685.31579,347.63158   L 685.10526,346.36842   L 684.73684,345.15789   L 684.26316,343.94737   L 683.68421,342.78947   L 683.05263,341.68421   L 682.26316,340.63158   L 681.36842,339.68421   L 680.42105,338.78947   L 679.36842,338   L 678.26316,337.36842   L 677.10526,336.78947   L 675.89474,336.31579   L 674.68421,335.94737   L 673.42105,335.73684   L 672.10526,335.63158   L 670.84211,335.63158   L 669.52632,335.78947   L 668.26316,336.05263   L 667,336.42105   L 665.84211,336.89474   L 664.68421,337.52632   L 663.57895,338.21053   L 662.57895,339   L 661.63158,339.89474   L 660.78947,340.89474   L 660.05263,341.94737   L 659.42105,343.05263   L 658.84211,344.21053   L 658.42105,345.47368   L 658.10526,346.73684   L 657.89474,348   L 657.84211,349.26316   L 657.89474,350.57895   L 658.05263,351.84211   L 658.36842,353.10526  " id="path31"/>
  <path style="fill:none;stroke:#000000;stroke-width:4px;stroke-linecap:round;stroke-linejoin:round;stroke-miterlimit:4;stroke-dasharray:none;stroke-opacity:1;" d="  M 495.52632,349.42105   L 495.47368,348.10526   L 495.26316,346.78947   L 494.94737,345.52632   L 494.52632,344.26316   L 493.94737,343.05263   L 493.31579,341.94737   L 492.52632,340.84211   L 491.68421,339.84211   L 490.68421,338.94737   L 489.68421,338.15789   L 488.52632,337.42105   L 487.36842,336.84211   L 486.15789,336.36842   L 484.84211,336   L 483.57895,335.73684   L 482.26316,335.63158   L 480.94737,335.63158   L 479.63158,335.78947   L 478.31579,336.05263   L 477.05263,336.47368   L 475.84211,336.94737   L 474.68421,337.57895   L 473.57895,338.31579   L 472.52632,339.15789   L 471.63158,340.05263   L 470.73684,341.10526   L 470,342.15789   L 469.36842,343.31579   L 468.84211,344.52632   L 468.42105,345.78947   L 468.15789,347.10526   L 468,348.36842   L 467.94737,349.73684   L 468.05263,351.05263   L 468.26316,352.31579   L 468.57895,353.63158   L 469.05263,354.84211   L 469.63158,356.05263   L 470.31579,357.15789   L 471.10526,358.21053   L 472,359.21053   L 473,360.10526   L 474.05263,360.89474   L 475.15789,361.57895   L 476.36842,362.10526   L 477.63158,362.57895   L 478.89474,362.89474   L 480.21053,363.10526   L 481.52632,363.21053   L 482.84211,363.15789   L 484.15789,363   L 485.42105,362.68421  " id="path33"/>
  <path style="fill:none;stroke:#000000;stroke-width:4px;stroke-linecap:round;stroke-linejoin:round;stroke-miterlimit:4;stroke-dasharray:none;stroke-opacity:1;" d="  M 454.36842,437.63158   L 453.68421,436.52632   L 452.89474,435.52632   L 452,434.57895   L 451.05263,433.73684   L 450,432.94737   L 448.89474,432.26316   L 447.73684,431.73684   L 446.52632,431.26316   L 445.26316,430.94737   L 444,430.73684   L 442.68421,430.63158   L 441.42105,430.68421   L 440.10526,430.78947   L 438.84211,431.10526   L 437.63158,431.47368   L 436.42105,431.94737   L 435.31579,432.57895   L 434.21053,433.31579   L 433.21053,434.10526   L 432.26316,435   L 431.47368,436   L 430.68421,437.05263   L 430.05263,438.21053   L 429.52632,439.36842   L 429.10526,440.57895   L 428.84211,441.84211   L 428.63158,443.10526   L 428.57895,444.42105   L 428.63158,445.73684   L 428.84211,447   L 429.10526,448.26316   L 429.52632,449.47368   L 430.05263,450.63158   L 430.68421,451.78947   L 431.47368,452.84211   L 432.26316,453.84211   L 433.21053,454.73684   L 434.21053,455.52632   L 435.31579,456.26316   L 436.42105,456.89474   L 437.63158,457.36842   L 438.84211,457.73684   L 440.10526,458.05263   L 441.42105,458.15789   L 442.68421,458.21053   L 444,458.10526   L 445.26316,457.89474   L 446.52632,457.57895   L 447.73684,457.10526   L 448.89474,456.57895   L 450,455.89474   L 451.05263,455.10526   L 452,454.26316   L 452.89474,453.31579   L 453.68421,452.31579   L 454.36842,451.21053  " id="path35"/>
  <path style="fill:none;stroke:#000000;stroke-width:4px;stroke-linecap:round;stroke-linejoin:round;stroke-miterlimit:4;stroke-dasharray:none;stroke-opacity:1;" d="  M 583.47368,322.10526   L 584.57895,321.42105   L 585.57895,320.63158   L 586.52632,319.73684   L 587.36842,318.78947   L 588.15789,317.73684   L 588.84211,316.63158   L 589.36842,315.47368   L 589.84211,314.26316   L 590.15789,313   L 590.36842,311.73684   L 590.47368,310.42105   L 590.42105,309.15789   L 590.31579,307.84211   L 590,306.57895   L 589.63158,305.36842   L 589.15789,304.15789   L 588.52632,303.05263   L 587.78947,301.94737   L 587,300.94737   L 586.10526,300   L 585.10526,299.21053   L 584.05263,298.42105   L 582.89474,297.78947   L 581.73684,297.26316   L 580.52632,296.84211   L 579.26316,296.57895   L 578,296.36842   L 576.68421,296.31579   L 575.36842,296.36842   L 574.10526,296.57895   L 572.84211,296.84211   L 571.63158,297.26316   L 570.47368,297.78947   L 569.31579,298.42105   L 568.26316,299.21053   L 567.26316,300   L 566.36842,300.94737   L 565.57895,301.94737   L 564.84211,303.05263   L 564.21053,304.15789   L 563.73684,305.36842   L 563.36842,306.57895   L 563.05263,307.84211   L 562.94737,309.15789   L 562.89474,310.42105   L 563,311.73684   L 563.21053,313   L 563.52632,314.26316   L 564,315.47368   L 564.52632,316.63158   L 565.21053,317.73684   L 566,318.78947   L 566.84211,319.73684   L 567.78947,320.63158   L 568.78947,321.42105   L 569.89474,322.10526  " id="path37"/>
  <path style="fill:none;stroke:#000000;stroke-width:4px;stroke-linecap:round;stroke-linejoin:round;stroke-miterlimit:4;stroke-dasharray:none;stroke-opacity:1;" d="  M 698.94737,451.21053   L 699.63158,452.31579   L 700.42105,453.31579   L 701.31579,454.26316   L 702.26316,455.10526   L 703.31579,455.89474   L 704.42105,456.57895   L 705.57895,457.10526   L 706.78947,457.57895   L 708.05263,457.89474   L 709.31579,458.10526   L 710.63158,458.21053   L 711.89474,458.15789   L 713.21053,458.05263   L 714.47368,457.73684   L 715.68421,457.36842   L 716.89474,456.89474   L 718,456.26316   L 719.10526,455.52632   L 720.10526,454.73684   L 721.05263,453.84211   L 721.84211,452.84211   L 722.63158,451.78947   L 723.26316,450.63158   L 723.78947,449.47368   L 724.21053,448.26316   L 724.47368,447   L 724.68421,445.73684   L 724.73684,444.42105   L 724.68421,443.10526   L 724.47368,441.84211   L 724.21053,440.57895   L 723.78947,439.36842   L 723.26316,438.21053   L 722.63158,437.05263   L 721.84211,436   L 721.05263,435   L 720.10526,434.10526   L 719.10526,433.31579   L 718,432.57895   L 716.89474,431.94737   L 715.68421,431.47368   L 714.47368,431.10526   L 713.21053,430.78947   L 711.89474,430.68421   L 710.63158,430.63158   L 709.31579,430.73684   L 708.05263,430.94737   L 706.78947,431.26316   L 705.57895,431.73684   L 704.42105,432.26316   L 703.31579,432.94737   L 702.26316,433.73684   L 701.31579,434.57895   L 700.42105,435.52632   L 699.63158,436.52632   L 698.94737,437.63158  " id="path39"/>
  <path style="fill:none;stroke:#000000;stroke-width:4px;stroke-linecap:round;stroke-linejoin:round;stroke-miterlimit:4;stroke-dasharray:none;stroke-opacity:1;" d="  M 569.57895,566.94737   L 568.52632,567.68421   L 567.52632,568.47368   L 566.57895,569.36842   L 565.78947,570.36842   L 565.05263,571.42105   L 564.42105,572.52632   L 563.89474,573.68421   L 563.47368,574.89474   L 563.15789,576.15789   L 562.94737,577.42105   L 562.89474,578.68421   L 562.94737,579.94737   L 563.10526,581.21053   L 563.42105,582.47368   L 563.78947,583.68421   L 564.31579,584.84211   L 564.94737,586   L 565.63158,587.05263   L 566.47368,588.05263   L 567.36842,588.94737   L 568.31579,589.78947   L 569.36842,590.47368   L 570.52632,591.10526   L 571.68421,591.63158   L 572.89474,592.05263   L 574.15789,592.31579   L 575.42105,592.52632   L 576.68421,592.57895   L 577.94737,592.52632   L 579.21053,592.31579   L 580.47368,592.05263   L 581.68421,591.63158   L 582.84211,591.10526   L 584,590.47368   L 585.05263,589.78947   L 586,588.94737   L 586.89474,588.05263   L 587.73684,587.05263   L 588.42105,586   L 589.05263,584.84211   L 589.57895,583.68421   L 589.94737,582.47368   L 590.26316,581.21053   L 590.42105,579.94737   L 590.47368,578.68421   L 590.42105,577.42105   L 590.21053,576.15789   L 589.89474,574.89474   L 589.47368,573.68421   L 588.94737,572.52632   L 588.31579,571.42105   L 587.57895,570.36842   L 586.78947,569.36842   L 585.84211,568.47368   L 584.84211,567.68421   L 583.78947,566.94737  " id="path41"/>
</svg>