<svg xmlns:inkscape="http://www.inkscape.org/namespaces/inkscape" xmlns:sodipodi="http://sodipodi.sourceforge.net/DTD/sodipodi-0.dtd" xmlns="http://www.w3.org/2000/svg" xmlns:svg="http://www.w3.org/2000/svg" version="1.0" id="svg39" sodipodi:docname="flange_head-4L.wmf" viewBox="355.82 142.5 504.47 504.79">
  <sodipodi:namedview id="namedview41" pagecolor="#ffffff" bordercolor="#000000" borderopacity="0.25" inkscape:showpageshadow="2" inkscape:pageopacity="0.0" inkscape:pagecheckerboard="0" inkscape:deskcolor="#d1d1d1" inkscape:document-units="mm"/>
  <defs id="defs3">
    <pattern id="WMFhbasepattern" patternUnits="userSpaceOnUse" width="6" height="6" x="0" y="0"/>
  </defs>
  <path style="fill:none;stroke:#000000;stroke-width:4px;stroke-linecap:round;stroke-linejoin:round;stroke-miterlimit:4;stroke-dasharray:none;stroke-opacity:1;" d="  M 620.63158,222.42105   L 620.57895,221.21053   L 620.36842,219.94737   L 620.10526,218.78947   L 619.68421,217.63158   L 619.15789,216.47368   L 618.52632,215.42105   L 617.78947,214.42105   L 616.94737,213.52632   L 616.05263,212.68421   L 615.05263,211.94737   L 614,211.31579   L 612.84211,210.78947   L 611.68421,210.36842   L 610.52632,210.10526   L 609.26316,209.89474   L 608.05263,209.84211   L 606.84211,209.89474   L 605.57895,210.10526   L 604.42105,210.36842   L 603.26316,210.78947   L 602.10526,211.31579   L 601.05263,211.94737   L 600.05263,212.68421   L 599.15789,213.52632   L 598.31579,214.42105   L 597.57895,215.42105   L 596.94737,216.47368   L 596.42105,217.63158   L 596,218.78947   L 595.73684,219.94737   L 595.52632,221.21053   L 595.47368,222.42105   L 595.52632,223.63158   L 595.73684,224.89474   L 596,226.05263   L 596.42105,227.21053   L 596.94737,228.36842   L 597.57895,229.42105   L 598.31579,230.42105   L 599.15789,231.31579   L 600.05263,232.15789   L 601.05263,232.89474   L 602.10526,233.52632   L 603.26316,234.05263   L 604.42105,234.47368   L 605.57895,234.73684   L 606.84211,234.94737   L 608.05263,235   L 609.26316,234.94737   L 610.52632,234.73684   L 611.68421,234.47368   L 612.84211,234.05263   L 614,233.52632   L 615.05263,232.89474   L 616.05263,232.15789   L 616.94737,231.31579   L 617.78947,230.42105   L 618.52632,229.42105   L 619.15789,228.36842   L 619.68421,227.21053   L 620.10526,226.05263   L 620.36842,224.89474   L 620.57895,223.63158   L 620.63158,222.42105  z " id="path5"/>
  <path style="fill:none;stroke:#000000;stroke-width:4px;stroke-linecap:round;stroke-linejoin:round;stroke-miterlimit:4;stroke-dasharray:none;stroke-opacity:1;" d="  M 448.26316,394.89474   L 448.21053,393.68421   L 448,392.42105   L 447.73684,391.26316   L 447.31579,390.10526   L 446.78947,388.94737   L 446.15789,387.89474   L 445.42105,386.89474   L 444.57895,386   L 443.68421,385.15789   L 442.68421,384.42105   L 441.63158,383.78947   L 440.47368,383.26316   L 439.31579,382.84211   L 438.15789,382.57895   L 436.89474,382.36842   L 435.68421,382.31579   L 434.47368,382.36842   L 433.21053,382.57895   L 432.05263,382.84211   L 430.89474,383.26316   L 429.73684,383.78947   L 428.68421,384.42105   L 427.68421,385.15789   L 426.78947,386   L 425.94737,386.89474   L 425.21053,387.89474   L 424.57895,388.94737   L 424.05263,390.10526   L 423.63158,391.26316   L 423.36842,392.42105   L 423.15789,393.68421   L 423.10526,394.89474   L 423.15789,396.10526   L 423.36842,397.36842   L 423.63158,398.52632   L 424.05263,399.68421   L 424.57895,400.84211   L 425.21053,401.89474   L 425.94737,402.89474   L 426.78947,403.78947   L 427.68421,404.63158   L 428.68421,405.36842   L 429.73684,406   L 430.89474,406.52632   L 432.05263,406.94737   L 433.21053,407.21053   L 434.47368,407.42105   L 435.68421,407.47368   L 436.89474,407.42105   L 438.15789,407.21053   L 439.31579,406.94737   L 440.47368,406.52632   L 441.63158,406   L 442.68421,405.36842   L 443.68421,404.63158   L 444.57895,403.78947   L 445.42105,402.89474   L 446.15789,401.89474   L 446.78947,400.84211   L 447.31579,399.68421   L 447.73684,398.52632   L 448,397.36842   L 448.21053,396.10526   L 448.26316,394.89474  z " id="path7"/>
  <path style="fill:none;stroke:#000000;stroke-width:4px;stroke-linecap:round;stroke-linejoin:round;stroke-miterlimit:4;stroke-dasharray:none;stroke-opacity:1;" d="  M 620.63158,567.36842   L 620.57895,566.15789   L 620.36842,564.89474   L 620.10526,563.73684   L 619.68421,562.57895   L 619.15789,561.42105   L 618.52632,560.36842   L 617.78947,559.36842   L 616.94737,558.47368   L 616.05263,557.63158   L 615.05263,556.89474   L 614,556.26316   L 612.84211,555.73684   L 611.68421,555.31579   L 610.52632,555.05263   L 609.26316,554.84211   L 608.05263,554.78947   L 606.84211,554.84211   L 605.57895,555.05263   L 604.42105,555.31579   L 603.26316,555.73684   L 602.10526,556.26316   L 601.05263,556.89474   L 600.05263,557.63158   L 599.15789,558.47368   L 598.31579,559.36842   L 597.57895,560.36842   L 596.94737,561.42105   L 596.42105,562.57895   L 596,563.73684   L 595.73684,564.89474   L 595.52632,566.15789   L 595.47368,567.36842   L 595.52632,568.57895   L 595.73684,569.84211   L 596,571   L 596.42105,572.15789   L 596.94737,573.31579   L 597.57895,574.36842   L 598.31579,575.36842   L 599.15789,576.26316   L 600.05263,577.10526   L 601.05263,577.84211   L 602.10526,578.47368   L 603.26316,579   L 604.42105,579.42105   L 605.57895,579.68421   L 606.84211,579.89474   L 608.05263,579.94737   L 609.26316,579.89474   L 610.52632,579.68421   L 611.68421,579.42105   L 612.84211,579   L 614,578.47368   L 615.05263,577.84211   L 616.05263,577.10526   L 616.94737,576.26316   L 617.78947,575.36842   L 618.52632,574.36842   L 619.15789,573.31579   L 619.68421,572.15789   L 620.10526,571   L 620.36842,569.84211   L 620.57895,568.57895   L 620.63158,567.36842  z " id="path9"/>
  <path style="fill:none;stroke:#000000;stroke-width:4px;stroke-linecap:round;stroke-linejoin:round;stroke-miterlimit:4;stroke-dasharray:none;stroke-opacity:1;" d="  M 793,394.89474   L 792.94737,393.68421   L 792.73684,392.42105   L 792.47368,391.26316   L 792.05263,390.10526   L 791.52632,388.94737   L 790.89474,387.89474   L 790.15789,386.89474   L 789.31579,386   L 788.42105,385.15789   L 787.42105,384.42105   L 786.36842,383.78947   L 785.21053,383.26316   L 784.05263,382.84211   L 782.89474,382.57895   L 781.63158,382.36842   L 780.42105,382.31579   L 779.21053,382.36842   L 777.94737,382.57895   L 776.78947,382.84211   L 775.63158,383.26316   L 774.47368,383.78947   L 773.42105,384.42105   L 772.42105,385.15789   L 771.52632,386   L 770.68421,386.89474   L 769.94737,387.89474   L 769.31579,388.94737   L 768.78947,390.10526   L 768.36842,391.26316   L 768.10526,392.42105   L 767.89474,393.68421   L 767.84211,394.89474   L 767.89474,396.10526   L 768.10526,397.36842   L 768.36842,398.52632   L 768.78947,399.68421   L 769.31579,400.84211   L 769.94737,401.89474   L 770.68421,402.89474   L 771.52632,403.78947   L 772.42105,404.63158   L 773.42105,405.36842   L 774.47368,406   L 775.63158,406.52632   L 776.78947,406.94737   L 777.94737,407.21053   L 779.21053,407.42105   L 780.42105,407.47368   L 781.63158,407.42105   L 782.89474,407.21053   L 784.05263,406.94737   L 785.21053,406.52632   L 786.36842,406   L 787.42105,405.36842   L 788.42105,404.63158   L 789.31579,403.78947   L 790.15789,402.89474   L 790.89474,401.89474   L 791.52632,400.84211   L 792.05263,399.68421   L 792.47368,398.52632   L 792.73684,397.36842   L 792.94737,396.10526   L 793,394.89474  z " id="path11"/>
  <path style="fill:none;stroke:#000000;stroke-width:4px;stroke-linecap:round;stroke-linejoin:round;stroke-miterlimit:4;stroke-dasharray:none;stroke-opacity:1;" d="  M 797.21053,394.89474   L 797.15789,390   L 796.94737,385.05263   L 796.63158,380.15789   L 796.21053,375.26316   L 795.63158,370.36842   L 794.89474,365.52632   L 794.10526,360.68421   L 793.15789,355.84211   L 792.05263,351.05263   L 790.89474,346.31579   L 789.52632,341.57895   L 788.10526,336.89474   L 786.52632,332.21053   L 784.84211,327.57895   L 783.05263,323.05263   L 781.10526,318.52632   L 779.10526,314.05263   L 776.94737,309.63158   L 774.63158,305.26316   L 772.26316,300.94737   L 769.78947,296.73684   L 767.15789,292.57895   L 764.47368,288.47368   L 761.68421,284.42105   L 758.73684,280.47368   L 755.73684,276.63158   L 752.57895,272.84211   L 749.36842,269.10526   L 746.05263,265.47368   L 742.68421,261.94737   L 739.15789,258.47368   L 735.57895,255.10526   L 731.94737,251.84211   L 728.15789,248.68421   L 724.31579,245.63158   L 720.42105,242.63158   L 716.42105,239.78947   L 712.36842,237   L 708.26316,234.36842   L 704.05263,231.78947   L 699.78947,229.36842   L 695.47368,227.05263   L 691.05263,224.84211   L 686.63158,222.73684   L 682.15789,220.73684   L 677.57895,218.89474   L 673,217.15789   L 668.36842,215.52632   L 663.68421,214   L 659,212.63158   L 654.26316,211.36842   L 649.47368,210.21053   L 644.63158,209.21053   L 639.84211,208.31579   L 634.94737,207.57895   L 630.10526,206.94737   L 625.21053,206.42105   L 620.31579,206.05263   L 615.42105,205.78947   L 610.52632,205.63158   L 605.57895,205.63158   L 600.68421,205.78947   L 595.78947,206.05263   L 590.89474,206.42105   L 586,206.94737   L 581.15789,207.57895   L 576.26316,208.31579   L 571.47368,209.21053   L 566.63158,210.21053   L 561.84211,211.36842   L 557.10526,212.63158   L 552.42105,214   L 547.73684,215.52632   L 543.10526,217.15789   L 538.52632,218.89474   L 533.94737,220.73684   L 529.47368,222.73684   L 525.05263,224.84211   L 520.63158,227.05263   L 516.31579,229.36842   L 512.05263,231.78947   L 507.84211,234.36842   L 503.73684,237   L 499.68421,239.78947   L 495.68421,242.63158   L 491.78947,245.63158   L 487.94737,248.68421   L 484.15789,251.84211   L 480.52632,255.10526   L 476.94737,258.47368   L 473.42105,261.94737   L 470.05263,265.47368   L 466.73684,269.10526   L 463.52632,272.84211   L 460.36842,276.63158   L 457.36842,280.47368   L 454.42105,284.42105   L 451.63158,288.47368   L 448.94737,292.57895   L 446.31579,296.73684   L 443.84211,300.94737   L 441.47368,305.26316   L 439.15789,309.63158   L 437,314.05263   L 435,318.52632   L 433.05263,323.05263   L 431.26316,327.57895   L 429.57895,332.21053   L 428,336.89474   L 426.57895,341.57895   L 425.21053,346.31579   L 424.05263,351.05263   L 422.94737,355.84211   L 422,360.68421   L 421.21053,365.52632   L 420.47368,370.36842   L 419.89474,375.26316   L 419.47368,380.15789   L 419.15789,385.05263   L 418.94737,390   L 418.89474,394.89474   L 418.94737,399.78947   L 419.15789,404.73684   L 419.47368,409.63158   L 419.89474,414.52632   L 420.47368,419.42105   L 421.21053,424.26316   L 422,429.10526   L 422.94737,433.94737   L 424.05263,438.73684   L 425.21053,443.47368   L 426.57895,448.21053   L 428,452.89474   L 429.57895,457.57895   L 431.26316,462.21053   L 433.05263,466.73684   L 435,471.26316   L 437,475.73684   L 439.15789,480.15789   L 441.47368,484.52632   L 443.84211,488.84211   L 446.31579,493.05263   L 448.94737,497.21053   L 451.63158,501.31579   L 454.42105,505.36842   L 457.36842,509.31579   L 460.36842,513.15789   L 463.52632,516.94737   L 466.73684,520.68421   L 470.05263,524.31579   L 473.42105,527.84211   L 476.94737,531.31579   L 480.52632,534.68421   L 484.15789,537.94737   L 487.94737,541.10526   L 491.78947,544.15789   L 495.68421,547.15789   L 499.68421,550   L 503.73684,552.78947   L 507.84211,555.42105   L 512.05263,558   L 516.31579,560.42105   L 520.63158,562.73684   L 525.05263,564.94737   L 529.47368,567.05263   L 533.94737,569.05263   L 538.52632,570.89474   L 543.10526,572.63158   L 547.73684,574.26316   L 552.42105,575.78947   L 557.10526,577.15789   L 561.84211,578.42105   L 566.63158,579.57895   L 571.47368,580.57895   L 576.26316,581.47368   L 581.15789,582.21053   L 586,582.84211   L 590.89474,583.36842   L 595.78947,583.73684   L 600.68421,584   L 605.57895,584.15789   L 610.52632,584.15789   L 615.42105,584   L 620.31579,583.73684   L 625.21053,583.36842   L 630.10526,582.84211   L 634.94737,582.21053   L 639.84211,581.47368   L 644.63158,580.57895   L 649.47368,579.57895   L 654.26316,578.42105   L 659,577.15789   L 663.68421,575.78947   L 668.36842,574.26316   L 673,572.63158   L 677.57895,570.89474   L 682.15789,569.05263   L 686.63158,567.05263   L 691.05263,564.94737   L 695.47368,562.73684   L 699.78947,560.42105   L 704.05263,558   L 708.26316,555.42105   L 712.36842,552.78947   L 716.42105,550   L 720.42105,547.15789   L 724.31579,544.15789   L 728.15789,541.10526   L 731.94737,537.94737   L 735.57895,534.68421   L 739.15789,531.31579   L 742.68421,527.84211   L 746.05263,524.31579   L 749.36842,520.68421   L 752.57895,516.94737   L 755.73684,513.15789   L 758.73684,509.31579   L 761.68421,505.36842   L 764.47368,501.31579   L 767.15789,497.21053   L 769.78947,493.05263   L 772.26316,488.84211   L 774.63158,484.52632   L 776.94737,480.15789   L 779.10526,475.73684   L 781.10526,471.26316   L 783.05263,466.73684   L 784.84211,462.21053   L 786.52632,457.57895   L 788.10526,452.89474   L 789.52632,448.21053   L 790.89474,443.47368   L 792.05263,438.73684   L 793.15789,433.94737   L 794.10526,429.10526   L 794.89474,424.26316   L 795.63158,419.42105   L 796.21053,414.52632   L 796.63158,409.63158   L 796.94737,404.73684   L 797.15789,399.78947   L 797.21053,394.89474  z " id="path13"/>
  <path style="fill:none;stroke:#000000;stroke-width:4px;stroke-linecap:round;stroke-linejoin:round;stroke-miterlimit:4;stroke-dasharray:none;stroke-opacity:1;" d="  M 709.52632,200.57895   L 709.47368,198.94737   L 709.26316,197.36842   L 709,195.78947   L 708.52632,194.26316   L 708,192.73684   L 707.36842,191.26316   L 706.57895,189.84211   L 705.68421,188.47368   L 704.73684,187.21053   L 703.63158,186   L 702.47368,184.89474   L 701.26316,183.89474   L 699.94737,182.94737   L 698.57895,182.10526   L 697.10526,181.42105   L 695.63158,180.78947   L 694.10526,180.31579   L 692.52632,179.94737   L 690.94737,179.73684   L 689.31579,179.57895   L 687.73684,179.57895   L 686.10526,179.73684   L 684.52632,179.94737   L 682.94737,180.31579   L 681.42105,180.78947   L 679.94737,181.42105   L 678.47368,182.10526   L 677.10526,182.94737   L 675.78947,183.89474   L 674.57895,184.89474   L 673.42105,186   L 672.31579,187.21053   L 671.36842,188.47368   L 670.47368,189.84211   L 669.68421,191.26316   L 669.05263,192.73684   L 668.52632,194.26316   L 668.05263,195.78947   L 667.78947,197.36842   L 667.57895,198.94737   L 667.52632,200.57895   L 667.57895,202.21053   L 667.78947,203.78947   L 668.05263,205.36842   L 668.52632,206.89474   L 669.05263,208.42105   L 669.68421,209.89474   L 670.47368,211.31579   L 671.36842,212.68421   L 672.31579,213.94737   L 673.42105,215.15789   L 674.57895,216.26316   L 675.78947,217.26316   L 677.10526,218.21053   L 678.47368,219.05263   L 679.94737,219.73684   L 681.42105,220.36842   L 682.94737,220.84211   L 684.52632,221.21053   L 686.10526,221.42105   L 687.73684,221.57895   L 689.31579,221.57895   L 690.94737,221.42105   L 692.52632,221.21053   L 694.10526,220.84211   L 695.63158,220.36842   L 697.10526,219.73684   L 698.57895,219.05263   L 699.94737,218.21053   L 701.26316,217.26316   L 702.47368,216.26316   L 703.63158,215.15789   L 704.73684,213.94737   L 705.68421,212.68421   L 706.57895,211.31579   L 707.36842,209.89474   L 708,208.42105   L 708.52632,206.89474   L 709,205.36842   L 709.26316,203.78947   L 709.47368,202.21053   L 709.52632,200.57895  z " id="path15"/>
  <path style="fill:none;stroke:#000000;stroke-width:4px;stroke-linecap:round;stroke-linejoin:round;stroke-miterlimit:4;stroke-dasharray:none;stroke-opacity:1;" d="  M 434.84211,314.42105   L 434.78947,312.78947   L 434.57895,311.21053   L 434.31579,309.63158   L 433.84211,308.10526   L 433.31579,306.57895   L 432.68421,305.10526   L 431.89474,303.68421   L 431,302.31579   L 430.05263,301.05263   L 428.94737,299.84211   L 427.78947,298.73684   L 426.57895,297.73684   L 425.26316,296.78947   L 423.89474,295.94737   L 422.42105,295.26316   L 420.94737,294.63158   L 419.42105,294.15789   L 417.84211,293.78947   L 416.26316,293.57895   L 414.63158,293.42105   L 413.05263,293.42105   L 411.42105,293.57895   L 409.84211,293.78947   L 408.26316,294.15789   L 406.73684,294.63158   L 405.26316,295.26316   L 403.78947,295.94737   L 402.42105,296.78947   L 401.10526,297.73684   L 399.89474,298.73684   L 398.73684,299.84211   L 397.63158,301.05263   L 396.68421,302.31579   L 395.78947,303.68421   L 395,305.10526   L 394.36842,306.57895   L 393.84211,308.10526   L 393.36842,309.63158   L 393.10526,311.21053   L 392.89474,312.78947   L 392.84211,314.42105   L 392.89474,316.05263   L 393.10526,317.63158   L 393.36842,319.21053   L 393.84211,320.73684   L 394.36842,322.26316   L 395,323.73684   L 395.78947,325.15789   L 396.68421,326.52632   L 397.63158,327.78947   L 398.73684,329   L 399.89474,330.10526   L 401.10526,331.10526   L 402.42105,332.05263   L 403.78947,332.89474   L 405.26316,333.57895   L 406.73684,334.21053   L 408.26316,334.68421   L 409.84211,335.05263   L 411.42105,335.26316   L 413.05263,335.42105   L 414.63158,335.42105   L 416.26316,335.26316   L 417.84211,335.05263   L 419.42105,334.68421   L 420.94737,334.21053   L 422.42105,333.57895   L 423.89474,332.89474   L 425.26316,332.05263   L 426.57895,331.10526   L 427.78947,330.10526   L 428.94737,329   L 430.05263,327.78947   L 431,326.52632   L 431.89474,325.15789   L 432.68421,323.73684   L 433.31579,322.26316   L 433.84211,320.73684   L 434.31579,319.21053   L 434.57895,317.63158   L 434.78947,316.05263   L 434.84211,314.42105  z " id="path17"/>
  <path style="fill:none;stroke:#000000;stroke-width:4px;stroke-linecap:round;stroke-linejoin:round;stroke-miterlimit:4;stroke-dasharray:none;stroke-opacity:1;" d="  M 823.26316,475.42105   L 823.21053,473.78947   L 823,472.21053   L 822.73684,470.63158   L 822.26316,469.10526   L 821.73684,467.57895   L 821.10526,466.10526   L 820.31579,464.68421   L 819.42105,463.31579   L 818.47368,462.05263   L 817.36842,460.84211   L 816.21053,459.73684   L 815,458.73684   L 813.68421,457.78947   L 812.31579,456.94737   L 810.84211,456.26316   L 809.36842,455.63158   L 807.84211,455.15789   L 806.26316,454.78947   L 804.68421,454.57895   L 803.05263,454.42105   L 801.47368,454.42105   L 799.84211,454.57895   L 798.26316,454.78947   L 796.68421,455.15789   L 795.15789,455.63158   L 793.68421,456.26316   L 792.21053,456.94737   L 790.84211,457.78947   L 789.52632,458.73684   L 788.31579,459.73684   L 787.15789,460.84211   L 786.05263,462.05263   L 785.10526,463.31579   L 784.21053,464.68421   L 783.42105,466.10526   L 782.78947,467.57895   L 782.26316,469.10526   L 781.78947,470.63158   L 781.52632,472.21053   L 781.31579,473.78947   L 781.26316,475.42105   L 781.31579,477.05263   L 781.52632,478.63158   L 781.78947,480.21053   L 782.26316,481.73684   L 782.78947,483.26316   L 783.42105,484.73684   L 784.21053,486.15789   L 785.10526,487.52632   L 786.05263,488.78947   L 787.15789,490   L 788.31579,491.10526   L 789.52632,492.10526   L 790.84211,493.05263   L 792.21053,493.89474   L 793.68421,494.57895   L 795.15789,495.21053   L 796.68421,495.68421   L 798.26316,496.05263   L 799.84211,496.26316   L 801.47368,496.42105   L 803.05263,496.42105   L 804.68421,496.26316   L 806.26316,496.05263   L 807.84211,495.68421   L 809.36842,495.21053   L 810.84211,494.57895   L 812.31579,493.89474   L 813.68421,493.05263   L 815,492.10526   L 816.21053,491.10526   L 817.36842,490   L 818.47368,488.78947   L 819.42105,487.52632   L 820.31579,486.15789   L 821.10526,484.73684   L 821.73684,483.26316   L 822.26316,481.73684   L 822.73684,480.21053   L 823,478.63158   L 823.21053,477.05263   L 823.26316,475.42105  z " id="path19"/>
  <path style="fill:none;stroke:#000000;stroke-width:4px;stroke-linecap:round;stroke-linejoin:round;stroke-miterlimit:4;stroke-dasharray:none;stroke-opacity:1;" d="  M 860.26316,394.89474   L 860.21053,389.21053   L 860,383.47368   L 859.68421,377.78947   L 859.21053,372.10526   L 858.63158,366.42105   L 857.94737,360.78947   L 857.10526,355.15789   L 856.15789,349.52632   L 855.05263,343.89474   L 853.84211,338.31579   L 852.52632,332.78947   L 851.05263,327.26316   L 849.47368,321.78947   L 847.73684,316.36842   L 845.89474,310.94737   L 843.94737,305.63158   L 841.89474,300.31579   L 839.68421,295.05263   L 837.36842,289.84211   L 834.94737,284.68421   L 832.36842,279.57895   L 829.73684,274.52632   L 826.94737,269.52632   L 824.05263,264.63158   L 821.05263,259.78947   L 817.94737,255   L 814.73684,250.26316   L 811.42105,245.63158   L 808,241.05263   L 804.47368,236.57895   L 800.84211,232.21053   L 797.10526,227.89474   L 793.31579,223.63158   L 789.36842,219.47368   L 785.36842,215.42105   L 781.26316,211.47368   L 777.10526,207.57895   L 772.84211,203.84211   L 768.47368,200.15789   L 764.05263,196.57895   L 759.52632,193.10526   L 754.89474,189.73684   L 750.26316,186.47368   L 745.47368,183.31579   L 740.68421,180.26316   L 735.78947,177.31579   L 730.84211,174.47368   L 725.84211,171.73684   L 720.78947,169.15789   L 715.63158,166.63158   L 710.47368,164.26316   L 705.21053,162   L 699.94737,159.89474   L 694.63158,157.84211   L 689.21053,155.94737   L 683.84211,154.15789   L 678.36842,152.52632   L 672.89474,151   L 667.36842,149.57895   L 661.78947,148.31579   L 656.21053,147.15789   L 650.57895,146.15789   L 644.94737,145.26316   L 639.31579,144.47368   L 633.68421,143.84211   L 628,143.31579   L 622.31579,142.94737   L 616.57895,142.68421   L 610.89474,142.52632   L 605.21053,142.52632   L 599.52632,142.68421   L 593.78947,142.94737   L 588.10526,143.31579   L 582.42105,143.84211   L 576.78947,144.47368   L 571.15789,145.26316   L 565.52632,146.15789   L 559.89474,147.15789   L 554.31579,148.31579   L 548.73684,149.57895   L 543.21053,151   L 537.73684,152.52632   L 532.26316,154.15789   L 526.89474,155.94737   L 521.47368,157.84211   L 516.15789,159.89474   L 510.89474,162   L 505.63158,164.26316   L 500.47368,166.63158   L 495.31579,169.15789   L 490.26316,171.73684   L 485.26316,174.47368   L 480.31579,177.31579   L 475.42105,180.26316   L 470.63158,183.31579   L 465.84211,186.47368   L 461.21053,189.73684   L 456.57895,193.10526   L 452.05263,196.57895   L 447.63158,200.15789   L 443.26316,203.84211   L 439,207.57895   L 434.84211,211.47368   L 430.73684,215.42105   L 426.73684,219.47368   L 422.78947,223.63158   L 419,227.89474   L 415.26316,232.21053   L 411.63158,236.57895   L 408.10526,241.05263   L 404.68421,245.63158   L 401.36842,250.26316   L 398.15789,255   L 395.05263,259.78947   L 392.05263,264.63158   L 389.15789,269.52632   L 386.36842,274.52632   L 383.73684,279.57895   L 381.15789,284.68421   L 378.73684,289.84211   L 376.42105,295.05263   L 374.21053,300.31579   L 372.15789,305.63158   L 370.21053,310.94737   L 368.36842,316.36842   L 366.63158,321.78947   L 365.05263,327.26316   L 363.57895,332.78947   L 362.26316,338.31579   L 361.05263,343.89474   L 359.94737,349.52632   L 359,355.15789   L 358.15789,360.78947   L 357.47368,366.42105   L 356.89474,372.10526   L 356.42105,377.78947   L 356.10526,383.47368   L 355.89474,389.21053   L 355.84211,394.89474   L 355.89474,400.57895   L 356.10526,406.31579   L 356.42105,412   L 356.89474,417.68421   L 357.47368,423.36842   L 358.15789,429   L 359,434.63158   L 359.94737,440.26316   L 361.05263,445.89474   L 362.26316,451.47368   L 363.57895,457   L 365.05263,462.52632   L 366.63158,468   L 368.36842,473.42105   L 370.21053,478.84211   L 372.15789,484.15789   L 374.21053,489.47368   L 376.42105,494.73684   L 378.73684,499.94737   L 381.15789,505.10526   L 383.73684,510.21053   L 386.36842,515.26316   L 389.15789,520.26316   L 392.05263,525.15789   L 395.05263,530   L 398.15789,534.78947   L 401.36842,539.52632   L 404.68421,544.15789   L 408.10526,548.73684   L 411.63158,553.21053   L 415.26316,557.57895   L 419,561.89474   L 422.78947,566.15789   L 426.73684,570.31579   L 430.73684,574.36842   L 434.84211,578.31579   L 439,582.21053   L 443.26316,585.94737   L 447.63158,589.63158   L 452.05263,593.21053   L 456.57895,596.68421   L 461.21053,600.05263   L 465.84211,603.31579   L 470.63158,606.47368   L 475.42105,609.52632   L 480.31579,612.47368   L 485.26316,615.31579   L 490.26316,618.05263   L 495.31579,620.63158   L 500.47368,623.15789   L 505.63158,625.52632   L 510.89474,627.78947   L 516.15789,629.89474   L 521.47368,631.94737   L 526.89474,633.84211   L 532.26316,635.63158   L 537.73684,637.26316   L 543.21053,638.78947   L 548.73684,640.21053   L 554.31579,641.47368   L 559.89474,642.63158   L 565.52632,643.63158   L 571.15789,644.52632   L 576.78947,645.31579   L 582.42105,645.94737   L 588.10526,646.47368   L 593.78947,646.84211   L 599.52632,647.10526   L 605.21053,647.26316   L 610.89474,647.26316   L 616.57895,647.10526   L 622.31579,646.84211   L 628,646.47368   L 633.68421,645.94737   L 639.31579,645.31579   L 644.94737,644.52632   L 650.57895,643.63158   L 656.21053,642.63158   L 661.78947,641.47368   L 667.36842,640.21053   L 672.89474,638.78947   L 678.36842,637.26316   L 683.84211,635.63158   L 689.21053,633.84211   L 694.63158,631.94737   L 699.94737,629.89474   L 705.21053,627.78947   L 710.47368,625.52632   L 715.63158,623.15789   L 720.78947,620.63158   L 725.84211,618.05263   L 730.84211,615.31579   L 735.78947,612.47368   L 740.68421,609.52632   L 745.47368,606.47368   L 750.26316,603.31579   L 754.89474,600.05263   L 759.52632,596.68421   L 764.05263,593.21053   L 768.47368,589.63158   L 772.84211,585.94737   L 777.10526,582.21053   L 781.26316,578.31579   L 785.36842,574.36842   L 789.36842,570.31579   L 793.31579,566.15789   L 797.10526,561.89474   L 800.84211,557.57895   L 804.47368,553.21053   L 808,548.73684   L 811.42105,544.15789   L 814.73684,539.52632   L 817.94737,534.78947   L 821.05263,530   L 824.05263,525.15789   L 826.94737,520.26316   L 829.73684,515.26316   L 832.36842,510.21053   L 834.94737,505.10526   L 837.36842,499.94737   L 839.68421,494.73684   L 841.89474,489.47368   L 843.94737,484.15789   L 845.89474,478.84211   L 847.73684,473.42105   L 849.47368,468   L 851.05263,462.52632   L 852.52632,457   L 853.84211,451.47368   L 855.05263,445.89474   L 856.15789,440.26316   L 857.10526,434.63158   L 857.94737,429   L 858.63158,423.36842   L 859.21053,417.68421   L 859.68421,412   L 860,406.31579   L 860.21053,400.57895   L 860.26316,394.89474  z " id="path21"/>
  <path style="fill:none;stroke:#000000;stroke-width:4px;stroke-linecap:round;stroke-linejoin:round;stroke-miterlimit:4;stroke-dasharray:none;stroke-opacity:1;" d="  M 823.26316,314.42105   L 823.21053,312.78947   L 823,311.21053   L 822.73684,309.63158   L 822.26316,308.10526   L 821.73684,306.57895   L 821.10526,305.10526   L 820.31579,303.68421   L 819.42105,302.31579   L 818.47368,301.05263   L 817.36842,299.84211   L 816.21053,298.73684   L 815,297.73684   L 813.68421,296.78947   L 812.31579,295.94737   L 810.84211,295.26316   L 809.36842,294.63158   L 807.84211,294.15789   L 806.26316,293.78947   L 804.68421,293.57895   L 803.05263,293.42105   L 801.47368,293.42105   L 799.84211,293.57895   L 798.26316,293.78947   L 796.68421,294.15789   L 795.15789,294.63158   L 793.68421,295.26316   L 792.21053,295.94737   L 790.84211,296.78947   L 789.52632,297.73684   L 788.31579,298.73684   L 787.15789,299.84211   L 786.05263,301.05263   L 785.10526,302.31579   L 784.21053,303.68421   L 783.42105,305.10526   L 782.78947,306.57895   L 782.26316,308.10526   L 781.78947,309.63158   L 781.52632,311.21053   L 781.31579,312.78947   L 781.26316,314.42105   L 781.31579,316.05263   L 781.52632,317.63158   L 781.78947,319.21053   L 782.26316,320.73684   L 782.78947,322.26316   L 783.42105,323.73684   L 784.21053,325.15789   L 785.10526,326.52632   L 786.05263,327.78947   L 787.15789,329   L 788.31579,330.10526   L 789.52632,331.10526   L 790.84211,332.05263   L 792.21053,332.89474   L 793.68421,333.57895   L 795.15789,334.21053   L 796.68421,334.68421   L 798.26316,335.05263   L 799.84211,335.26316   L 801.47368,335.42105   L 803.05263,335.42105   L 804.68421,335.26316   L 806.26316,335.05263   L 807.84211,334.68421   L 809.36842,334.21053   L 810.84211,333.57895   L 812.31579,332.89474   L 813.68421,332.05263   L 815,331.10526   L 816.21053,330.10526   L 817.36842,329   L 818.47368,327.78947   L 819.42105,326.52632   L 820.31579,325.15789   L 821.10526,323.73684   L 821.73684,322.26316   L 822.26316,320.73684   L 822.73684,319.21053   L 823,317.63158   L 823.21053,316.05263   L 823.26316,314.42105  z " id="path23"/>
  <path style="fill:none;stroke:#000000;stroke-width:4px;stroke-linecap:round;stroke-linejoin:round;stroke-miterlimit:4;stroke-dasharray:none;stroke-opacity:1;" d="  M 434.84211,475.42105   L 434.78947,473.78947   L 434.57895,472.21053   L 434.31579,470.63158   L 433.84211,469.10526   L 433.31579,467.57895   L 432.68421,466.10526   L 431.89474,464.68421   L 431,463.31579   L 430.05263,462.05263   L 428.94737,460.84211   L 427.78947,459.73684   L 426.57895,458.73684   L 425.26316,457.78947   L 423.89474,456.94737   L 422.42105,456.26316   L 420.94737,455.63158   L 419.42105,455.15789   L 417.84211,454.78947   L 416.26316,454.57895   L 414.63158,454.42105   L 413.05263,454.42105   L 411.42105,454.57895   L 409.84211,454.78947   L 408.26316,455.15789   L 406.73684,455.63158   L 405.26316,456.26316   L 403.78947,456.94737   L 402.42105,457.78947   L 401.10526,458.73684   L 399.89474,459.73684   L 398.73684,460.84211   L 397.63158,462.05263   L 396.68421,463.31579   L 395.78947,464.68421   L 395,466.10526   L 394.36842,467.57895   L 393.84211,469.10526   L 393.36842,470.63158   L 393.10526,472.21053   L 392.89474,473.78947   L 392.84211,475.42105   L 392.89474,477.05263   L 393.10526,478.63158   L 393.36842,480.21053   L 393.84211,481.73684   L 394.36842,483.26316   L 395,484.73684   L 395.78947,486.15789   L 396.68421,487.52632   L 397.63158,488.78947   L 398.73684,490   L 399.89474,491.10526   L 401.10526,492.10526   L 402.42105,493.05263   L 403.78947,493.89474   L 405.26316,494.57895   L 406.73684,495.21053   L 408.26316,495.68421   L 409.84211,496.05263   L 411.42105,496.26316   L 413.05263,496.42105   L 414.63158,496.42105   L 416.26316,496.26316   L 417.84211,496.05263   L 419.42105,495.68421   L 420.94737,495.21053   L 422.42105,494.57895   L 423.89474,493.89474   L 425.26316,493.05263   L 426.57895,492.10526   L 427.78947,491.10526   L 428.94737,490   L 430.05263,488.78947   L 431,487.52632   L 431.89474,486.15789   L 432.68421,484.73684   L 433.31579,483.26316   L 433.84211,481.73684   L 434.31579,480.21053   L 434.57895,478.63158   L 434.78947,477.05263   L 434.84211,475.42105  z " id="path25"/>
  <path style="fill:none;stroke:#000000;stroke-width:4px;stroke-linecap:round;stroke-linejoin:round;stroke-miterlimit:4;stroke-dasharray:none;stroke-opacity:1;" d="  M 548.63158,200.57895   L 548.57895,198.94737   L 548.36842,197.36842   L 548.10526,195.78947   L 547.63158,194.26316   L 547.10526,192.73684   L 546.47368,191.26316   L 545.68421,189.84211   L 544.78947,188.47368   L 543.84211,187.21053   L 542.73684,186   L 541.57895,184.89474   L 540.36842,183.89474   L 539.05263,182.94737   L 537.68421,182.10526   L 536.21053,181.42105   L 534.73684,180.78947   L 533.21053,180.31579   L 531.63158,179.94737   L 530.05263,179.73684   L 528.42105,179.57895   L 526.84211,179.57895   L 525.21053,179.73684   L 523.63158,179.94737   L 522.05263,180.31579   L 520.52632,180.78947   L 519.05263,181.42105   L 517.57895,182.10526   L 516.21053,182.94737   L 514.89474,183.89474   L 513.68421,184.89474   L 512.52632,186   L 511.42105,187.21053   L 510.47368,188.47368   L 509.57895,189.84211   L 508.78947,191.26316   L 508.15789,192.73684   L 507.63158,194.26316   L 507.15789,195.78947   L 506.89474,197.36842   L 506.68421,198.94737   L 506.63158,200.57895   L 506.68421,202.21053   L 506.89474,203.78947   L 507.15789,205.36842   L 507.63158,206.89474   L 508.15789,208.42105   L 508.78947,209.89474   L 509.57895,211.31579   L 510.47368,212.68421   L 511.42105,213.94737   L 512.52632,215.15789   L 513.68421,216.26316   L 514.89474,217.26316   L 516.21053,218.21053   L 517.57895,219.05263   L 519.05263,219.73684   L 520.52632,220.36842   L 522.05263,220.84211   L 523.63158,221.21053   L 525.21053,221.42105   L 526.84211,221.57895   L 528.42105,221.57895   L 530.05263,221.42105   L 531.63158,221.21053   L 533.21053,220.84211   L 534.73684,220.36842   L 536.21053,219.73684   L 537.68421,219.05263   L 539.05263,218.21053   L 540.36842,217.26316   L 541.57895,216.26316   L 542.73684,215.15789   L 543.84211,213.94737   L 544.78947,212.68421   L 545.68421,211.31579   L 546.47368,209.89474   L 547.10526,208.42105   L 547.63158,206.89474   L 548.10526,205.36842   L 548.36842,203.78947   L 548.57895,202.21053   L 548.63158,200.57895  z " id="path27"/>
  <path style="fill:none;stroke:#000000;stroke-width:4px;stroke-linecap:round;stroke-linejoin:round;stroke-miterlimit:4;stroke-dasharray:none;stroke-opacity:1;" d="  M 538,570.73684   L 538,584.21053  " id="path29"/>
  <path style="fill:none;stroke:#000000;stroke-width:4px;stroke-linecap:round;stroke-linejoin:round;stroke-miterlimit:4;stroke-dasharray:none;stroke-opacity:1;" d="  M 678.10526,584.21053   L 678.10526,570.73684  " id="path31"/>
  <path style="fill:none;stroke:#000000;stroke-width:4px;stroke-linecap:round;stroke-linejoin:round;stroke-miterlimit:4;stroke-dasharray:none;stroke-opacity:1;" d="  M 678.10526,584.21053   L 538,584.21053  " id="path33"/>
  <path style="fill:none;stroke:#000000;stroke-width:4px;stroke-linecap:round;stroke-linejoin:round;stroke-miterlimit:4;stroke-dasharray:none;stroke-opacity:1;" d="  M 538,571   L 536.57895,570.26316   L 535.10526,569.63158   L 533.57895,569.10526   L 532.05263,568.73684   L 530.47368,568.47368   L 528.89474,568.31579   L 527.31579,568.26316   L 525.68421,568.36842   L 524.10526,568.57895   L 522.57895,568.89474   L 521.05263,569.31579   L 519.52632,569.89474   L 518.10526,570.57895   L 516.68421,571.31579   L 515.36842,572.21053   L 514.10526,573.21053   L 512.94737,574.26316   L 511.84211,575.42105   L 510.84211,576.68421   L 509.94737,578   L 509.10526,579.36842   L 508.42105,580.78947   L 507.84211,582.26316   L 507.36842,583.78947   L 507,585.36842   L 506.73684,586.89474   L 506.63158,588.52632   L 506.63158,590.10526   L 506.78947,591.68421   L 507,593.26316   L 507.36842,594.84211   L 507.84211,596.36842   L 508.47368,597.84211   L 509.15789,599.26316   L 509.94737,600.63158   L 510.89474,601.94737   L 511.89474,603.15789   L 513,604.31579   L 514.15789,605.36842   L 515.42105,606.36842   L 516.78947,607.26316   L 518.15789,608   L 519.63158,608.68421   L 521.10526,609.21053   L 522.63158,609.68421   L 524.21053,610   L 525.78947,610.15789   L 527.36842,610.26316   L 529,610.21053   L 530.57895,610.05263   L 532.15789,609.78947   L 533.68421,609.36842   L 535.21053,608.84211   L 536.68421,608.21053   L 538.05263,607.47368   L 539.42105,606.63158   L 540.73684,605.68421   L 541.94737,604.63158   L 543.05263,603.52632   L 544.10526,602.31579   L 545.05263,601   L 545.89474,599.68421   L 546.63158,598.26316   L 547.21053,596.78947   L 547.73684,595.26316   L 548.15789,593.73684   L 548.42105,592.15789   L 548.57895,590.57895   L 548.63158,589   L 548.52632,587.36842   L 548.36842,585.78947   L 548,584.26316  " id="path35"/>
  <path style="fill:none;stroke:#000000;stroke-width:4px;stroke-linecap:round;stroke-linejoin:round;stroke-miterlimit:4;stroke-dasharray:none;stroke-opacity:1;" d="  M 668.15789,584.26316   L 667.78947,585.78947   L 667.63158,587.36842   L 667.52632,589   L 667.57895,590.57895   L 667.73684,592.15789   L 668,593.73684   L 668.42105,595.26316   L 668.94737,596.78947   L 669.52632,598.26316   L 670.26316,599.68421   L 671.10526,601   L 672.05263,602.31579   L 673.10526,603.52632   L 674.21053,604.63158   L 675.42105,605.68421   L 676.73684,606.63158   L 678.10526,607.47368   L 679.47368,608.21053   L 680.94737,608.84211   L 682.47368,609.36842   L 684,609.78947   L 685.57895,610.05263   L 687.15789,610.21053   L 688.78947,610.26316   L 690.36842,610.15789   L 691.94737,610   L 693.52632,609.68421   L 695.05263,609.21053   L 696.52632,608.68421   L 698,608   L 699.36842,607.26316   L 700.73684,606.36842   L 702,605.36842   L 703.15789,604.31579   L 704.26316,603.15789   L 705.26316,601.94737   L 706.21053,600.63158   L 707,599.26316   L 707.68421,597.84211   L 708.31579,596.36842   L 708.78947,594.84211   L 709.15789,593.26316   L 709.36842,591.68421   L 709.52632,590.10526   L 709.52632,588.52632   L 709.42105,586.89474   L 709.15789,585.36842   L 708.78947,583.78947   L 708.31579,582.26316   L 707.73684,580.78947   L 707.05263,579.36842   L 706.21053,578   L 705.31579,576.68421   L 704.31579,575.42105   L 703.21053,574.26316   L 702.05263,573.21053   L 700.78947,572.21053   L 699.47368,571.31579   L 698.05263,570.57895   L 696.63158,569.89474   L 695.10526,569.31579   L 693.57895,568.89474   L 692.05263,568.57895   L 690.47368,568.36842   L 688.84211,568.26316   L 687.26316,568.31579   L 685.68421,568.47368   L 684.10526,568.73684   L 682.57895,569.10526   L 681.05263,569.63158   L 679.57895,570.26316   L 678.15789,571  " id="path37"/>
</svg>