<svg xmlns:dc="http://purl.org/dc/elements/1.1/" xmlns:cc="http://creativecommons.org/ns#" xmlns:rdf="http://www.w3.org/1999/02/22-rdf-syntax-ns#" xmlns:svg="http://www.w3.org/2000/svg" xmlns="http://www.w3.org/2000/svg" id="svg39" version="1.0" preserveAspectRatio="none" viewBox="365.71 181.34 504.47 504.79">
  <metadata id="metadata43">
    <rdf:RDF>
      <cc:Work rdf:about="">
        <dc:format>image/svg+xml</dc:format>
        <dc:type rdf:resource="http://purl.org/dc/dcmitype/StillImage"/>
      </cc:Work>
    </rdf:RDF>
  </metadata>
  <defs id="defs3">
    <pattern y="0" x="0" height="6" width="6" patternUnits="userSpaceOnUse" id="WMFhbasepattern"/>
  </defs>
  <path id="path5" d="  M 628.26316,249.63158   L 628.21053,248.52632   L 628,247.42105   L 627.73684,246.31579   L 627.31579,245.31579   L 626.78947,244.31579   L 626.15789,243.36842   L 625.42105,242.52632   L 624.63158,241.78947   L 623.73684,241.10526   L 622.78947,240.52632   L 621.78947,240.05263   L 620.68421,239.68421   L 619.63158,239.47368   L 618.52632,239.31579   L 617.36842,239.31579   L 616.26316,239.47368   L 615.21053,239.68421   L 614.10526,240.05263   L 613.10526,240.52632   L 612.15789,241.10526   L 611.26316,241.78947   L 610.47368,242.52632   L 609.73684,243.36842   L 609.10526,244.31579   L 608.57895,245.31579   L 608.15789,246.31579   L 607.89474,247.42105   L 607.68421,248.52632   L 607.63158,249.63158   L 607.68421,250.73684   L 607.89474,251.84211   L 608.15789,252.94737   L 608.57895,253.94737   L 609.10526,254.94737   L 609.73684,255.89474   L 610.47368,256.73684   L 611.26316,257.47368   L 612.15789,258.15789   L 613.10526,258.73684   L 614.10526,259.21053   L 615.21053,259.57895   L 616.26316,259.78947   L 617.36842,259.94737   L 618.52632,259.94737   L 619.63158,259.78947   L 620.68421,259.57895   L 621.78947,259.21053   L 622.78947,258.73684   L 623.73684,258.15789   L 624.63158,257.47368   L 625.42105,256.73684   L 626.15789,255.89474   L 626.78947,254.94737   L 627.31579,253.94737   L 627.73684,252.94737   L 628,251.84211   L 628.21053,250.73684   L 628.26316,249.63158  z " style="fill:none;stroke:#000000;stroke-width:4px;stroke-linecap:round;stroke-linejoin:round;stroke-miterlimit:4;stroke-dasharray:none;stroke-opacity:1;"/>
  <path id="path7" d="  M 444.26316,433.73684   L 444.21053,432.63158   L 444,431.52632   L 443.73684,430.42105   L 443.31579,429.42105   L 442.78947,428.42105   L 442.15789,427.47368   L 441.42105,426.63158   L 440.63158,425.89474   L 439.73684,425.21053   L 438.78947,424.63158   L 437.78947,424.15789   L 436.68421,423.78947   L 435.63158,423.57895   L 434.52632,423.42105   L 433.36842,423.42105   L 432.26316,423.57895   L 431.21053,423.78947   L 430.10526,424.15789   L 429.10526,424.63158   L 428.15789,425.21053   L 427.26316,425.89474   L 426.47368,426.63158   L 425.73684,427.47368   L 425.10526,428.42105   L 424.57895,429.42105   L 424.15789,430.42105   L 423.89474,431.52632   L 423.68421,432.63158   L 423.63158,433.73684   L 423.68421,434.84211   L 423.89474,435.94737   L 424.15789,437.05263   L 424.57895,438.05263   L 425.10526,439.05263   L 425.73684,440   L 426.47368,440.84211   L 427.26316,441.57895   L 428.15789,442.26316   L 429.10526,442.84211   L 430.10526,443.31579   L 431.21053,443.68421   L 432.26316,443.89474   L 433.36842,444.05263   L 434.52632,444.05263   L 435.63158,443.89474   L 436.68421,443.68421   L 437.78947,443.31579   L 438.78947,442.84211   L 439.73684,442.26316   L 440.63158,441.57895   L 441.42105,440.84211   L 442.15789,440   L 442.78947,439.05263   L 443.31579,438.05263   L 443.73684,437.05263   L 444,435.94737   L 444.21053,434.84211   L 444.26316,433.73684  z " style="fill:none;stroke:#000000;stroke-width:4px;stroke-linecap:round;stroke-linejoin:round;stroke-miterlimit:4;stroke-dasharray:none;stroke-opacity:1;"/>
  <path id="path9" d="  M 628.26316,617.89474   L 628.21053,616.78947   L 628,615.68421   L 627.73684,614.57895   L 627.31579,613.57895   L 626.78947,612.57895   L 626.15789,611.63158   L 625.42105,610.78947   L 624.63158,610.05263   L 623.73684,609.36842   L 622.78947,608.78947   L 621.78947,608.31579   L 620.68421,607.94737   L 619.63158,607.73684   L 618.52632,607.57895   L 617.36842,607.57895   L 616.26316,607.73684   L 615.21053,607.94737   L 614.10526,608.31579   L 613.10526,608.78947   L 612.15789,609.36842   L 611.26316,610.05263   L 610.47368,610.78947   L 609.73684,611.63158   L 609.10526,612.57895   L 608.57895,613.57895   L 608.15789,614.57895   L 607.89474,615.68421   L 607.68421,616.78947   L 607.63158,617.89474   L 607.68421,619   L 607.89474,620.10526   L 608.15789,621.21053   L 608.57895,622.21053   L 609.10526,623.21053   L 609.73684,624.15789   L 610.47368,625   L 611.26316,625.73684   L 612.15789,626.42105   L 613.10526,627   L 614.10526,627.47368   L 615.21053,627.84211   L 616.26316,628.05263   L 617.36842,628.21053   L 618.52632,628.21053   L 619.63158,628.05263   L 620.68421,627.84211   L 621.78947,627.47368   L 622.78947,627   L 623.73684,626.42105   L 624.63158,625.73684   L 625.42105,625   L 626.15789,624.15789   L 626.78947,623.21053   L 627.31579,622.21053   L 627.73684,621.21053   L 628,620.10526   L 628.21053,619   L 628.26316,617.89474  z " style="fill:none;stroke:#000000;stroke-width:4px;stroke-linecap:round;stroke-linejoin:round;stroke-miterlimit:4;stroke-dasharray:none;stroke-opacity:1;"/>
  <path id="path11" d="  M 812.31579,433.73684   L 812.26316,432.63158   L 812.05263,431.52632   L 811.78947,430.42105   L 811.36842,429.42105   L 810.84211,428.42105   L 810.21053,427.47368   L 809.47368,426.63158   L 808.68421,425.89474   L 807.78947,425.21053   L 806.84211,424.63158   L 805.84211,424.15789   L 804.73684,423.78947   L 803.68421,423.57895   L 802.57895,423.42105   L 801.42105,423.42105   L 800.31579,423.57895   L 799.26316,423.78947   L 798.15789,424.15789   L 797.15789,424.63158   L 796.21053,425.21053   L 795.31579,425.89474   L 794.52632,426.63158   L 793.78947,427.47368   L 793.15789,428.42105   L 792.63158,429.42105   L 792.21053,430.42105   L 791.94737,431.52632   L 791.73684,432.63158   L 791.68421,433.73684   L 791.73684,434.84211   L 791.94737,435.94737   L 792.21053,437.05263   L 792.63158,438.05263   L 793.15789,439.05263   L 793.78947,440   L 794.52632,440.84211   L 795.31579,441.57895   L 796.21053,442.26316   L 797.15789,442.84211   L 798.15789,443.31579   L 799.26316,443.68421   L 800.31579,443.89474   L 801.42105,444.05263   L 802.57895,444.05263   L 803.68421,443.89474   L 804.73684,443.68421   L 805.84211,443.31579   L 806.84211,442.84211   L 807.78947,442.26316   L 808.68421,441.57895   L 809.47368,440.84211   L 810.21053,440   L 810.84211,439.05263   L 811.36842,438.05263   L 811.78947,437.05263   L 812.05263,435.94737   L 812.26316,434.84211   L 812.31579,433.73684  z " style="fill:none;stroke:#000000;stroke-width:4px;stroke-linecap:round;stroke-linejoin:round;stroke-miterlimit:4;stroke-dasharray:none;stroke-opacity:1;"/>
  <path id="path13" d="  M 815.73684,433.73684   L 815.68421,428.68421   L 815.47368,423.63158   L 815.15789,418.57895   L 814.68421,413.57895   L 814.10526,408.52632   L 813.42105,403.52632   L 812.57895,398.52632   L 811.63158,393.57895   L 810.52632,388.63158   L 809.31579,383.73684   L 808,378.84211   L 806.52632,374.05263   L 804.94737,369.21053   L 803.21053,364.47368   L 801.42105,359.73684   L 799.47368,355.10526   L 797.36842,350.47368   L 795.21053,345.94737   L 792.89474,341.42105   L 790.47368,337   L 787.94737,332.63158   L 785.31579,328.31579   L 782.57895,324.05263   L 779.73684,319.89474   L 776.78947,315.78947   L 773.68421,311.78947   L 770.52632,307.84211   L 767.26316,303.94737   L 763.89474,300.21053   L 760.47368,296.52632   L 756.89474,292.89474   L 753.26316,289.42105   L 749.52632,286   L 745.73684,282.68421   L 741.84211,279.47368   L 737.84211,276.36842   L 733.78947,273.31579   L 729.68421,270.42105   L 725.47368,267.63158   L 721.21053,264.94737   L 716.84211,262.36842   L 712.42105,259.89474   L 707.94737,257.52632   L 703.42105,255.26316   L 698.84211,253.15789   L 694.21053,251.15789   L 689.52632,249.26316   L 684.78947,247.47368   L 680.05263,245.84211   L 675.21053,244.31579   L 670.36842,242.89474   L 665.47368,241.63158   L 660.52632,240.47368   L 655.57895,239.47368   L 650.63158,238.57895   L 645.63158,237.78947   L 640.63158,237.15789   L 635.57895,236.63158   L 630.57895,236.26316   L 625.52632,236   L 620.47368,235.84211   L 615.42105,235.84211   L 610.36842,236   L 605.31579,236.26316   L 600.31579,236.63158   L 595.26316,237.15789   L 590.26316,237.78947   L 585.26316,238.57895   L 580.31579,239.47368   L 575.36842,240.47368   L 570.42105,241.63158   L 565.52632,242.89474   L 560.68421,244.31579   L 555.84211,245.84211   L 551.10526,247.47368   L 546.36842,249.26316   L 541.68421,251.15789   L 537.05263,253.15789   L 532.47368,255.26316   L 527.94737,257.52632   L 523.47368,259.89474   L 519.05263,262.36842   L 514.68421,264.94737   L 510.42105,267.63158   L 506.21053,270.42105   L 502.10526,273.31579   L 498.05263,276.36842   L 494.05263,279.47368   L 490.15789,282.68421   L 486.36842,286   L 482.63158,289.42105   L 479,292.89474   L 475.42105,296.52632   L 472,300.21053   L 468.63158,303.94737   L 465.36842,307.84211   L 462.21053,311.78947   L 459.10526,315.78947   L 456.15789,319.89474   L 453.31579,324.05263   L 450.57895,328.31579   L 447.94737,332.63158   L 445.42105,337   L 443,341.42105   L 440.68421,345.94737   L 438.52632,350.47368   L 436.42105,355.10526   L 434.47368,359.73684   L 432.68421,364.47368   L 430.94737,369.21053   L 429.36842,374.05263   L 427.89474,378.84211   L 426.57895,383.73684   L 425.36842,388.63158   L 424.26316,393.57895   L 423.31579,398.52632   L 422.47368,403.52632   L 421.78947,408.52632   L 421.21053,413.57895   L 420.73684,418.57895   L 420.42105,423.63158   L 420.21053,428.68421   L 420.15789,433.73684   L 420.21053,438.78947   L 420.42105,443.84211   L 420.73684,448.89474   L 421.21053,453.89474   L 421.78947,458.94737   L 422.47368,463.94737   L 423.31579,468.94737   L 424.26316,473.89474   L 425.36842,478.84211   L 426.57895,483.73684   L 427.89474,488.63158   L 429.36842,493.42105   L 430.94737,498.26316   L 432.68421,503   L 434.47368,507.73684   L 436.42105,512.36842   L 438.52632,517   L 440.68421,521.52632   L 443,526.05263   L 445.42105,530.47368   L 447.94737,534.84211   L 450.57895,539.15789   L 453.31579,543.42105   L 456.15789,547.57895   L 459.10526,551.68421   L 462.21053,555.68421   L 465.36842,559.63158   L 468.63158,563.52632   L 472,567.26316   L 475.42105,570.94737   L 479,574.57895   L 482.63158,578.05263   L 486.36842,581.47368   L 490.15789,584.78947   L 494.05263,588   L 498.05263,591.10526   L 502.10526,594.15789   L 506.21053,597.05263   L 510.42105,599.84211   L 514.68421,602.52632   L 519.05263,605.10526   L 523.47368,607.57895   L 527.94737,609.94737   L 532.47368,612.21053   L 537.05263,614.31579   L 541.68421,616.31579   L 546.36842,618.21053   L 551.10526,620   L 555.84211,621.63158   L 560.68421,623.15789   L 565.52632,624.57895   L 570.42105,625.84211   L 575.36842,627   L 580.31579,628   L 585.26316,628.89474   L 590.26316,629.68421   L 595.26316,630.31579   L 600.31579,630.84211   L 605.31579,631.21053   L 610.36842,631.47368   L 615.42105,631.63158   L 620.47368,631.63158   L 625.52632,631.47368   L 630.57895,631.21053   L 635.57895,630.84211   L 640.63158,630.31579   L 645.63158,629.68421   L 650.63158,628.89474   L 655.57895,628   L 660.52632,627   L 665.47368,625.84211   L 670.36842,624.57895   L 675.21053,623.15789   L 680.05263,621.63158   L 684.78947,620   L 689.52632,618.21053   L 694.21053,616.31579   L 698.84211,614.31579   L 703.42105,612.21053   L 707.94737,609.94737   L 712.42105,607.57895   L 716.84211,605.10526   L 721.21053,602.52632   L 725.47368,599.84211   L 729.68421,597.05263   L 733.78947,594.15789   L 737.84211,591.10526   L 741.84211,588   L 745.73684,584.78947   L 749.52632,581.47368   L 753.26316,578.05263   L 756.89474,574.57895   L 760.47368,570.94737   L 763.89474,567.26316   L 767.26316,563.52632   L 770.52632,559.63158   L 773.68421,555.68421   L 776.78947,551.68421   L 779.73684,547.57895   L 782.57895,543.42105   L 785.31579,539.15789   L 787.94737,534.84211   L 790.47368,530.47368   L 792.89474,526.05263   L 795.21053,521.52632   L 797.36842,517   L 799.47368,512.36842   L 801.42105,507.73684   L 803.21053,503   L 804.94737,498.26316   L 806.52632,493.42105   L 808,488.63158   L 809.31579,483.73684   L 810.52632,478.84211   L 811.63158,473.89474   L 812.57895,468.94737   L 813.42105,463.94737   L 814.10526,458.94737   L 814.68421,453.89474   L 815.15789,448.89474   L 815.47368,443.84211   L 815.68421,438.78947   L 815.73684,433.73684  z " style="fill:none;stroke:#000000;stroke-width:4px;stroke-linecap:round;stroke-linejoin:round;stroke-miterlimit:4;stroke-dasharray:none;stroke-opacity:1;"/>
  <path id="path15" d="  M 436.73684,517.15789   L 436.68421,515.57895   L 436.47368,514   L 436.15789,512.47368   L 435.73684,510.94737   L 435.21053,509.47368   L 434.52632,508.05263   L 433.78947,506.68421   L 432.89474,505.36842   L 431.94737,504.15789   L 430.84211,503   L 429.68421,501.89474   L 428.47368,500.94737   L 427.15789,500.05263   L 425.78947,499.31579   L 424.36842,498.63158   L 422.89474,498.10526   L 421.36842,497.68421   L 419.84211,497.36842   L 418.26316,497.15789   L 416.68421,497.10526   L 415.10526,497.15789   L 413.52632,497.36842   L 412,497.68421   L 410.47368,498.10526   L 409,498.63158   L 407.57895,499.31579   L 406.21053,500.05263   L 404.89474,500.94737   L 403.68421,501.89474   L 402.52632,503   L 401.42105,504.15789   L 400.47368,505.36842   L 399.57895,506.68421   L 398.84211,508.05263   L 398.15789,509.47368   L 397.63158,510.94737   L 397.21053,512.47368   L 396.89474,514   L 396.68421,515.57895   L 396.63158,517.15789   L 396.68421,518.73684   L 396.89474,520.31579   L 397.21053,521.84211   L 397.63158,523.36842   L 398.15789,524.84211   L 398.84211,526.26316   L 399.57895,527.63158   L 400.47368,528.94737   L 401.42105,530.15789   L 402.52632,531.31579   L 403.68421,532.42105   L 404.89474,533.36842   L 406.21053,534.26316   L 407.57895,535   L 409,535.68421   L 410.47368,536.21053   L 412,536.63158   L 413.52632,536.94737   L 415.10526,537.15789   L 416.68421,537.21053   L 418.26316,537.15789   L 419.84211,536.94737   L 421.36842,536.63158   L 422.89474,536.21053   L 424.36842,535.68421   L 425.78947,535   L 427.15789,534.26316   L 428.47368,533.36842   L 429.68421,532.42105   L 430.84211,531.31579   L 431.94737,530.15789   L 432.89474,528.94737   L 433.78947,527.63158   L 434.52632,526.26316   L 435.21053,524.84211   L 435.73684,523.36842   L 436.15789,521.84211   L 436.47368,520.31579   L 436.68421,518.73684   L 436.73684,517.15789  z " style="fill:none;stroke:#000000;stroke-width:4px;stroke-linecap:round;stroke-linejoin:round;stroke-miterlimit:4;stroke-dasharray:none;stroke-opacity:1;"/>
  <path id="path17" d="  M 721.36842,635.15789   L 721.31579,633.57895   L 721.10526,632   L 720.78947,630.47368   L 720.36842,628.94737   L 719.84211,627.47368   L 719.15789,626.05263   L 718.42105,624.68421   L 717.52632,623.36842   L 716.57895,622.15789   L 715.47368,621   L 714.31579,619.89474   L 713.10526,618.94737   L 711.78947,618.05263   L 710.42105,617.31579   L 709,616.63158   L 707.52632,616.10526   L 706,615.68421   L 704.47368,615.36842   L 702.89474,615.15789   L 701.31579,615.10526   L 699.73684,615.15789   L 698.15789,615.36842   L 696.63158,615.68421   L 695.10526,616.10526   L 693.63158,616.63158   L 692.21053,617.31579   L 690.84211,618.05263   L 689.52632,618.94737   L 688.31579,619.89474   L 687.15789,621   L 686.05263,622.15789   L 685.10526,623.36842   L 684.21053,624.68421   L 683.47368,626.05263   L 682.78947,627.47368   L 682.26316,628.94737   L 681.84211,630.47368   L 681.52632,632   L 681.31579,633.57895   L 681.26316,635.15789   L 681.31579,636.73684   L 681.52632,638.31579   L 681.84211,639.84211   L 682.26316,641.36842   L 682.78947,642.84211   L 683.47368,644.26316   L 684.21053,645.63158   L 685.10526,646.94737   L 686.05263,648.15789   L 687.15789,649.31579   L 688.31579,650.42105   L 689.52632,651.36842   L 690.84211,652.26316   L 692.21053,653   L 693.63158,653.68421   L 695.10526,654.21053   L 696.63158,654.63158   L 698.15789,654.94737   L 699.73684,655.15789   L 701.31579,655.21053   L 702.89474,655.15789   L 704.47368,654.94737   L 706,654.63158   L 707.52632,654.21053   L 709,653.68421   L 710.42105,653   L 711.78947,652.26316   L 713.10526,651.36842   L 714.31579,650.42105   L 715.47368,649.31579   L 716.57895,648.15789   L 717.52632,646.94737   L 718.42105,645.63158   L 719.15789,644.26316   L 719.84211,642.84211   L 720.36842,641.36842   L 720.78947,639.84211   L 721.10526,638.31579   L 721.31579,636.73684   L 721.36842,635.15789  z " style="fill:none;stroke:#000000;stroke-width:4px;stroke-linecap:round;stroke-linejoin:round;stroke-miterlimit:4;stroke-dasharray:none;stroke-opacity:1;"/>
  <path id="path19" d="  M 839.26316,350.31579   L 839.21053,348.73684   L 839,347.15789   L 838.68421,345.63158   L 838.26316,344.10526   L 837.73684,342.63158   L 837.05263,341.21053   L 836.31579,339.84211   L 835.42105,338.52632   L 834.47368,337.31579   L 833.36842,336.15789   L 832.21053,335.05263   L 831,334.10526   L 829.68421,333.21053   L 828.31579,332.47368   L 826.89474,331.78947   L 825.42105,331.26316   L 823.89474,330.84211   L 822.36842,330.52632   L 820.78947,330.31579   L 819.21053,330.26316   L 817.63158,330.31579   L 816.05263,330.52632   L 814.52632,330.84211   L 813,331.26316   L 811.52632,331.78947   L 810.10526,332.47368   L 808.73684,333.21053   L 807.42105,334.10526   L 806.21053,335.05263   L 805.05263,336.15789   L 803.94737,337.31579   L 803,338.52632   L 802.10526,339.84211   L 801.36842,341.21053   L 800.68421,342.63158   L 800.15789,344.10526   L 799.73684,345.63158   L 799.42105,347.15789   L 799.21053,348.73684   L 799.15789,350.31579   L 799.21053,351.89474   L 799.42105,353.47368   L 799.73684,355   L 800.15789,356.52632   L 800.68421,358   L 801.36842,359.42105   L 802.10526,360.78947   L 803,362.10526   L 803.94737,363.31579   L 805.05263,364.47368   L 806.21053,365.57895   L 807.42105,366.52632   L 808.73684,367.42105   L 810.10526,368.15789   L 811.52632,368.84211   L 813,369.36842   L 814.52632,369.78947   L 816.05263,370.10526   L 817.63158,370.31579   L 819.21053,370.36842   L 820.78947,370.31579   L 822.36842,370.10526   L 823.89474,369.78947   L 825.42105,369.36842   L 826.89474,368.84211   L 828.31579,368.15789   L 829.68421,367.42105   L 831,366.52632   L 832.21053,365.57895   L 833.36842,364.47368   L 834.47368,363.31579   L 835.42105,362.10526   L 836.31579,360.78947   L 837.05263,359.42105   L 837.73684,358   L 838.26316,356.52632   L 838.68421,355   L 839,353.47368   L 839.21053,351.89474   L 839.26316,350.31579  z " style="fill:none;stroke:#000000;stroke-width:4px;stroke-linecap:round;stroke-linejoin:round;stroke-miterlimit:4;stroke-dasharray:none;stroke-opacity:1;"/>
  <path id="path21" d="  M 554.63158,232.36842   L 554.57895,230.78947   L 554.36842,229.21053   L 554.05263,227.68421   L 553.63158,226.15789   L 553.10526,224.68421   L 552.42105,223.26316   L 551.68421,221.89474   L 550.78947,220.57895   L 549.84211,219.36842   L 548.73684,218.21053   L 547.57895,217.10526   L 546.36842,216.15789   L 545.05263,215.26316   L 543.68421,214.52632   L 542.26316,213.84211   L 540.78947,213.31579   L 539.26316,212.89474   L 537.73684,212.57895   L 536.15789,212.36842   L 534.57895,212.31579   L 533,212.36842   L 531.42105,212.57895   L 529.89474,212.89474   L 528.36842,213.31579   L 526.89474,213.84211   L 525.47368,214.52632   L 524.10526,215.26316   L 522.78947,216.15789   L 521.57895,217.10526   L 520.42105,218.21053   L 519.31579,219.36842   L 518.36842,220.57895   L 517.47368,221.89474   L 516.73684,223.26316   L 516.05263,224.68421   L 515.52632,226.15789   L 515.10526,227.68421   L 514.78947,229.21053   L 514.57895,230.78947   L 514.52632,232.36842   L 514.57895,233.94737   L 514.78947,235.52632   L 515.10526,237.05263   L 515.52632,238.57895   L 516.05263,240.05263   L 516.73684,241.47368   L 517.47368,242.84211   L 518.36842,244.15789   L 519.31579,245.36842   L 520.42105,246.52632   L 521.57895,247.63158   L 522.78947,248.57895   L 524.10526,249.47368   L 525.47368,250.21053   L 526.89474,250.89474   L 528.36842,251.42105   L 529.89474,251.84211   L 531.42105,252.15789   L 533,252.36842   L 534.57895,252.42105   L 536.15789,252.36842   L 537.73684,252.15789   L 539.26316,251.84211   L 540.78947,251.42105   L 542.26316,250.89474   L 543.68421,250.21053   L 545.05263,249.47368   L 546.36842,248.57895   L 547.57895,247.63158   L 548.73684,246.52632   L 549.84211,245.36842   L 550.78947,244.15789   L 551.68421,242.84211   L 552.42105,241.47368   L 553.10526,240.05263   L 553.63158,238.57895   L 554.05263,237.05263   L 554.36842,235.52632   L 554.57895,233.94737   L 554.63158,232.36842  z " style="fill:none;stroke:#000000;stroke-width:4px;stroke-linecap:round;stroke-linejoin:round;stroke-miterlimit:4;stroke-dasharray:none;stroke-opacity:1;"/>
  <path id="path23" d="  M 436.73684,350.31579   L 436.68421,348.73684   L 436.47368,347.15789   L 436.15789,345.63158   L 435.73684,344.10526   L 435.21053,342.63158   L 434.52632,341.21053   L 433.78947,339.84211   L 432.89474,338.52632   L 431.94737,337.31579   L 430.84211,336.15789   L 429.68421,335.05263   L 428.47368,334.10526   L 427.15789,333.21053   L 425.78947,332.47368   L 424.36842,331.78947   L 422.89474,331.26316   L 421.36842,330.84211   L 419.84211,330.52632   L 418.26316,330.31579   L 416.68421,330.26316   L 415.10526,330.31579   L 413.52632,330.52632   L 412,330.84211   L 410.47368,331.26316   L 409,331.78947   L 407.57895,332.47368   L 406.21053,333.21053   L 404.89474,334.10526   L 403.68421,335.05263   L 402.52632,336.15789   L 401.42105,337.31579   L 400.47368,338.52632   L 399.57895,339.84211   L 398.84211,341.21053   L 398.15789,342.63158   L 397.63158,344.10526   L 397.21053,345.63158   L 396.89474,347.15789   L 396.68421,348.73684   L 396.63158,350.31579   L 396.68421,351.89474   L 396.89474,353.47368   L 397.21053,355   L 397.63158,356.52632   L 398.15789,358   L 398.84211,359.42105   L 399.57895,360.78947   L 400.47368,362.10526   L 401.42105,363.31579   L 402.52632,364.47368   L 403.68421,365.57895   L 404.89474,366.52632   L 406.21053,367.42105   L 407.57895,368.15789   L 409,368.84211   L 410.47368,369.36842   L 412,369.78947   L 413.52632,370.10526   L 415.10526,370.31579   L 416.68421,370.36842   L 418.26316,370.31579   L 419.84211,370.10526   L 421.36842,369.78947   L 422.89474,369.36842   L 424.36842,368.84211   L 425.78947,368.15789   L 427.15789,367.42105   L 428.47368,366.52632   L 429.68421,365.57895   L 430.84211,364.47368   L 431.94737,363.31579   L 432.89474,362.10526   L 433.78947,360.78947   L 434.52632,359.42105   L 435.21053,358   L 435.73684,356.52632   L 436.15789,355   L 436.47368,353.47368   L 436.68421,351.89474   L 436.73684,350.31579  z " style="fill:none;stroke:#000000;stroke-width:4px;stroke-linecap:round;stroke-linejoin:round;stroke-miterlimit:4;stroke-dasharray:none;stroke-opacity:1;"/>
  <path id="path25" d="  M 721.36842,232.36842   L 721.31579,230.78947   L 721.10526,229.21053   L 720.78947,227.68421   L 720.36842,226.15789   L 719.84211,224.68421   L 719.15789,223.26316   L 718.42105,221.89474   L 717.52632,220.57895   L 716.57895,219.36842   L 715.47368,218.21053   L 714.31579,217.10526   L 713.10526,216.15789   L 711.78947,215.26316   L 710.42105,214.52632   L 709,213.84211   L 707.52632,213.31579   L 706,212.89474   L 704.47368,212.57895   L 702.89474,212.36842   L 701.31579,212.31579   L 699.73684,212.36842   L 698.15789,212.57895   L 696.63158,212.89474   L 695.10526,213.31579   L 693.63158,213.84211   L 692.21053,214.52632   L 690.84211,215.26316   L 689.52632,216.15789   L 688.31579,217.10526   L 687.15789,218.21053   L 686.05263,219.36842   L 685.10526,220.57895   L 684.21053,221.89474   L 683.47368,223.26316   L 682.78947,224.68421   L 682.26316,226.15789   L 681.84211,227.68421   L 681.52632,229.21053   L 681.31579,230.78947   L 681.26316,232.36842   L 681.31579,233.94737   L 681.52632,235.52632   L 681.84211,237.05263   L 682.26316,238.57895   L 682.78947,240.05263   L 683.47368,241.47368   L 684.21053,242.84211   L 685.10526,244.15789   L 686.05263,245.36842   L 687.15789,246.52632   L 688.31579,247.63158   L 689.52632,248.57895   L 690.84211,249.47368   L 692.21053,250.21053   L 693.63158,250.89474   L 695.10526,251.42105   L 696.63158,251.84211   L 698.15789,252.15789   L 699.73684,252.36842   L 701.31579,252.42105   L 702.89474,252.36842   L 704.47368,252.15789   L 706,251.84211   L 707.52632,251.42105   L 709,250.89474   L 710.42105,250.21053   L 711.78947,249.47368   L 713.10526,248.57895   L 714.31579,247.63158   L 715.47368,246.52632   L 716.57895,245.36842   L 717.52632,244.15789   L 718.42105,242.84211   L 719.15789,241.47368   L 719.84211,240.05263   L 720.36842,238.57895   L 720.78947,237.05263   L 721.10526,235.52632   L 721.31579,233.94737   L 721.36842,232.36842  z " style="fill:none;stroke:#000000;stroke-width:4px;stroke-linecap:round;stroke-linejoin:round;stroke-miterlimit:4;stroke-dasharray:none;stroke-opacity:1;"/>
  <path id="path27" d="  M 839.26316,517.15789   L 839.21053,515.57895   L 839,514   L 838.68421,512.47368   L 838.26316,510.94737   L 837.73684,509.47368   L 837.05263,508.05263   L 836.31579,506.68421   L 835.42105,505.36842   L 834.47368,504.15789   L 833.36842,503   L 832.21053,501.89474   L 831,500.94737   L 829.68421,500.05263   L 828.31579,499.31579   L 826.89474,498.63158   L 825.42105,498.10526   L 823.89474,497.68421   L 822.36842,497.36842   L 820.78947,497.15789   L 819.21053,497.10526   L 817.63158,497.15789   L 816.05263,497.36842   L 814.52632,497.68421   L 813,498.10526   L 811.52632,498.63158   L 810.10526,499.31579   L 808.73684,500.05263   L 807.42105,500.94737   L 806.21053,501.89474   L 805.05263,503   L 803.94737,504.15789   L 803,505.36842   L 802.10526,506.68421   L 801.36842,508.05263   L 800.68421,509.47368   L 800.15789,510.94737   L 799.73684,512.47368   L 799.42105,514   L 799.21053,515.57895   L 799.15789,517.15789   L 799.21053,518.73684   L 799.42105,520.31579   L 799.73684,521.84211   L 800.15789,523.36842   L 800.68421,524.84211   L 801.36842,526.26316   L 802.10526,527.63158   L 803,528.94737   L 803.94737,530.15789   L 805.05263,531.31579   L 806.21053,532.42105   L 807.42105,533.36842   L 808.73684,534.26316   L 810.10526,535   L 811.52632,535.68421   L 813,536.21053   L 814.52632,536.63158   L 816.05263,536.94737   L 817.63158,537.15789   L 819.21053,537.21053   L 820.78947,537.15789   L 822.36842,536.94737   L 823.89474,536.63158   L 825.42105,536.21053   L 826.89474,535.68421   L 828.31579,535   L 829.68421,534.26316   L 831,533.36842   L 832.21053,532.42105   L 833.36842,531.31579   L 834.47368,530.15789   L 835.42105,528.94737   L 836.31579,527.63158   L 837.05263,526.26316   L 837.73684,524.84211   L 838.26316,523.36842   L 838.68421,521.84211   L 839,520.31579   L 839.21053,518.73684   L 839.26316,517.15789  z " style="fill:none;stroke:#000000;stroke-width:4px;stroke-linecap:round;stroke-linejoin:round;stroke-miterlimit:4;stroke-dasharray:none;stroke-opacity:1;"/>
  <path id="path29" d="  M 554.63158,635.15789   L 554.57895,633.57895   L 554.36842,632   L 554.05263,630.47368   L 553.63158,628.94737   L 553.10526,627.47368   L 552.42105,626.05263   L 551.68421,624.68421   L 550.78947,623.36842   L 549.84211,622.15789   L 548.73684,621   L 547.57895,619.89474   L 546.36842,618.94737   L 545.05263,618.05263   L 543.68421,617.31579   L 542.26316,616.63158   L 540.78947,616.10526   L 539.26316,615.68421   L 537.73684,615.36842   L 536.15789,615.15789   L 534.57895,615.10526   L 533,615.15789   L 531.42105,615.36842   L 529.89474,615.68421   L 528.36842,616.10526   L 526.89474,616.63158   L 525.47368,617.31579   L 524.10526,618.05263   L 522.78947,618.94737   L 521.57895,619.89474   L 520.42105,621   L 519.31579,622.15789   L 518.36842,623.36842   L 517.47368,624.68421   L 516.73684,626.05263   L 516.05263,627.47368   L 515.52632,628.94737   L 515.10526,630.47368   L 514.78947,632   L 514.57895,633.57895   L 514.52632,635.15789   L 514.57895,636.73684   L 514.78947,638.31579   L 515.10526,639.84211   L 515.52632,641.36842   L 516.05263,642.84211   L 516.73684,644.26316   L 517.47368,645.63158   L 518.36842,646.94737   L 519.31579,648.15789   L 520.42105,649.31579   L 521.57895,650.42105   L 522.78947,651.36842   L 524.10526,652.26316   L 525.47368,653   L 526.89474,653.68421   L 528.36842,654.21053   L 529.89474,654.63158   L 531.42105,654.94737   L 533,655.15789   L 534.57895,655.21053   L 536.15789,655.15789   L 537.73684,654.94737   L 539.26316,654.63158   L 540.78947,654.21053   L 542.26316,653.68421   L 543.68421,653   L 545.05263,652.26316   L 546.36842,651.36842   L 547.57895,650.42105   L 548.73684,649.31579   L 549.84211,648.15789   L 550.78947,646.94737   L 551.68421,645.63158   L 552.42105,644.26316   L 553.10526,642.84211   L 553.63158,641.36842   L 554.05263,639.84211   L 554.36842,638.31579   L 554.57895,636.73684   L 554.63158,635.15789  z " style="fill:none;stroke:#000000;stroke-width:4px;stroke-linecap:round;stroke-linejoin:round;stroke-miterlimit:4;stroke-dasharray:none;stroke-opacity:1;"/>
  <path id="path31" d="  M 870.15789,433.73684   L 870.10526,428.05263   L 869.89474,422.31579   L 869.57895,416.63158   L 869.10526,410.94737   L 868.52632,405.26316   L 867.84211,399.63158   L 867,394   L 866.05263,388.36842   L 864.94737,382.73684   L 863.73684,377.15789   L 862.42105,371.63158   L 860.94737,366.10526   L 859.36842,360.63158   L 857.63158,355.21053   L 855.78947,349.78947   L 853.84211,344.47368   L 851.78947,339.15789   L 849.57895,333.89474   L 847.26316,328.68421   L 844.84211,323.52632   L 842.26316,318.42105   L 839.63158,313.36842   L 836.84211,308.36842   L 833.94737,303.47368   L 830.94737,298.63158   L 827.84211,293.84211   L 824.63158,289.10526   L 821.31579,284.47368   L 817.89474,279.89474   L 814.36842,275.42105   L 810.73684,271.05263   L 807,266.73684   L 803.21053,262.47368   L 799.26316,258.31579   L 795.26316,254.26316   L 791.15789,250.31579   L 787,246.42105   L 782.73684,242.68421   L 778.36842,239   L 773.94737,235.42105   L 769.42105,231.94737   L 764.78947,228.57895   L 760.15789,225.31579   L 755.36842,222.15789   L 750.57895,219.10526   L 745.68421,216.15789   L 740.73684,213.31579   L 735.73684,210.57895   L 730.68421,208   L 725.52632,205.47368   L 720.36842,203.10526   L 715.10526,200.84211   L 709.84211,198.73684   L 704.52632,196.68421   L 699.10526,194.78947   L 693.73684,193   L 688.26316,191.36842   L 682.78947,189.84211   L 677.26316,188.42105   L 671.68421,187.15789   L 666.10526,186   L 660.47368,185   L 654.84211,184.10526   L 649.21053,183.31579   L 643.57895,182.68421   L 637.89474,182.15789   L 632.21053,181.78947   L 626.47368,181.52632   L 620.78947,181.36842   L 615.10526,181.36842   L 609.42105,181.52632   L 603.68421,181.78947   L 598,182.15789   L 592.31579,182.68421   L 586.68421,183.31579   L 581.05263,184.10526   L 575.42105,185   L 569.78947,186   L 564.21053,187.15789   L 558.63158,188.42105   L 553.10526,189.84211   L 547.63158,191.36842   L 542.15789,193   L 536.78947,194.78947   L 531.36842,196.68421   L 526.05263,198.73684   L 520.78947,200.84211   L 515.52632,203.10526   L 510.36842,205.47368   L 505.21053,208   L 500.15789,210.57895   L 495.15789,213.31579   L 490.21053,216.15789   L 485.31579,219.10526   L 480.52632,222.15789   L 475.73684,225.31579   L 471.10526,228.57895   L 466.47368,231.94737   L 461.94737,235.42105   L 457.52632,239   L 453.15789,242.68421   L 448.89474,246.42105   L 444.73684,250.31579   L 440.63158,254.26316   L 436.63158,258.31579   L 432.68421,262.47368   L 428.89474,266.73684   L 425.15789,271.05263   L 421.52632,275.42105   L 418,279.89474   L 414.57895,284.47368   L 411.26316,289.10526   L 408.05263,293.84211   L 404.94737,298.63158   L 401.94737,303.47368   L 399.05263,308.36842   L 396.26316,313.36842   L 393.63158,318.42105   L 391.05263,323.52632   L 388.63158,328.68421   L 386.31579,333.89474   L 384.10526,339.15789   L 382.05263,344.47368   L 380.10526,349.78947   L 378.26316,355.21053   L 376.52632,360.63158   L 374.94737,366.10526   L 373.47368,371.63158   L 372.15789,377.15789   L 370.94737,382.73684   L 369.84211,388.36842   L 368.89474,394   L 368.05263,399.63158   L 367.36842,405.26316   L 366.78947,410.94737   L 366.31579,416.63158   L 366,422.31579   L 365.78947,428.05263   L 365.73684,433.73684   L 365.78947,439.42105   L 366,445.15789   L 366.31579,450.84211   L 366.78947,456.52632   L 367.36842,462.21053   L 368.05263,467.84211   L 368.89474,473.47368   L 369.84211,479.10526   L 370.94737,484.73684   L 372.15789,490.31579   L 373.47368,495.84211   L 374.94737,501.36842   L 376.52632,506.84211   L 378.26316,512.26316   L 380.10526,517.68421   L 382.05263,523   L 384.10526,528.31579   L 386.31579,533.57895   L 388.63158,538.78947   L 391.05263,543.94737   L 393.63158,549.05263   L 396.26316,554.10526   L 399.05263,559.10526   L 401.94737,564   L 404.94737,568.84211   L 408.05263,573.63158   L 411.26316,578.36842   L 414.57895,583   L 418,587.57895   L 421.52632,592.05263   L 425.15789,596.42105   L 428.89474,600.73684   L 432.68421,605   L 436.63158,609.15789   L 440.63158,613.21053   L 444.73684,617.15789   L 448.89474,621.05263   L 453.15789,624.78947   L 457.52632,628.47368   L 461.94737,632.05263   L 466.47368,635.52632   L 471.10526,638.89474   L 475.73684,642.15789   L 480.52632,645.31579   L 485.31579,648.36842   L 490.21053,651.31579   L 495.15789,654.15789   L 500.15789,656.89474   L 505.21053,659.47368   L 510.36842,662   L 515.52632,664.36842   L 520.78947,666.63158   L 526.05263,668.73684   L 531.36842,670.78947   L 536.78947,672.68421   L 542.15789,674.47368   L 547.63158,676.10526   L 553.10526,677.63158   L 558.63158,679.05263   L 564.21053,680.31579   L 569.78947,681.47368   L 575.42105,682.47368   L 581.05263,683.36842   L 586.68421,684.15789   L 592.31579,684.78947   L 598,685.31579   L 603.68421,685.68421   L 609.42105,685.94737   L 615.10526,686.10526   L 620.78947,686.10526   L 626.47368,685.94737   L 632.21053,685.68421   L 637.89474,685.31579   L 643.57895,684.78947   L 649.21053,684.15789   L 654.84211,683.36842   L 660.47368,682.47368   L 666.10526,681.47368   L 671.68421,680.31579   L 677.26316,679.05263   L 682.78947,677.63158   L 688.26316,676.10526   L 693.73684,674.47368   L 699.10526,672.68421   L 704.52632,670.78947   L 709.84211,668.73684   L 715.10526,666.63158   L 720.36842,664.36842   L 725.52632,662   L 730.68421,659.47368   L 735.73684,656.89474   L 740.73684,654.15789   L 745.68421,651.31579   L 750.57895,648.36842   L 755.36842,645.31579   L 760.15789,642.15789   L 764.78947,638.89474   L 769.42105,635.52632   L 773.94737,632.05263   L 778.36842,628.47368   L 782.73684,624.78947   L 787,621.05263   L 791.15789,617.15789   L 795.26316,613.21053   L 799.26316,609.15789   L 803.21053,605   L 807,600.73684   L 810.73684,596.42105   L 814.36842,592.05263   L 817.89474,587.57895   L 821.31579,583   L 824.63158,578.36842   L 827.84211,573.63158   L 830.94737,568.84211   L 833.94737,564   L 836.84211,559.10526   L 839.63158,554.10526   L 842.26316,549.05263   L 844.84211,543.94737   L 847.26316,538.78947   L 849.57895,533.57895   L 851.78947,528.31579   L 853.84211,523   L 855.78947,517.68421   L 857.63158,512.26316   L 859.36842,506.84211   L 860.94737,501.36842   L 862.42105,495.84211   L 863.73684,490.31579   L 864.94737,484.73684   L 866.05263,479.10526   L 867,473.47368   L 867.84211,467.84211   L 868.52632,462.21053   L 869.10526,456.52632   L 869.57895,450.84211   L 869.89474,445.15789   L 870.10526,439.42105   L 870.15789,433.73684  z " style="fill:none;stroke:#000000;stroke-width:4px;stroke-linecap:round;stroke-linejoin:round;stroke-miterlimit:4;stroke-dasharray:none;stroke-opacity:1;"/>
  <path id="path33" d="  M 560.63158,623.15789   L 560.63158,631.68421  " style="fill:none;stroke:#000000;stroke-width:4px;stroke-linecap:round;stroke-linejoin:round;stroke-miterlimit:4;stroke-dasharray:none;stroke-opacity:1;"/>
  <path id="path35" d="  M 675.31579,631.68421   L 675.31579,623.15789  " style="fill:none;stroke:#000000;stroke-width:4px;stroke-linecap:round;stroke-linejoin:round;stroke-miterlimit:4;stroke-dasharray:none;stroke-opacity:1;"/>
  <path id="path37" d="  M 675.31579,631.68421   L 560.63158,631.68421  " style="fill:none;stroke:#000000;stroke-width:4px;stroke-linecap:round;stroke-linejoin:round;stroke-miterlimit:4;stroke-dasharray:none;stroke-opacity:1;"/>
</svg>